<svg width="297" height="29" viewBox="0 0 297 29" fill="none" xmlns="http://www.w3.org/2000/svg">
  <path stroke-width="1" id="myPath1" stroke="#26619C" d="M1 1C3.5 2.83333 20.3 6.4 67.5 6C126.5 5.5 158.5 8 158 19C157.6 27.8 137.167 28.6667 127 28C120.333 27 109 23.4 117 17C125 10.6 139 13 145 15C147.5 15.6667 152.4 17.5 152 19.5C151.6 21.5 143.167 23.3333 139 24C133.5 24.5 121.9 24.8 119.5 22C117.1 19.2 121.833 17.5 124.5 17C128.667 16.1667 138.5 15.3 144.5 18.5C148 20.3667 139.2 21.8 132 21C122 19 115.9 14.2 67.5 15C19.1 15.8 3 2.83333 1 1Z">
  </path>
  <path stroke-width="1" id="myPath2" stroke="#26619C" d="M296.006 1C293.506 2.83333 276.706 6.4 229.506 6C170.506 5.5 138.506 8 139.006 19C139.406 27.8 159.839 28.6667 170.006 28C176.673 27 188.006 23.4 180.006 17C172.006 10.6 158.006 13 152.006 15C149.506 15.6667 144.606 17.5 145.006 19.5C145.406 21.5 153.839 23.3333 158.006 24C163.506 24.5 175.106 24.8 177.506 22C179.906 19.2 175.173 17.5 172.506 17C168.339 16.1667 158.506 15.3 152.506 18.5C149.006 20.3667 157.806 21.8 165.006 21C175.006 19 181.106 14.2 229.506 15C277.906 15.8 294.006 2.83333 296.006 1Z">
</path>

<script type="text/javascript">
  const path1 = document.getElementById("myPath1");
  const length1 = path1.getTotalLength();

  const path2 = document.getElementById("myPath2");
  const length2 = path2.getTotalLength();

  console.log(length1);
  console.log(length2);
</script>
</svg>
