<svg width="287" height="55" viewBox="0 0 287 55" fill="none" xmlns="http://www.w3.org/2000/svg">
<path d="M40.8851 36.645C37.4096 36.6465 32.3167 34.2405 32.3167 34.2405C31.9163 36.6731 32.6386 39.1609 33.8968 41.4541C33.8968 41.4541 38.0814 43.1003 40.8851 43.0993C43.6847 43.0984 47.8626 41.4541 47.8626 41.4541C49.1179 39.1609 49.8385 36.673 49.4399 34.2405C49.4399 34.2405 44.3554 36.6436 40.8851 36.645Z" fill="#26619C"/>
<path d="M49.0719 23.2102C49.0792 23.0695 49.0829 22.9278 49.0829 22.7851C49.0829 21.9539 48.9592 21.1517 48.7292 20.3957C47.7065 17.0337 44.5815 14.5873 40.8851 14.5873C38.9588 14.5873 37.1768 15.2296 35.7649 16.3164C34.4394 17.3367 33.4402 18.7486 32.9541 20.3885C32.741 21.1077 32.6265 21.8706 32.6265 22.6637C32.6265 22.8473 32.6326 23.0295 32.6445 23.2102C32.6955 23.9864 32.8547 24.7331 33.107 25.4355C33.1238 25.4824 33.1411 25.5291 33.1588 25.5756C33.6463 26.8584 34.4467 27.9871 35.4667 28.8686C36.9035 30.1104 38.7762 30.8615 40.8244 30.8615C42.9091 30.8615 44.8249 30.109 46.2854 28.8551C47.3037 27.9808 48.1007 26.8627 48.5791 25.5859C48.8578 24.8423 49.0284 24.0447 49.0719 23.2102Z" fill="#26619C"/>
<path d="M40.8851 14.5873C42.7564 14.5873 44.4813 15.2143 45.8611 16.2697C46.4239 14.1108 46.6595 10.641 43.754 10.3489C43.0092 10.2741 42.0671 13.0494 40.8851 13.4855C39.8127 13.0898 38.9376 10.3007 38.2281 10.3283C35.1049 10.4497 35.1888 14.1062 35.7649 16.3164C37.1768 15.2296 38.9588 14.5873 40.8851 14.5873Z" fill="#26619C"/>
<path d="M32.6265 22.6637C32.6265 21.8706 32.741 21.1077 32.9541 20.3885C31.6272 19.8702 28.7907 18.9006 25.5825 17.3806C21.9415 15.6556 17.6409 13.4504 13.7412 12.1583C8.45335 10.4063 3.92024 10.1745 2.93218 13.6157C2.66904 14.6075 3.43013 17.3077 8.09378 19.6881C8.21523 22.4208 10.8021 27.3152 20.178 25.0319C20.9733 24.8735 22.0361 24.6714 23.2211 24.4599C23.6218 24.3883 24.0365 24.3157 24.4596 24.2433C27.4209 23.7365 30.7915 23.2412 32.6445 23.2102C32.6326 23.0295 32.6265 22.8473 32.6265 22.6637Z" fill="#26619C"/>
<path d="M23.2211 24.4599C19.6586 25.1886 12.5753 27.2059 13.2554 29.3434C14.1055 32.0152 19.51 33.7155 23.7607 31.5902C27.1613 29.7077 29.017 26.0842 33.1588 25.5756C33.1411 25.5291 33.1238 25.4824 33.107 25.4355C32.8547 24.7331 32.6955 23.9864 32.6445 23.2102C30.7915 23.2412 27.4209 23.7365 24.4596 24.2433C24.0365 24.3157 23.6218 24.3883 23.2211 24.4599Z" fill="#26619C"/>
<path d="M49.0719 23.2102C49.0284 24.0447 48.8578 24.8423 48.5791 25.5859C52.7209 26.0946 54.5443 29.7077 57.9448 31.5902C62.1956 33.7155 67.6 32.0152 68.4502 29.3434C69.1303 27.2059 62.1634 25.2091 58.6009 24.4804C55.382 23.903 51.2149 23.2461 49.0719 23.2102Z" fill="#26619C"/>
<path d="M49.0829 22.7851C49.0829 22.9278 49.0792 23.0695 49.0719 23.2102C51.2149 23.2461 55.382 23.903 58.6009 24.4804C58.6495 24.4891 58.6979 24.4978 58.746 24.5065C59.8253 24.701 60.7908 24.8852 61.5276 25.0319C70.9035 27.3152 73.4903 22.4208 73.6118 19.6881C78.2754 17.3077 79.0365 14.6075 78.7734 13.6157C77.7853 10.1745 73.2522 10.4063 67.9644 12.1583C64.0647 13.4504 59.764 15.6556 56.1231 17.3806C52.9149 18.9006 50.0562 19.8774 48.7292 20.3957C48.9592 21.1517 49.0829 21.9539 49.0829 22.7851Z" fill="#26619C"/>
<path d="M46.2854 28.8551C44.8249 30.109 42.9091 30.8615 40.8244 30.8615C38.7762 30.8615 36.9035 30.1104 35.4667 28.8686C33.5853 30.5525 32.6228 32.3804 32.3167 34.2405C32.3167 34.2405 37.4096 36.6465 40.8851 36.645C44.3554 36.6436 49.4399 34.2405 49.4399 34.2405C49.1343 32.3752 48.1706 30.5425 46.2854 28.8551Z" fill="#26619C"/>
<path d="M33.8968 41.4541C35.701 44.7427 38.6073 47.6311 40.8851 49.3825C43.1615 47.6321 46.0621 44.7433 47.8626 41.4541C47.8626 41.4541 43.6847 43.0984 40.8851 43.0993C38.0814 43.1003 33.8968 41.4541 33.8968 41.4541Z" fill="#26619C"/>
<path d="M40.8851 36.645C37.4096 36.6465 32.3167 34.2405 32.3167 34.2405C31.9163 36.6731 32.6386 39.1609 33.8968 41.4541C33.8968 41.4541 38.0814 43.1003 40.8851 43.0993C43.6847 43.0984 47.8626 41.4541 47.8626 41.4541C49.1179 39.1609 49.8385 36.673 49.4399 34.2405C49.4399 34.2405 44.3554 36.6436 40.8851 36.645Z" fill="#26619C"/>
<path d="M49.0719 23.2102C49.0792 23.0695 49.0829 22.9278 49.0829 22.7851C49.0829 21.9539 48.9592 21.1517 48.7292 20.3957C47.7065 17.0337 44.5815 14.5873 40.8851 14.5873C38.9588 14.5873 37.1768 15.2296 35.7649 16.3164C34.4394 17.3367 33.4402 18.7486 32.9541 20.3885C32.741 21.1077 32.6265 21.8706 32.6265 22.6637C32.6265 22.8473 32.6326 23.0295 32.6445 23.2102C32.6955 23.9864 32.8547 24.7331 33.107 25.4355C33.1238 25.4824 33.1411 25.5291 33.1588 25.5756C33.6463 26.8584 34.4467 27.9871 35.4667 28.8686C36.9035 30.1104 38.7762 30.8615 40.8244 30.8615C42.9091 30.8615 44.8249 30.109 46.2854 28.8551C47.3037 27.9808 48.1007 26.8627 48.5791 25.5859C48.8578 24.8423 49.0284 24.0447 49.0719 23.2102Z" fill="#26619C"/>
<path d="M40.8851 14.5873C42.7564 14.5873 44.4813 15.2143 45.8611 16.2697C46.4239 14.1108 46.6595 10.641 43.754 10.3489C43.0092 10.2741 42.0671 13.0494 40.8851 13.4855C39.8127 13.0898 38.9376 10.3007 38.2281 10.3283C35.1049 10.4497 35.1888 14.1062 35.7649 16.3164C37.1768 15.2296 38.9588 14.5873 40.8851 14.5873Z" fill="#26619C"/>
<path d="M32.6265 22.6637C32.6265 21.8706 32.741 21.1077 32.9541 20.3885C31.6272 19.8702 28.7907 18.9006 25.5825 17.3806C21.9415 15.6556 17.6409 13.4504 13.7412 12.1583C8.45335 10.4063 3.92024 10.1745 2.93218 13.6157C2.66904 14.6075 3.43013 17.3077 8.09378 19.6881C8.21523 22.4208 10.8021 27.3152 20.178 25.0319C20.9733 24.8735 22.0361 24.6714 23.2211 24.4599C23.6218 24.3883 24.0365 24.3157 24.4596 24.2433C27.4209 23.7365 30.7915 23.2412 32.6445 23.2102C32.6326 23.0295 32.6265 22.8473 32.6265 22.6637Z" fill="#26619C"/>
<path d="M23.2211 24.4599C19.6586 25.1886 12.5753 27.2059 13.2554 29.3434C14.1055 32.0152 19.51 33.7155 23.7607 31.5902C27.1613 29.7077 29.017 26.0842 33.1588 25.5756C33.1411 25.5291 33.1238 25.4824 33.107 25.4355C32.8547 24.7331 32.6955 23.9864 32.6445 23.2102C30.7915 23.2412 27.4209 23.7365 24.4596 24.2433C24.0365 24.3157 23.6218 24.3883 23.2211 24.4599Z" fill="#26619C"/>
<path d="M49.0719 23.2102C49.0284 24.0447 48.8578 24.8423 48.5791 25.5859C52.7209 26.0946 54.5443 29.7077 57.9448 31.5902C62.1956 33.7155 67.6 32.0152 68.4502 29.3434C69.1303 27.2059 62.1634 25.2091 58.6009 24.4804C55.382 23.903 51.2149 23.2461 49.0719 23.2102Z" fill="#26619C"/>
<path d="M49.0829 22.7851C49.0829 22.9278 49.0792 23.0695 49.0719 23.2102C51.2149 23.2461 55.382 23.903 58.6009 24.4804C58.6495 24.4891 58.6979 24.4978 58.746 24.5065C59.8253 24.701 60.7908 24.8852 61.5276 25.0319C70.9035 27.3152 73.4903 22.4208 73.6118 19.6881C78.2754 17.3077 79.0365 14.6075 78.7734 13.6157C77.7853 10.1745 73.2522 10.4063 67.9644 12.1583C64.0647 13.4504 59.764 15.6556 56.1231 17.3806C52.9149 18.9006 50.0562 19.8774 48.7292 20.3957C48.9592 21.1517 49.0829 21.9539 49.0829 22.7851Z" fill="#26619C"/>
<path d="M46.2854 28.8551C44.8249 30.109 42.9091 30.8615 40.8244 30.8615C38.7762 30.8615 36.9035 30.1104 35.4667 28.8686C33.5853 30.5525 32.6228 32.3804 32.3167 34.2405C32.3167 34.2405 37.4096 36.6465 40.8851 36.645C44.3554 36.6436 49.4399 34.2405 49.4399 34.2405C49.1343 32.3752 48.1706 30.5425 46.2854 28.8551Z" fill="#26619C"/>
<path d="M33.8968 41.4541C35.701 44.7427 38.6073 47.6311 40.8851 49.3825C43.1615 47.6321 46.0621 44.7433 47.8626 41.4541C47.8626 41.4541 43.6847 43.0984 40.8851 43.0993C38.0814 43.1003 33.8968 41.4541 33.8968 41.4541Z" fill="#26619C"/>
<mask id="path-3-outside-1_24_13" maskUnits="userSpaceOnUse" x="0" y="2.5" width="82" height="51" fill="black">
<rect fill="white" y="2.5" width="82" height="51"/>
<path fill-rule="evenodd" clip-rule="evenodd" d="M52.339 5.23551C52.4222 5.71766 52.0987 6.1759 51.6165 6.25903C50.3005 6.48594 49.5007 6.84865 49.0397 7.16162C48.8398 7.29733 48.6974 7.50316 48.5573 7.70574C48.375 7.96936 48.1965 8.22746 47.8999 8.31834C46.4867 8.75142 45.6487 9.27246 45.1762 9.69862C45.1397 9.73153 45.1057 9.76359 45.074 9.79474C45.4414 9.96656 45.7616 10.1988 46.0323 10.4856C46.5581 11.0426 46.8387 11.7424 46.9769 12.4361C47.2067 13.589 47.0745 14.8798 46.8504 15.9346C47.8845 16.8359 48.7125 17.9676 49.2547 19.2494L49.4864 19.163C51.0046 18.5973 53.2598 17.7569 55.7438 16.58C56.401 16.2687 57.0842 15.9393 57.7861 15.6009C60.9271 14.0867 64.4431 12.3918 67.6857 11.3174C70.3648 10.4297 72.9555 9.88901 75.0518 10.0565C76.1088 10.1409 77.0947 10.4094 77.9056 10.9547C78.7332 11.5113 79.323 12.3199 79.6248 13.3712L79.6273 13.3798L79.6296 13.3885C79.8503 14.2202 79.597 15.4083 78.7743 16.6269C77.9829 17.7991 76.6257 19.0699 74.4501 20.2482C74.2471 21.7706 73.4245 23.6573 71.547 24.9675C70.457 25.7282 69.0558 26.2642 67.2892 26.4425C67.649 26.6497 67.9768 26.868 68.2584 27.0972C68.9288 27.643 69.6421 28.519 69.2943 29.612C68.7303 31.3848 66.79 32.6036 64.686 33.1256C62.5216 33.6625 59.8877 33.5521 57.5486 32.3825L57.532 32.3742L57.5158 32.3652C56.1328 31.5997 54.9662 30.544 53.9074 29.5859C53.5834 29.2926 53.2694 29.0085 52.9624 28.7447C51.7754 27.7243 50.609 26.9121 49.1203 26.5774C48.7213 27.4189 48.194 28.1858 47.5645 28.8559C49.1443 30.4873 50.0136 32.2628 50.3141 34.0973C50.7563 36.7957 49.9484 39.4886 48.6397 41.8795C46.7631 45.3077 43.7659 48.2848 41.425 50.0848L40.885 50.5L40.345 50.0848C38.0035 48.2843 35.0006 45.3078 33.1201 41.8802C31.8084 39.4894 30.9983 36.796 31.4425 34.0967C31.7437 32.2667 32.6123 30.4956 34.1892 28.8677C33.5554 28.19 33.0239 27.4148 32.6197 26.5667C31.1278 26.9016 29.9535 27.7167 28.758 28.7406C28.4477 29.0064 28.1302 29.2926 27.8027 29.5879C26.7395 30.5466 25.5699 31.6012 24.1897 32.3652L24.1735 32.3742L24.1569 32.3825C21.8178 33.5521 19.1839 33.6625 17.0195 33.1256C14.9155 32.6036 12.9753 31.3848 12.4112 29.612C12.0608 28.5109 12.7945 27.6326 13.4699 27.0903C13.751 26.8646 14.0775 26.6492 14.4354 26.4444C12.6598 26.268 11.2525 25.7309 10.1585 24.9675C8.28097 23.6573 7.45841 21.7706 7.25538 20.2482C5.07975 19.0699 3.72256 17.7991 2.93118 16.6269C2.10846 15.4083 1.85524 14.2202 2.07589 13.3885L2.0782 13.3798L2.08067 13.3712C2.38254 12.3199 2.9723 11.5113 3.79992 10.9547C4.61081 10.4094 5.59669 10.1409 6.65369 10.0565C8.74998 9.88901 11.3407 10.4297 14.0198 11.3174C17.2625 12.3918 20.7784 14.0867 23.9194 15.6009C24.6213 15.9393 25.3045 16.2687 25.9617 16.58C28.448 17.758 30.6919 18.5945 32.2041 19.1583L32.4243 19.2404C32.9532 17.978 33.7653 16.8686 34.7782 15.9811C34.5535 14.8785 34.4543 13.5219 34.7491 12.3269C34.9254 11.6122 35.2562 10.902 35.8399 10.3569C36.1307 10.0854 36.4676 9.87042 36.8484 9.71701C36.8346 9.70413 36.8204 9.69111 36.8058 9.67795C36.3333 9.25179 35.4953 8.73075 34.0821 8.29767C33.7878 8.20747 33.6079 7.9572 33.4233 7.7005C33.279 7.49978 33.1319 7.29513 32.9251 7.16C32.4445 6.84605 31.6241 6.48649 30.3048 6.25903C29.8226 6.1759 29.4992 5.71766 29.5823 5.23551C29.6654 4.75336 30.1237 4.4299 30.6058 4.51302C32.1042 4.77136 33.1662 5.20122 33.8941 5.67669C34.3742 5.99037 34.748 6.35159 34.979 6.72516C36.3729 7.19558 37.3421 7.77565 37.9925 8.36229C38.3102 8.64881 38.5651 8.95023 38.7513 9.25118C40.4743 8.83694 42.136 9.00809 43.2325 9.26908C43.4185 8.96906 43.6729 8.66861 43.9896 8.38297C44.639 7.79715 45.6064 7.21788 46.9972 6.74782C47.216 6.38176 47.5699 6.01796 48.0446 5.69574C48.7616 5.20896 49.8139 4.77192 51.3155 4.51302C51.7977 4.4299 52.2559 4.75336 52.339 5.23551ZM40.885 15.4732C39.1579 15.4732 37.5651 16.0486 36.3052 17.0185C35.1219 17.9293 34.2345 19.186 33.8035 20.6403C33.6144 21.2782 33.5124 21.9564 33.5124 22.6637C33.5124 22.8279 33.5178 22.9907 33.5284 23.152C33.574 23.8448 33.7159 24.5103 33.9407 25.136L33.9435 25.1438C33.9576 25.183 33.9721 25.222 33.9868 25.2609C33.9992 25.2935 34.0118 25.3259 34.0247 25.3583C34.4622 26.4613 35.1611 27.4337 36.0459 28.1984C37.3279 29.3063 38.9969 29.9756 40.8243 29.9756C42.6934 29.9756 44.4054 29.3016 45.7083 28.183C46.6169 27.4029 47.3251 26.4079 47.7496 25.2751C47.9967 24.6154 48.1485 23.9072 48.1872 23.1642C48.1937 23.0388 48.197 22.9125 48.197 22.7851C48.197 22.0423 48.0865 21.3269 47.8817 20.6536C47.4323 19.1764 46.5279 17.8978 45.3321 16.9804L45.3229 16.9734C44.092 16.0322 42.5535 15.4732 40.885 15.4732ZM35.5213 30.0395C34.3422 31.2376 33.6583 32.48 33.3316 33.7235C33.3886 33.748 33.449 33.7739 33.5126 33.8009C34.0318 34.021 34.7593 34.3146 35.5918 34.6077C37.2846 35.2038 39.3066 35.7598 40.8847 35.7592C42.4604 35.7585 44.4793 35.2025 46.1694 34.6067C47.0004 34.3138 47.7269 34.0205 48.2451 33.8005C48.3085 33.7736 48.3687 33.7479 48.4256 33.7233C48.0988 32.4743 47.413 31.2267 46.229 30.0242C44.7085 31.1123 42.8355 31.7474 40.8243 31.7474C38.8457 31.7474 37.0134 31.1139 35.5213 30.0395ZM48.6636 35.5464C48.1502 35.7594 47.4941 36.0184 46.7584 36.2777C45.0386 36.8839 42.78 37.5302 40.8854 37.5309C38.988 37.5317 36.7259 36.8855 35.0033 36.2789C34.2652 36.019 33.6069 35.7593 33.0923 35.5458C33.0779 37.2614 33.6204 39.0257 34.5204 40.7428C34.6214 40.78 34.7457 40.8252 34.8899 40.8762C35.3149 41.0266 35.9101 41.2271 36.5898 41.4273C37.973 41.8348 39.6174 42.2139 40.8847 42.2135C42.1502 42.213 43.7922 41.8339 45.1731 41.4267C45.8518 41.2266 46.4461 41.0262 46.8704 40.876C47.014 40.8251 47.1378 40.7802 47.2385 40.743C48.1361 39.0263 48.6774 37.262 48.6636 35.5464ZM45.7746 43.0963L45.7315 43.1091L45.6742 43.1261C44.2663 43.5412 42.4195 43.9847 40.8853 43.9852C39.3489 43.9858 37.4993 43.5423 36.0892 43.1269C36.0721 43.1219 36.0552 43.1169 36.0383 43.1118C36.0215 43.1069 36.0049 43.1019 35.9883 43.097C37.4685 45.1493 39.2882 46.9514 40.885 48.2525C42.4803 46.952 44.2972 45.1494 45.7746 43.0963ZM32.0155 24.8895C31.9529 24.6408 31.9005 24.3881 31.8588 24.1319C29.9965 24.2568 27.1791 24.6767 24.609 25.1165C24.1919 25.1879 23.783 25.2595 23.3877 25.33C21.6355 25.689 19.0379 26.3614 16.9796 27.1945C15.9388 27.6158 15.1015 28.0525 14.5792 28.4718C14.3185 28.6812 14.1857 28.8474 14.1284 28.9578C14.086 29.0395 14.0955 29.0641 14.0989 29.073L14.0995 29.0748C14.3856 29.9738 15.5726 30.9411 17.4461 31.4059C19.2539 31.8544 21.4403 31.7542 23.348 30.8061C24.5264 30.1507 25.4805 29.2916 26.5039 28.37C26.8587 28.0505 27.2218 27.7235 27.6055 27.3949C28.8317 26.3447 30.2099 25.3462 32.0155 24.8895ZM31.7456 22.364C31.7616 21.8778 31.8165 21.4019 31.9075 20.939L31.7712 20.8882L31.6225 20.8328C30.116 20.2714 27.7687 19.3967 25.2031 18.1812C24.5207 17.8579 23.8197 17.5201 23.106 17.1762C19.9676 15.6638 16.5846 14.0337 13.4625 12.9992C10.8538 12.1349 8.53401 11.6837 6.79478 11.8226C5.93402 11.8914 5.27088 12.1007 4.78867 12.425C4.3258 12.7362 3.97969 13.1858 3.78688 13.8489C3.74592 14.0191 3.74971 14.6729 4.39962 15.6355C5.03737 16.5801 6.26488 17.7601 8.49649 18.8991L8.95586 19.1336L8.97876 19.6488C9.02948 20.7902 9.60301 22.4193 11.1724 23.5145C12.729 24.6008 15.4322 25.2758 19.9683 24.1712L19.9865 24.1668L20.0049 24.1631C20.806 24.0035 21.8746 23.8004 23.0654 23.5878L23.0786 23.5854C23.4773 23.5143 23.8896 23.4421 24.3101 23.3701C26.8513 22.9352 29.7547 22.4976 31.7456 22.364ZM49.7163 24.8983C51.5231 25.3538 52.8962 26.3514 54.1174 27.4011C54.4972 27.7275 54.8566 28.0523 55.2078 28.3697C56.2274 29.2911 57.1779 30.15 58.3575 30.8061C60.2652 31.7542 62.4516 31.8544 64.2594 31.4059C66.1329 30.9411 67.3199 29.9738 67.606 29.0748L67.6067 29.0726C67.6111 29.0598 67.62 29.0335 67.5785 28.9518C67.5232 28.8429 67.3944 28.6785 67.1398 28.4713C66.6292 28.0556 65.8076 27.6222 64.7819 27.2038C62.7536 26.3764 60.1858 25.7094 58.4339 25.3504C58.0753 25.2862 57.7063 25.2211 57.3306 25.1562C54.7209 24.7055 51.7923 24.2624 49.8675 24.1325C49.8282 24.3917 49.7776 24.6471 49.7163 24.8983ZM49.9591 22.3633C52.3046 22.5198 55.9326 23.1017 58.7573 23.6084L58.7602 23.6089L58.9031 23.6346C59.9873 23.83 60.9582 24.0152 61.7006 24.1631L61.719 24.1668L61.7372 24.1712C66.2733 25.2758 68.9765 24.6008 70.5331 23.5145C72.1025 22.4193 72.676 20.7902 72.7267 19.6488L72.7496 19.1336L73.209 18.8991C75.4406 17.7601 76.6681 16.5801 77.3059 15.6355C77.9558 14.6729 77.9596 14.0191 77.9186 13.8489C77.7258 13.1858 77.3797 12.7362 76.9168 12.425C76.4346 12.1007 75.7715 11.8914 74.9107 11.8226C73.1715 11.6837 70.8517 12.1349 68.243 12.9992C65.1209 14.0337 61.738 15.6638 58.5995 17.1761C57.8859 17.52 57.1848 17.8579 56.5024 18.1812C53.9389 19.3957 51.5792 20.2746 50.0668 20.8379C49.9682 20.8746 49.8731 20.91 49.7819 20.944C49.877 21.4057 49.937 21.8797 49.9591 22.3633ZM45.2393 12.7824C45.3613 13.3945 45.3438 14.1128 45.2483 14.816C44.2713 14.2799 43.1848 13.9182 42.0308 13.773C42.1393 12.8272 42.6616 11.0008 43.8823 11.2614C44.2933 11.3389 44.5586 11.5055 44.7439 11.7018C44.9735 11.945 45.1436 12.3024 45.2393 12.7824ZM36.3905 14.8509C37.413 14.2874 38.5555 13.9118 39.7666 13.7676C39.5613 12.8453 39.3337 10.9543 38.04 11.2306C37.5028 11.3453 37.2648 11.4505 37.0492 11.6518C36.7882 11.8955 36.5904 12.2603 36.4693 12.7513C36.3141 13.3806 36.3075 14.127 36.3905 14.8509Z"/>
</mask>
<path fill-rule="evenodd" clip-rule="evenodd" d="M52.339 5.23551C52.4222 5.71766 52.0987 6.1759 51.6165 6.25903C50.3005 6.48594 49.5007 6.84865 49.0397 7.16162C48.8398 7.29733 48.6974 7.50316 48.5573 7.70574C48.375 7.96936 48.1965 8.22746 47.8999 8.31834C46.4867 8.75142 45.6487 9.27246 45.1762 9.69862C45.1397 9.73153 45.1057 9.76359 45.074 9.79474C45.4414 9.96656 45.7616 10.1988 46.0323 10.4856C46.5581 11.0426 46.8387 11.7424 46.9769 12.4361C47.2067 13.589 47.0745 14.8798 46.8504 15.9346C47.8845 16.8359 48.7125 17.9676 49.2547 19.2494L49.4864 19.163C51.0046 18.5973 53.2598 17.7569 55.7438 16.58C56.401 16.2687 57.0842 15.9393 57.7861 15.6009C60.9271 14.0867 64.4431 12.3918 67.6857 11.3174C70.3648 10.4297 72.9555 9.88901 75.0518 10.0565C76.1088 10.1409 77.0947 10.4094 77.9056 10.9547C78.7332 11.5113 79.323 12.3199 79.6248 13.3712L79.6273 13.3798L79.6296 13.3885C79.8503 14.2202 79.597 15.4083 78.7743 16.6269C77.9829 17.7991 76.6257 19.0699 74.4501 20.2482C74.2471 21.7706 73.4245 23.6573 71.547 24.9675C70.457 25.7282 69.0558 26.2642 67.2892 26.4425C67.649 26.6497 67.9768 26.868 68.2584 27.0972C68.9288 27.643 69.6421 28.519 69.2943 29.612C68.7303 31.3848 66.79 32.6036 64.686 33.1256C62.5216 33.6625 59.8877 33.5521 57.5486 32.3825L57.532 32.3742L57.5158 32.3652C56.1328 31.5997 54.9662 30.544 53.9074 29.5859C53.5834 29.2926 53.2694 29.0085 52.9624 28.7447C51.7754 27.7243 50.609 26.9121 49.1203 26.5774C48.7213 27.4189 48.194 28.1858 47.5645 28.8559C49.1443 30.4873 50.0136 32.2628 50.3141 34.0973C50.7563 36.7957 49.9484 39.4886 48.6397 41.8795C46.7631 45.3077 43.7659 48.2848 41.425 50.0848L40.885 50.5L40.345 50.0848C38.0035 48.2843 35.0006 45.3078 33.1201 41.8802C31.8084 39.4894 30.9983 36.796 31.4425 34.0967C31.7437 32.2667 32.6123 30.4956 34.1892 28.8677C33.5554 28.19 33.0239 27.4148 32.6197 26.5667C31.1278 26.9016 29.9535 27.7167 28.758 28.7406C28.4477 29.0064 28.1302 29.2926 27.8027 29.5879C26.7395 30.5466 25.5699 31.6012 24.1897 32.3652L24.1735 32.3742L24.1569 32.3825C21.8178 33.5521 19.1839 33.6625 17.0195 33.1256C14.9155 32.6036 12.9753 31.3848 12.4112 29.612C12.0608 28.5109 12.7945 27.6326 13.4699 27.0903C13.751 26.8646 14.0775 26.6492 14.4354 26.4444C12.6598 26.268 11.2525 25.7309 10.1585 24.9675C8.28097 23.6573 7.45841 21.7706 7.25538 20.2482C5.07975 19.0699 3.72256 17.7991 2.93118 16.6269C2.10846 15.4083 1.85524 14.2202 2.07589 13.3885L2.0782 13.3798L2.08067 13.3712C2.38254 12.3199 2.9723 11.5113 3.79992 10.9547C4.61081 10.4094 5.59669 10.1409 6.65369 10.0565C8.74998 9.88901 11.3407 10.4297 14.0198 11.3174C17.2625 12.3918 20.7784 14.0867 23.9194 15.6009C24.6213 15.9393 25.3045 16.2687 25.9617 16.58C28.448 17.758 30.6919 18.5945 32.2041 19.1583L32.4243 19.2404C32.9532 17.978 33.7653 16.8686 34.7782 15.9811C34.5535 14.8785 34.4543 13.5219 34.7491 12.3269C34.9254 11.6122 35.2562 10.902 35.8399 10.3569C36.1307 10.0854 36.4676 9.87042 36.8484 9.71701C36.8346 9.70413 36.8204 9.69111 36.8058 9.67795C36.3333 9.25179 35.4953 8.73075 34.0821 8.29767C33.7878 8.20747 33.6079 7.9572 33.4233 7.7005C33.279 7.49978 33.1319 7.29513 32.9251 7.16C32.4445 6.84605 31.6241 6.48649 30.3048 6.25903C29.8226 6.1759 29.4992 5.71766 29.5823 5.23551C29.6654 4.75336 30.1237 4.4299 30.6058 4.51302C32.1042 4.77136 33.1662 5.20122 33.8941 5.67669C34.3742 5.99037 34.748 6.35159 34.979 6.72516C36.3729 7.19558 37.3421 7.77565 37.9925 8.36229C38.3102 8.64881 38.5651 8.95023 38.7513 9.25118C40.4743 8.83694 42.136 9.00809 43.2325 9.26908C43.4185 8.96906 43.6729 8.66861 43.9896 8.38297C44.639 7.79715 45.6064 7.21788 46.9972 6.74782C47.216 6.38176 47.5699 6.01796 48.0446 5.69574C48.7616 5.20896 49.8139 4.77192 51.3155 4.51302C51.7977 4.4299 52.2559 4.75336 52.339 5.23551ZM40.885 15.4732C39.1579 15.4732 37.5651 16.0486 36.3052 17.0185C35.1219 17.9293 34.2345 19.186 33.8035 20.6403C33.6144 21.2782 33.5124 21.9564 33.5124 22.6637C33.5124 22.8279 33.5178 22.9907 33.5284 23.152C33.574 23.8448 33.7159 24.5103 33.9407 25.136L33.9435 25.1438C33.9576 25.183 33.9721 25.222 33.9868 25.2609C33.9992 25.2935 34.0118 25.3259 34.0247 25.3583C34.4622 26.4613 35.1611 27.4337 36.0459 28.1984C37.3279 29.3063 38.9969 29.9756 40.8243 29.9756C42.6934 29.9756 44.4054 29.3016 45.7083 28.183C46.6169 27.4029 47.3251 26.4079 47.7496 25.2751C47.9967 24.6154 48.1485 23.9072 48.1872 23.1642C48.1937 23.0388 48.197 22.9125 48.197 22.7851C48.197 22.0423 48.0865 21.3269 47.8817 20.6536C47.4323 19.1764 46.5279 17.8978 45.3321 16.9804L45.3229 16.9734C44.092 16.0322 42.5535 15.4732 40.885 15.4732ZM35.5213 30.0395C34.3422 31.2376 33.6583 32.48 33.3316 33.7235C33.3886 33.748 33.449 33.7739 33.5126 33.8009C34.0318 34.021 34.7593 34.3146 35.5918 34.6077C37.2846 35.2038 39.3066 35.7598 40.8847 35.7592C42.4604 35.7585 44.4793 35.2025 46.1694 34.6067C47.0004 34.3138 47.7269 34.0205 48.2451 33.8005C48.3085 33.7736 48.3687 33.7479 48.4256 33.7233C48.0988 32.4743 47.413 31.2267 46.229 30.0242C44.7085 31.1123 42.8355 31.7474 40.8243 31.7474C38.8457 31.7474 37.0134 31.1139 35.5213 30.0395ZM48.6636 35.5464C48.1502 35.7594 47.4941 36.0184 46.7584 36.2777C45.0386 36.8839 42.78 37.5302 40.8854 37.5309C38.988 37.5317 36.7259 36.8855 35.0033 36.2789C34.2652 36.019 33.6069 35.7593 33.0923 35.5458C33.0779 37.2614 33.6204 39.0257 34.5204 40.7428C34.6214 40.78 34.7457 40.8252 34.8899 40.8762C35.3149 41.0266 35.9101 41.2271 36.5898 41.4273C37.973 41.8348 39.6174 42.2139 40.8847 42.2135C42.1502 42.213 43.7922 41.8339 45.1731 41.4267C45.8518 41.2266 46.4461 41.0262 46.8704 40.876C47.014 40.8251 47.1378 40.7802 47.2385 40.743C48.1361 39.0263 48.6774 37.262 48.6636 35.5464ZM45.7746 43.0963L45.7315 43.1091L45.6742 43.1261C44.2663 43.5412 42.4195 43.9847 40.8853 43.9852C39.3489 43.9858 37.4993 43.5423 36.0892 43.1269C36.0721 43.1219 36.0552 43.1169 36.0383 43.1118C36.0215 43.1069 36.0049 43.1019 35.9883 43.097C37.4685 45.1493 39.2882 46.9514 40.885 48.2525C42.4803 46.952 44.2972 45.1494 45.7746 43.0963ZM32.0155 24.8895C31.9529 24.6408 31.9005 24.3881 31.8588 24.1319C29.9965 24.2568 27.1791 24.6767 24.609 25.1165C24.1919 25.1879 23.783 25.2595 23.3877 25.33C21.6355 25.689 19.0379 26.3614 16.9796 27.1945C15.9388 27.6158 15.1015 28.0525 14.5792 28.4718C14.3185 28.6812 14.1857 28.8474 14.1284 28.9578C14.086 29.0395 14.0955 29.0641 14.0989 29.073L14.0995 29.0748C14.3856 29.9738 15.5726 30.9411 17.4461 31.4059C19.2539 31.8544 21.4403 31.7542 23.348 30.8061C24.5264 30.1507 25.4805 29.2916 26.5039 28.37C26.8587 28.0505 27.2218 27.7235 27.6055 27.3949C28.8317 26.3447 30.2099 25.3462 32.0155 24.8895ZM31.7456 22.364C31.7616 21.8778 31.8165 21.4019 31.9075 20.939L31.7712 20.8882L31.6225 20.8328C30.116 20.2714 27.7687 19.3967 25.2031 18.1812C24.5207 17.8579 23.8197 17.5201 23.106 17.1762C19.9676 15.6638 16.5846 14.0337 13.4625 12.9992C10.8538 12.1349 8.53401 11.6837 6.79478 11.8226C5.93402 11.8914 5.27088 12.1007 4.78867 12.425C4.3258 12.7362 3.97969 13.1858 3.78688 13.8489C3.74592 14.0191 3.74971 14.6729 4.39962 15.6355C5.03737 16.5801 6.26488 17.7601 8.49649 18.8991L8.95586 19.1336L8.97876 19.6488C9.02948 20.7902 9.60301 22.4193 11.1724 23.5145C12.729 24.6008 15.4322 25.2758 19.9683 24.1712L19.9865 24.1668L20.0049 24.1631C20.806 24.0035 21.8746 23.8004 23.0654 23.5878L23.0786 23.5854C23.4773 23.5143 23.8896 23.4421 24.3101 23.3701C26.8513 22.9352 29.7547 22.4976 31.7456 22.364ZM49.7163 24.8983C51.5231 25.3538 52.8962 26.3514 54.1174 27.4011C54.4972 27.7275 54.8566 28.0523 55.2078 28.3697C56.2274 29.2911 57.1779 30.15 58.3575 30.8061C60.2652 31.7542 62.4516 31.8544 64.2594 31.4059C66.1329 30.9411 67.3199 29.9738 67.606 29.0748L67.6067 29.0726C67.6111 29.0598 67.62 29.0335 67.5785 28.9518C67.5232 28.8429 67.3944 28.6785 67.1398 28.4713C66.6292 28.0556 65.8076 27.6222 64.7819 27.2038C62.7536 26.3764 60.1858 25.7094 58.4339 25.3504C58.0753 25.2862 57.7063 25.2211 57.3306 25.1562C54.7209 24.7055 51.7923 24.2624 49.8675 24.1325C49.8282 24.3917 49.7776 24.6471 49.7163 24.8983ZM49.9591 22.3633C52.3046 22.5198 55.9326 23.1017 58.7573 23.6084L58.7602 23.6089L58.9031 23.6346C59.9873 23.83 60.9582 24.0152 61.7006 24.1631L61.719 24.1668L61.7372 24.1712C66.2733 25.2758 68.9765 24.6008 70.5331 23.5145C72.1025 22.4193 72.676 20.7902 72.7267 19.6488L72.7496 19.1336L73.209 18.8991C75.4406 17.7601 76.6681 16.5801 77.3059 15.6355C77.9558 14.6729 77.9596 14.0191 77.9186 13.8489C77.7258 13.1858 77.3797 12.7362 76.9168 12.425C76.4346 12.1007 75.7715 11.8914 74.9107 11.8226C73.1715 11.6837 70.8517 12.1349 68.243 12.9992C65.1209 14.0337 61.738 15.6638 58.5995 17.1761C57.8859 17.52 57.1848 17.8579 56.5024 18.1812C53.9389 19.3957 51.5792 20.2746 50.0668 20.8379C49.9682 20.8746 49.8731 20.91 49.7819 20.944C49.877 21.4057 49.937 21.8797 49.9591 22.3633ZM45.2393 12.7824C45.3613 13.3945 45.3438 14.1128 45.2483 14.816C44.2713 14.2799 43.1848 13.9182 42.0308 13.773C42.1393 12.8272 42.6616 11.0008 43.8823 11.2614C44.2933 11.3389 44.5586 11.5055 44.7439 11.7018C44.9735 11.945 45.1436 12.3024 45.2393 12.7824ZM36.3905 14.8509C37.413 14.2874 38.5555 13.9118 39.7666 13.7676C39.5613 12.8453 39.3337 10.9543 38.04 11.2306C37.5028 11.3453 37.2648 11.4505 37.0492 11.6518C36.7882 11.8955 36.5904 12.2603 36.4693 12.7513C36.3141 13.3806 36.3075 14.127 36.3905 14.8509Z" fill="#F5F5F5"/>
<path d="M58.7602 23.6089L58.9166 22.737L58.916 22.7369L58.7602 23.6089ZM45.7315 43.1091L45.4795 42.2599L45.4794 42.2599L45.7315 43.1091ZM31.7712 20.8882L32.0807 20.0581L32.0807 20.0581L31.7712 20.8882ZM49.1771 18.3328C49.0978 18.3624 49.0204 18.3912 48.945 18.4194L49.5643 20.0794C49.6393 20.0514 49.7165 20.0226 49.7958 19.9931L49.1771 18.3328ZM32.7341 18.4105C32.6623 18.3837 32.5887 18.3563 32.5135 18.3282L31.8946 19.9884C31.9699 20.0164 32.0431 20.0438 32.1145 20.0704L32.7341 18.4105ZM34.7767 24.843C34.776 24.8409 34.7752 24.8387 34.7744 24.8365L33.1069 25.4355C33.108 25.4385 33.1091 25.4415 33.1102 25.4446L34.7767 24.843ZM14.9437 28.806C14.938 28.7881 14.9329 28.7741 14.9304 28.7675C14.9291 28.7639 14.928 28.7609 14.9273 28.7592C14.927 28.7584 14.9267 28.7576 14.9265 28.7572C14.9264 28.7567 14.9262 28.7564 14.9262 28.7563L13.2715 29.3897C13.2721 29.3911 13.2702 29.3861 13.268 29.3803C13.2658 29.3743 13.2609 29.3609 13.2554 29.3435L14.9437 28.806ZM22.9231 22.7133C22.9189 22.714 22.9135 22.715 22.9098 22.7157L23.2209 24.4599C23.2261 24.459 23.2295 24.4584 23.234 24.4576L22.9231 22.7133ZM66.7684 28.7862C66.768 28.7873 66.7654 28.7951 66.7623 28.8046L68.4497 29.3449C68.4482 29.3494 68.447 29.353 68.4463 29.3552C68.4456 29.3573 68.4451 29.3588 68.445 29.3589L66.7684 28.7862ZM58.916 22.7369C58.9165 22.7369 58.9167 22.737 58.9161 22.7369C58.9158 22.7368 58.9145 22.7366 58.9132 22.7364L58.6015 24.4805C58.6011 24.4804 58.6008 24.4804 58.6014 24.4805C58.6017 24.4805 58.603 24.4808 58.6043 24.481L58.916 22.7369ZM59.0602 22.7628C59.0126 22.7542 58.9647 22.7456 58.9166 22.737L58.6038 24.4809C58.6514 24.4894 58.6988 24.498 58.746 24.5065L59.0602 22.7628ZM45.9836 43.9584C45.9983 43.954 46.0131 43.9496 46.0278 43.9452L45.5213 42.2474C45.5074 42.2516 45.4935 42.2557 45.4795 42.2599L45.9836 43.9584ZM45.9248 43.9758C45.9445 43.97 45.9641 43.9642 45.9837 43.9584L45.4794 42.2599C45.4609 42.2654 45.4423 42.2709 45.4237 42.2764L45.9248 43.9758ZM31.3132 21.6629C31.3637 21.6817 31.4132 21.7001 31.4617 21.7182L32.0807 20.0581C32.032 20.0399 31.9824 20.0215 31.9319 20.0026L31.3132 21.6629ZM31.4617 21.7182C31.5079 21.7355 31.5532 21.7524 31.5976 21.7689L32.2174 20.1091C32.1727 20.0924 32.1271 20.0754 32.0807 20.0581L31.4617 21.7182ZM51.6165 6.25903L51.9176 8.00504L51.9176 8.00504L51.6165 6.25903ZM49.0397 7.16162L50.0349 8.62751L50.0349 8.62751L49.0397 7.16162ZM47.8999 8.31834L48.4191 10.0123L48.4191 10.0123L47.8999 8.31834ZM45.1762 9.69862L43.9896 8.38296L43.9895 8.38297L45.1762 9.69862ZM45.074 9.79474L43.8331 8.53002L42.0105 10.3183L44.3235 11.3997L45.074 9.79474ZM46.0323 10.4856L47.3207 9.26934L47.3207 9.26934L46.0323 10.4856ZM46.9769 12.4361L45.2393 12.7824V12.7824L46.9769 12.4361ZM46.8504 15.9346L45.1173 15.5664L44.9008 16.5856L45.6862 17.2702L46.8504 15.9346ZM49.2547 19.2494L47.6229 19.9396L48.2838 21.5022L49.8736 20.9095L49.2547 19.2494ZM49.4864 19.163L48.8678 17.5027L48.8675 17.5028L49.4864 19.163ZM55.7438 16.58L54.9852 14.9789V14.9789L55.7438 16.58ZM57.7861 15.6009L58.5555 17.1969V17.1969L57.7861 15.6009ZM67.6857 11.3174L67.1285 9.63552V9.63552L67.6857 11.3174ZM75.0518 10.0565L75.1929 8.29034L75.0518 10.0565ZM77.9056 10.9547L76.9168 12.425V12.425L77.9056 10.9547ZM79.6248 13.3712L77.9219 13.8602L77.9219 13.8604L79.6248 13.3712ZM79.6273 13.3798L81.3399 12.9257L81.3352 12.9081L81.3302 12.8906L79.6273 13.3798ZM79.6296 13.3885L77.917 13.8427L77.9171 13.8429L79.6296 13.3885ZM78.7743 16.6269L77.3059 15.6355V15.6355L78.7743 16.6269ZM74.4501 20.2482L73.6063 18.6902L72.8131 19.1198L72.6939 20.014L74.4501 20.2482ZM71.547 24.9675L70.5331 23.5145L70.5331 23.5145L71.547 24.9675ZM67.2892 26.4425L67.1113 24.6797L61.6388 25.2321L66.4048 27.9777L67.2892 26.4425ZM68.2584 27.0972L69.377 25.7232L69.377 25.7232L68.2584 27.0972ZM69.2943 29.612L67.606 29.0748V29.0748L69.2943 29.612ZM64.686 33.1256L65.1126 34.8452L64.686 33.1256ZM57.532 32.3742L56.6739 33.9243L56.7064 33.9423L56.7396 33.9589L57.532 32.3742ZM57.5158 32.3652L58.3739 30.8151L58.3738 30.8151L57.5158 32.3652ZM53.9074 29.5859L52.7186 30.8996L52.7186 30.8996L53.9074 29.5859ZM52.9624 28.7447L54.1174 27.4011L52.9624 28.7447ZM49.1203 26.5774L49.509 24.8488L48.1265 24.538L47.5194 25.8183L49.1203 26.5774ZM47.5645 28.8559L46.273 27.643L45.1163 28.8747L46.2917 30.0885L47.5645 28.8559ZM50.3141 34.0973L52.0626 33.8108L52.0626 33.8108L50.3141 34.0973ZM48.6397 41.8795L50.1938 42.7302V42.7302L48.6397 41.8795ZM41.425 50.0848L42.505 51.4893L42.505 51.4893L41.425 50.0848ZM40.885 50.5L39.8051 51.9045L40.885 52.735L41.965 51.9045L40.885 50.5ZM40.345 50.0848L39.2651 51.4893L39.2651 51.4893L40.345 50.0848ZM33.1201 41.8802L31.5667 42.7325L33.1201 41.8802ZM31.4425 34.0967L29.6943 33.8089V33.8089L31.4425 34.0967ZM34.1892 28.8677L35.4618 30.1005L36.6353 28.8891L35.4832 27.6574L34.1892 28.8677ZM32.6197 26.5667L34.2192 25.8046L33.6111 24.5283L32.2317 24.8379L32.6197 26.5667ZM28.758 28.7406L27.6055 27.3949L27.6055 27.3949L28.758 28.7406ZM27.8027 29.5879L26.6162 28.2721L26.6162 28.2721L27.8027 29.5879ZM24.1897 32.3652L25.0478 33.9154L25.0478 33.9153L24.1897 32.3652ZM24.1735 32.3742L24.9659 33.9589L24.9991 33.9423L25.0315 33.9244L24.1735 32.3742ZM17.0195 33.1256L16.5929 34.8452L17.0195 33.1256ZM12.4112 29.612L14.0995 29.0748L14.0995 29.0748L12.4112 29.612ZM13.4699 27.0903L12.3607 25.7087L12.3607 25.7087L13.4699 27.0903ZM14.4354 26.4444L15.3154 27.9822L20.1258 25.2292L14.6105 24.6813L14.4354 26.4444ZM10.1585 24.9675L11.1724 23.5145H11.1724L10.1585 24.9675ZM7.25538 20.2482L9.0116 20.014L8.89236 19.1198L8.09915 18.6902L7.25538 20.2482ZM2.93118 16.6269L1.46274 17.6183H1.46274L2.93118 16.6269ZM2.07589 13.3885L0.363379 12.9342L0.363371 12.9342L2.07589 13.3885ZM2.0782 13.3798L0.375244 12.8908L0.370287 12.9081L0.365682 12.9255L2.0782 13.3798ZM2.08067 13.3712L3.78363 13.8602L3.78363 13.8602L2.08067 13.3712ZM3.79992 10.9547L2.81118 9.48452L2.81118 9.48452L3.79992 10.9547ZM6.65369 10.0565L6.5126 8.29034H6.5126L6.65369 10.0565ZM14.0198 11.3174L14.577 9.63552L14.0198 11.3174ZM23.9194 15.6009L24.6888 14.0049L24.6888 14.0049L23.9194 15.6009ZM25.9617 16.58L25.2031 18.1812L25.9617 16.58ZM32.2041 19.1583L32.8232 17.4982L32.823 17.4982L32.2041 19.1583ZM32.4243 19.2404L31.8052 20.9005L33.4005 21.4955L34.0584 19.9251L32.4243 19.2404ZM34.7782 15.9811L35.9457 17.3138L36.7197 16.6357L36.5143 15.6274L34.7782 15.9811ZM34.7491 12.3269L36.4693 12.7513V12.7513L34.7491 12.3269ZM35.8399 10.3569L34.6306 9.062L34.6306 9.06201L35.8399 10.3569ZM36.8484 9.71701L37.5105 11.3604L40.093 10.3201L38.0568 8.42122L36.8484 9.71701ZM36.8058 9.67795L35.6191 10.9936L35.6192 10.9936L36.8058 9.67795ZM34.0821 8.29767L34.6012 6.60366L34.6012 6.60366L34.0821 8.29767ZM32.9251 7.16L33.8941 5.67669L33.8941 5.67669L32.9251 7.16ZM30.3048 6.25903L30.6058 4.51302V4.51302L30.3048 6.25903ZM30.6058 4.51302L30.3048 6.25903L30.6058 4.51302ZM33.8941 5.67669L34.863 4.19338V4.19338L33.8941 5.67669ZM34.979 6.72516L33.4719 7.6568L33.8076 8.1998L34.4124 8.40392L34.979 6.72516ZM37.9925 8.36229L39.1792 7.04664V7.04664L37.9925 8.36229ZM38.7513 9.25118L37.2446 10.1834L37.919 11.2735L39.1655 10.9739L38.7513 9.25118ZM43.2325 9.26908L42.8222 10.9927L44.065 11.2885L44.7382 10.2028L43.2325 9.26908ZM43.9896 8.38297L45.1762 9.69862L45.1762 9.69862L43.9896 8.38297ZM46.9972 6.74782L47.5645 8.42631L48.183 8.21726L48.518 7.65684L46.9972 6.74782ZM48.0446 5.69574L47.0494 4.22985L47.0494 4.22985L48.0446 5.69574ZM51.3155 4.51302L51.0145 2.76702V2.76702L51.3155 4.51302ZM39.7666 13.7676L39.9761 15.5269L41.9217 15.2952L41.4961 13.3827L39.7666 13.7676ZM36.3905 14.8509L34.6303 15.0527L34.9312 17.6782L37.2457 16.4026L36.3905 14.8509ZM38.04 11.2306L37.6699 9.49789L38.04 11.2306ZM37.0492 11.6518L35.8399 10.3569L35.8399 10.3569L37.0492 11.6518ZM36.4693 12.7513L34.7491 12.3269L34.7491 12.3269L36.4693 12.7513ZM36.3052 17.0185L37.3859 18.4225L37.3859 18.4225L36.3052 17.0185ZM33.8035 20.6403L32.1048 20.1368V20.1368L33.8035 20.6403ZM33.5284 23.152L31.7605 23.2684L31.7605 23.2684L33.5284 23.152ZM33.9407 25.136L32.2732 25.735L32.2737 25.7362L33.9407 25.136ZM33.9435 25.1438L32.2765 25.744L32.2767 25.7447L33.9435 25.1438ZM33.9868 25.2609L32.3306 25.8903L32.3306 25.8903L33.9868 25.2609ZM34.0247 25.3583L32.3777 26.0115L32.3777 26.0116L34.0247 25.3583ZM36.0459 28.1984L37.2044 26.8578L36.0459 28.1984ZM45.7083 28.183L46.8625 29.5273L45.7083 28.183ZM47.7496 25.2751L49.4087 25.8968V25.8968L47.7496 25.2751ZM48.1872 23.1642L49.9565 23.2562L49.9565 23.2562L48.1872 23.1642ZM47.8817 20.6536L46.1866 21.1692V21.1692L47.8817 20.6536ZM45.3321 16.9804L46.4105 15.5746L46.4084 15.5731L45.3321 16.9804ZM45.3229 16.9734L46.3993 15.566L46.3991 15.5659L45.3229 16.9734ZM33.3316 33.7235L31.618 33.2732L31.2307 34.7472L32.6302 35.3505L33.3316 33.7235ZM35.5213 30.0395L36.5566 28.6017L35.324 27.714L34.2585 28.7967L35.5213 30.0395ZM33.5126 33.8009L34.2044 32.1697L34.2044 32.1697L33.5126 33.8009ZM35.5918 34.6077L36.1802 32.9365L35.5918 34.6077ZM40.8847 35.7592L40.8839 33.9874L40.8847 35.7592ZM46.1694 34.6067L46.7584 36.2777L46.1694 34.6067ZM48.2451 33.8005L47.553 32.1696L47.5529 32.1696L48.2451 33.8005ZM48.4256 33.7233L49.1273 35.3502L50.5249 34.7474L50.1397 33.2749L48.4256 33.7233ZM46.229 30.0242L47.4916 28.7811L46.4293 27.7022L45.198 28.5834L46.229 30.0242ZM46.7584 36.2777L47.3474 37.9487H47.3474L46.7584 36.2777ZM48.6636 35.5464L50.4353 35.5322L50.4143 32.9016L47.9845 33.9099L48.6636 35.5464ZM40.8854 37.5309L40.8861 39.3027L40.8854 37.5309ZM35.0033 36.2789L35.5918 34.6077L35.0033 36.2789ZM33.0923 35.5458L33.7711 33.9093L31.3425 32.9019L31.3206 35.531L33.0923 35.5458ZM34.5204 40.7428L32.9511 41.5653L33.2676 42.1691L33.9071 42.405L34.5204 40.7428ZM34.8899 40.8762L35.4809 39.2059L34.8899 40.8762ZM36.5898 41.4273L37.0905 39.7278H37.0905L36.5898 41.4273ZM40.8847 42.2135L40.8853 43.9852H40.8854L40.8847 42.2135ZM45.1731 41.4267L44.672 39.7272L44.672 39.7272L45.1731 41.4267ZM46.8704 40.876L47.4617 42.5461H47.4617L46.8704 40.876ZM47.2385 40.743L47.8519 42.4052L48.4923 42.1688L48.8085 41.564L47.2385 40.743ZM45.6742 43.1261L46.1754 44.8255L46.1769 44.8251L45.6742 43.1261ZM45.7746 43.0963L47.2127 44.1312L50.2447 39.9177L45.2693 41.3982L45.7746 43.0963ZM40.8853 43.9852L40.8847 42.2135L40.8853 43.9852ZM36.0892 43.1269L36.5898 41.4273L36.5897 41.4273L36.0892 43.1269ZM35.9883 43.097L36.4942 41.399L31.5073 39.913L34.5513 44.1334L35.9883 43.097ZM40.885 48.2525L39.7658 49.626L40.8852 50.5381L42.0045 49.6258L40.885 48.2525ZM31.8588 24.1319L33.6076 23.8475L33.3488 22.2562L31.7402 22.3641L31.8588 24.1319ZM32.0155 24.8895L32.45 26.6072L34.1661 26.1732L33.7336 24.4566L32.0155 24.8895ZM24.609 25.1165L24.9078 26.8629L24.609 25.1165ZM23.3877 25.33L23.0764 23.5858L23.0542 23.5898L23.0321 23.5943L23.3877 25.33ZM16.9796 27.1945L16.3148 25.5521L16.3148 25.5522L16.9796 27.1945ZM14.5792 28.4718L13.4699 27.0903L13.4699 27.0903L14.5792 28.4718ZM14.1284 28.9578L15.701 29.7741L15.701 29.7741L14.1284 28.9578ZM14.0989 29.073L15.7637 28.4668L15.7586 28.4528L15.7532 28.4388L14.0989 29.073ZM14.0995 29.0748L15.7879 28.5376L15.7768 28.5029L15.7644 28.4686L14.0995 29.0748ZM17.4461 31.4059L17.8727 29.6863H17.8727L17.4461 31.4059ZM23.348 30.8061L24.1365 32.3927L24.1733 32.3744L24.2091 32.3545L23.348 30.8061ZM26.5039 28.37L27.6895 29.6866V29.6866L26.5039 28.37ZM27.6055 27.3949L26.453 26.0492L26.453 26.0492L27.6055 27.3949ZM31.9075 20.939L33.646 21.2807L33.9361 19.8048L32.5269 19.279L31.9075 20.939ZM31.7456 22.364L31.8642 24.1318L33.4635 24.0245L33.5164 22.4224L31.7456 22.364ZM31.6225 20.8328L32.2413 19.1725L32.2412 19.1725L31.6225 20.8328ZM25.2031 18.1812L25.9617 16.58L25.9617 16.58L25.2031 18.1812ZM23.106 17.1762L23.8751 15.58H23.8751L23.106 17.1762ZM13.4625 12.9992L12.9053 14.6811H12.9053L13.4625 12.9992ZM6.79478 11.8226L6.93587 13.5888H6.93587L6.79478 11.8226ZM4.78867 12.425L5.77741 13.8952L4.78867 12.425ZM3.78688 13.8489L2.08558 13.3542L2.074 13.3941L2.0643 13.4344L3.78688 13.8489ZM4.39962 15.6355L5.86806 14.6441L5.86806 14.6441L4.39962 15.6355ZM8.49649 18.8991L9.30197 17.321L9.30197 17.321L8.49649 18.8991ZM8.95586 19.1336L10.7259 19.0549L10.6801 18.0244L9.76134 17.5555L8.95586 19.1336ZM8.97876 19.6488L7.20874 19.7275L8.97876 19.6488ZM11.1724 23.5145L10.1585 24.9675L11.1724 23.5145ZM19.9683 24.1712L20.3876 25.8927L20.3876 25.8926L19.9683 24.1712ZM19.9865 24.1668L19.6406 22.4291L19.6037 22.4364L19.5673 22.4453L19.9865 24.1668ZM20.0049 24.1631L20.3509 25.9008L20.351 25.9007L20.0049 24.1631ZM23.0654 23.5878L22.7541 21.8436L22.754 21.8436L23.0654 23.5878ZM23.0786 23.5854L22.7673 21.8412L22.7673 21.8412L23.0786 23.5854ZM24.3101 23.3701L24.0112 21.6237L24.3101 23.3701ZM54.1174 27.4011L52.9624 28.7447L54.1174 27.4011ZM49.7163 24.8983L47.995 24.4783L47.5783 26.1865L49.2832 26.6163L49.7163 24.8983ZM55.2078 28.3697L56.3958 27.0552V27.0552L55.2078 28.3697ZM58.3575 30.8061L57.4964 32.3545L57.5322 32.3744L57.569 32.3927L58.3575 30.8061ZM64.2594 31.4059L63.8328 29.6863L64.2594 31.4059ZM67.606 29.0748L65.9254 28.5136L65.9214 28.5256L65.9176 28.5376L67.606 29.0748ZM67.6067 29.0726L65.9298 28.5004L65.9262 28.5114L67.6067 29.0726ZM67.5785 28.9518L69.1582 28.1494L69.1582 28.1494L67.5785 28.9518ZM67.1398 28.4713L68.2584 27.0972L68.2584 27.0972L67.1398 28.4713ZM64.7819 27.2038L64.1127 28.8444L64.7819 27.2038ZM58.4339 25.3504L58.7895 23.6147L58.7681 23.6103L58.7466 23.6065L58.4339 25.3504ZM57.3306 25.1562L57.6322 23.4103L57.3306 25.1562ZM49.8675 24.1325L49.9868 22.3648L48.3606 22.255L48.1159 23.8665L49.8675 24.1325ZM58.7573 23.6084L59.0711 21.8646L59.0702 21.8645L58.7573 23.6084ZM49.9591 22.3633L48.1892 22.4443L48.2616 24.0257L49.8412 24.1311L49.9591 22.3633ZM58.7602 23.6089L58.4465 25.3527L58.4466 25.3527L58.7602 23.6089ZM58.9031 23.6346L59.2173 21.891L59.2166 21.8908L58.9031 23.6346ZM61.7006 24.1631L61.3545 25.9007L61.3547 25.9008L61.7006 24.1631ZM61.719 24.1668L62.1383 22.4453L62.1018 22.4364L62.0649 22.4291L61.719 24.1668ZM61.7372 24.1712L61.3179 25.8926L61.3179 25.8927L61.7372 24.1712ZM70.5331 23.5145L71.547 24.9675L70.5331 23.5145ZM72.7267 19.6488L70.9567 19.5701V19.5702L72.7267 19.6488ZM72.7496 19.1336L71.9442 17.5555L71.0254 18.0244L70.9796 19.0549L72.7496 19.1336ZM73.209 18.8991L72.4035 17.321L72.4035 17.321L73.209 18.8991ZM77.3059 15.6355L78.7743 16.6269V16.6269L77.3059 15.6355ZM77.9186 13.8489L79.6412 13.4343L79.6315 13.394L79.6199 13.3542L77.9186 13.8489ZM76.9168 12.425L75.9281 13.8952L75.9281 13.8952L76.9168 12.425ZM74.9107 11.8226L75.0518 10.0565L74.9107 11.8226ZM68.243 12.9992L68.8002 14.6811L68.243 12.9992ZM58.5995 17.1761L57.8304 15.58L58.5995 17.1761ZM56.5024 18.1812L55.7438 16.58L56.5024 18.1812ZM50.0668 20.8379L49.4484 19.1775L49.4484 19.1775L50.0668 20.8379ZM49.7819 20.944L49.1624 19.2841L47.7404 19.8149L48.0466 21.3015L49.7819 20.944ZM45.2393 12.7824L43.5017 13.1287L43.5017 13.1287L45.2393 12.7824ZM45.2483 14.816L44.396 16.3693L46.6571 17.61L47.004 15.0543L45.2483 14.816ZM44.7439 11.7018L43.4555 12.9181L43.4555 12.9181L44.7439 11.7018ZM43.8823 11.2614L43.5125 12.9941L43.5331 12.9985L43.5538 13.0024L43.8823 11.2614ZM42.0308 13.773L40.2706 13.571L40.0708 15.312L41.8096 15.5309L42.0308 13.773ZM33.4233 7.7005L34.8619 6.6663V6.6663L33.4233 7.7005ZM48.5573 7.70574L47.1002 6.69788V6.69788L48.5573 7.70574ZM45.7315 43.1091L46.2342 44.8081L46.2368 44.8073L45.7315 43.1091ZM31.7712 20.8882L32.3905 19.2282L32.3899 19.2279L31.7712 20.8882ZM36.0383 43.1118L35.5348 44.8106H35.5348L36.0383 43.1118ZM51.9176 8.00504C53.364 7.75565 54.3344 6.38092 54.085 4.93447L50.593 5.53655C50.5099 5.0544 50.8334 4.59615 51.3155 4.51303L51.9176 8.00504ZM50.0349 8.62751C50.2399 8.48829 50.7871 8.19994 51.9176 8.00504L51.3155 4.51302C49.8138 4.77193 48.7615 5.209 48.0446 5.69574L50.0349 8.62751ZM46.3629 11.0143C46.6003 10.8001 47.1915 10.3885 48.4191 10.0123L47.3808 6.62433C45.782 7.1143 44.6971 7.74478 43.9896 8.38296L46.3629 11.0143ZM46.3148 11.0595C46.3285 11.046 46.3444 11.0309 46.3629 11.0143L43.9895 8.38297C43.9351 8.43211 43.883 8.48114 43.8331 8.53002L46.3148 11.0595ZM47.3207 9.26934C46.896 8.8195 46.3931 8.45567 45.8244 8.18974L44.3235 11.3997C44.4897 11.4774 44.6271 11.5781 44.7439 11.7018L47.3207 9.26934ZM48.7145 12.0899C48.5338 11.1829 48.143 10.1405 47.3207 9.26934L44.7439 11.7018C44.9732 11.9447 45.1436 12.3019 45.2393 12.7824L48.7145 12.0899ZM48.5835 16.3028C48.831 15.138 49.0112 13.5784 48.7145 12.0898L45.2393 12.7824C45.4022 13.5997 45.3181 14.6216 45.1173 15.5664L48.5835 16.3028ZM50.8865 18.5592C50.238 17.026 49.2486 15.6747 48.0146 14.599L45.6862 17.2702C46.5203 17.9972 47.187 18.9091 47.6229 19.9396L50.8865 18.5592ZM54.9852 14.9789C52.5764 16.1201 50.3842 16.9376 48.8678 17.5027L50.1051 20.8232C51.6249 20.2569 53.9432 19.3936 56.5024 18.1812L54.9852 14.9789ZM57.0167 14.0049C56.3137 14.3438 55.636 14.6705 54.9852 14.9789L56.5024 18.1812C57.166 17.8668 57.8547 17.5348 58.5555 17.1969L57.0167 14.0049ZM67.1285 9.63552C63.7563 10.7528 60.1329 12.5027 57.0167 14.0049L58.5555 17.1969C61.7213 15.6707 65.1298 14.0307 68.243 12.9992L67.1285 9.63552ZM75.1929 8.29034C72.7397 8.09435 69.8781 8.72447 67.1285 9.63552L68.243 12.9992C70.8515 12.1349 73.1713 11.6837 74.9107 11.8226L75.1929 8.29034ZM78.8943 9.48453C77.7546 8.71807 76.4459 8.39044 75.1929 8.29034L74.9107 11.8226C75.7717 11.8914 76.4347 12.1008 76.9168 12.425L78.8943 9.48453ZM81.3278 12.8822C80.9163 11.449 80.0842 10.2848 78.8943 9.48453L76.9168 12.425C77.3821 12.7379 77.7296 13.1907 77.9219 13.8602L81.3278 12.8822ZM81.3302 12.8906L81.3277 12.882L77.9219 13.8604L77.9244 13.869L81.3302 12.8906ZM81.3422 12.9344L81.3399 12.9257L77.9147 13.834L77.917 13.8427L81.3422 12.9344ZM80.2427 17.6183C81.2287 16.1579 81.7415 14.4393 81.3421 12.9342L77.9171 13.8429C77.9591 14.0011 77.9654 14.6586 77.3059 15.6355L80.2427 17.6183ZM75.2939 21.8061C77.6623 20.5234 79.2586 19.0761 80.2427 17.6183L77.3059 15.6355C76.7073 16.5221 75.5892 17.6163 73.6063 18.6902L75.2939 21.8061ZM72.561 26.4204C74.914 24.7783 75.9495 22.4081 76.2063 20.4824L72.6939 20.014C72.5447 21.1331 71.935 22.5362 70.5331 23.5145L72.561 26.4204ZM67.4672 28.2053C69.5007 28 71.1969 27.3723 72.561 26.4204L70.5331 23.5145C69.717 24.084 68.611 24.5283 67.1113 24.6797L67.4672 28.2053ZM69.377 25.7232C69.0037 25.4193 68.5926 25.1486 68.1737 24.9073L66.4048 27.9777C66.7053 28.1508 66.95 28.3167 67.1398 28.4713L69.377 25.7232ZM70.9827 30.1492C71.6898 27.9269 70.1443 26.3479 69.377 25.7232L67.1398 28.4713C67.3737 28.6616 67.5189 28.8364 67.5836 28.9617C67.6109 29.0146 67.6135 29.039 67.6136 29.0396C67.6137 29.0404 67.6137 29.0408 67.6135 29.0429C67.6133 29.0449 67.6123 29.055 67.606 29.0748L70.9827 30.1492ZM65.1126 34.8452C67.4428 34.2671 70.1397 32.7985 70.9827 30.1492L67.606 29.0748C67.3208 29.9712 66.1371 30.9401 64.2594 31.4059L65.1126 34.8452ZM56.7563 33.9673C59.5231 35.3507 62.597 35.4693 65.1126 34.8452L64.2594 31.4059C62.4461 31.8558 60.2524 31.7535 58.341 30.7978L56.7563 33.9673ZM56.7396 33.9589L56.7563 33.9673L58.341 30.7978L58.3244 30.7895L56.7396 33.9589ZM56.6576 33.9153L56.6739 33.9243L58.3901 30.8241L58.3739 30.8151L56.6576 33.9153ZM52.7186 30.8996C53.7553 31.8377 55.0674 33.035 56.6577 33.9153L58.3738 30.8151C57.1981 30.1643 56.1771 29.2503 55.0962 28.2722L52.7186 30.8996ZM51.8075 30.0883C52.0943 30.3348 52.391 30.6032 52.7186 30.8996L55.0962 28.2722C54.7757 27.9821 54.4446 27.6823 54.1174 27.4011L51.8075 30.0883ZM48.7317 28.3061C49.7926 28.5446 50.6907 29.1283 51.8075 30.0883L54.1174 27.4011C52.86 26.3203 51.4254 25.2797 49.509 24.8488L48.7317 28.3061ZM48.856 30.0689C49.609 29.2671 50.2417 28.3478 50.7212 27.3366L47.5194 25.8183C47.2009 26.4901 46.7789 27.1044 46.273 27.643L48.856 30.0689ZM52.0626 33.8108C51.6996 31.5952 50.6504 29.4957 48.8373 27.6234L46.2917 30.0885C47.6383 31.479 48.3276 32.9305 48.5657 34.3838L52.0626 33.8108ZM50.1938 42.7302C51.6093 40.1444 52.5919 37.0413 52.0626 33.8108L48.5657 34.3837C48.9206 36.5501 48.2875 38.8329 47.0855 41.0288L50.1938 42.7302ZM42.505 51.4893C44.9748 49.5903 48.165 46.4365 50.1938 42.7302L47.0855 41.0288C45.3611 44.1789 42.5571 46.9793 40.345 48.6802L42.505 51.4893ZM41.965 51.9045L42.505 51.4893L40.3451 48.6802L39.8051 49.0954L41.965 51.9045ZM39.2651 51.4893L39.8051 51.9045L41.965 49.0954L41.425 48.6802L39.2651 51.4893ZM31.5667 42.7325C33.5998 46.4381 36.7959 49.5907 39.2651 51.4893L41.425 48.6802C39.2111 46.9778 36.4014 44.1776 34.6734 41.028L31.5667 42.7325ZM29.6943 33.8089C29.1622 37.0421 30.1481 40.1467 31.5667 42.7325L34.6734 41.028C33.4686 38.8321 32.8343 36.55 33.1908 34.3844L29.6943 33.8089ZM32.9167 27.6349C31.1068 29.5032 30.0581 31.5978 29.6943 33.8089L33.1908 34.3844C33.4292 32.9355 34.1177 31.4879 35.4618 30.1005L32.9167 27.6349ZM31.0203 27.3288C31.5035 28.343 32.1386 29.269 32.8953 30.078L35.4832 27.6574C34.9721 27.111 34.5442 26.4866 34.2192 25.8046L31.0203 27.3288ZM29.9105 30.0863C31.0365 29.122 31.9428 28.5345 33.0078 28.2954L32.2317 24.8379C30.3129 25.2687 28.8705 26.3115 27.6055 27.3949L29.9105 30.0863ZM28.9892 30.9038C29.3202 30.6053 29.6204 30.3347 29.9105 30.0863L27.6055 27.3949C27.2749 27.678 26.9403 27.9799 26.6162 28.2721L28.9892 30.9038ZM25.0478 33.9153C26.6338 33.0374 27.9484 31.8422 28.9892 30.9038L26.6162 28.2721C25.5307 29.2509 24.506 30.165 23.3317 30.8151L25.0478 33.9153ZM25.0315 33.9244L25.0478 33.9154L23.3317 30.8151L23.3155 30.8241L25.0315 33.9244ZM24.9492 33.9673L24.9659 33.9589L23.3811 30.7895L23.3645 30.7978L24.9492 33.9673ZM16.5929 34.8452C19.1085 35.4693 22.1824 35.3507 24.9492 33.9673L23.3645 30.7978C21.4531 31.7535 19.2594 31.8558 17.4461 31.4059L16.5929 34.8452ZM10.7228 30.1492C11.5658 32.7985 14.2627 34.2671 16.5929 34.8452L17.4461 31.4059C15.5684 30.9401 14.3847 29.9712 14.0995 29.0748L10.7228 30.1492ZM12.3607 25.7087C11.6005 26.3191 10.0079 27.9025 10.7228 30.1492L14.0995 29.0748C14.0934 29.0557 14.0926 29.0465 14.0925 29.0455C14.0924 29.0445 14.0925 29.045 14.0925 29.045C14.0925 29.0446 14.0932 29.039 14.0971 29.0269C14.1012 29.0146 14.1089 28.9949 14.1232 28.9679C14.1906 28.84 14.3407 28.6633 14.5792 28.4718L12.3607 25.7087ZM13.5553 24.9067C13.1394 25.1447 12.7316 25.4109 12.3607 25.7087L14.5792 28.4718C14.7705 28.3182 15.0156 28.1537 15.3154 27.9822L13.5553 24.9067ZM9.14452 26.4204C10.5136 27.3758 12.2171 28.0045 14.2602 28.2075L14.6105 24.6813C13.1025 24.5315 11.9914 24.086 11.1724 23.5145L9.14452 26.4204ZM5.49916 20.4824C5.75597 22.4081 6.79147 24.7783 9.14452 26.4204L11.1724 23.5145C9.77048 22.5362 9.16084 21.1331 9.0116 20.014L5.49916 20.4824ZM1.46274 17.6183C2.44694 19.0761 4.04322 20.5234 6.41161 21.8061L8.09915 18.6902C6.11629 17.6163 4.99818 16.5221 4.39962 15.6355L1.46274 17.6183ZM0.363371 12.9342C-0.0359588 14.4393 0.476794 16.1579 1.46274 17.6183L4.39962 15.6355C3.74012 14.6587 3.74644 14.0011 3.78841 13.8429L0.363371 12.9342ZM0.365682 12.9255L0.363379 12.9342L3.78841 13.8429L3.79071 13.8342L0.365682 12.9255ZM0.377723 12.8822L0.375244 12.8908L3.78115 13.8688L3.78363 13.8602L0.377723 12.8822ZM2.81118 9.48452C1.62125 10.2848 0.789225 11.4491 0.377716 12.8822L3.78363 13.8602C3.97585 13.1907 4.32335 12.7379 4.78867 12.425L2.81118 9.48452ZM6.5126 8.29034C5.25956 8.39044 3.95086 8.71807 2.81118 9.48452L4.78867 12.425C5.27075 12.1008 5.93382 11.8914 6.79478 11.8226L6.5126 8.29034ZM14.577 9.63552C11.8274 8.72448 8.96581 8.09435 6.5126 8.29034L6.79478 11.8226C8.53415 11.6837 10.854 12.1349 13.4625 12.9992L14.577 9.63552ZM24.6888 14.0049C21.5726 12.5027 17.9492 10.7528 14.577 9.63552L13.4625 12.9992C16.5757 14.0307 19.9842 15.6708 23.15 17.1969L24.6888 14.0049ZM26.7203 14.9789C26.0695 14.6705 25.3918 14.3439 24.6888 14.0049L23.15 17.1969C23.8508 17.5348 24.5395 17.8668 25.2031 18.1812L26.7203 14.9789ZM32.823 17.4982C31.3128 16.9351 29.1317 16.1213 26.7203 14.9789L25.2031 18.1812C27.7644 19.3946 30.071 20.2539 31.5851 20.8184L32.823 17.4982ZM33.6106 14.6485C32.4005 15.7087 31.4261 17.0379 30.7901 18.5558L34.0584 19.9251C34.4803 18.9182 35.13 18.0284 35.9457 17.3138L33.6106 14.6485ZM33.0289 11.9025C32.6473 13.4496 32.7895 15.0952 33.0421 16.3348L36.5143 15.6274C36.3175 14.6618 36.2614 13.5942 36.4693 12.7513L33.0289 11.9025ZM34.6306 9.06201C33.724 9.90873 33.2603 10.9647 33.0289 11.9025L36.4693 12.7513C36.5906 12.2598 36.7885 11.8953 37.0492 11.6518L34.6306 9.06201ZM36.1864 8.07358C35.6056 8.30754 35.0826 8.63989 34.6306 9.062L37.0492 11.6518C37.1787 11.5309 37.3296 11.4333 37.5105 11.3604L36.1864 8.07358ZM35.6192 10.9936C35.6265 11.0002 35.6334 11.0066 35.6401 11.0128L38.0568 8.42122C38.0358 8.40165 38.0143 8.38199 37.9925 8.36225L35.6192 10.9936ZM33.563 9.99168C34.7906 10.3679 35.3817 10.7795 35.6191 10.9936L37.9925 8.36229C37.285 7.72411 36.2001 7.09362 34.6012 6.60366L33.563 9.99168ZM30.0037 8.00504C31.1439 8.20161 31.7227 8.49085 31.9561 8.64331L33.8941 5.67669C33.1663 5.20125 32.1042 4.77137 30.6058 4.51302L30.0037 8.00504ZM27.8363 4.93447C27.5869 6.38091 28.5573 7.75565 30.0037 8.00504L30.6058 4.51302C31.088 4.59615 31.4114 5.0544 31.3283 5.53655L27.8363 4.93447ZM30.9069 2.76702C29.4604 2.51763 28.0857 3.48804 27.8363 4.93447L31.3283 5.53655C31.2452 6.01869 30.7869 6.34216 30.3048 6.25903L30.9069 2.76702ZM34.863 4.19338C33.8879 3.55636 32.5842 3.05622 30.9069 2.76702L30.3048 6.25903C31.6241 6.4865 32.4445 6.84608 32.9251 7.16L34.863 4.19338ZM36.486 5.79353C36.0832 5.14196 35.497 4.6075 34.863 4.19338L32.9251 7.16C33.2515 7.37324 33.4128 7.56121 33.4719 7.6568L36.486 5.79353ZM39.1792 7.04664C38.3122 6.26464 37.1166 5.5766 35.5455 5.04641L34.4124 8.40392C35.6293 8.81455 36.372 9.28666 36.8058 9.67795L39.1792 7.04664ZM40.258 8.31901C39.9717 7.85619 39.6028 7.4287 39.1792 7.04664L36.8058 9.67795C37.0176 9.86893 37.1585 10.0443 37.2446 10.1834L40.258 8.31901ZM43.6427 7.54547C42.3556 7.23909 40.4013 7.03223 38.3371 7.5285L39.1655 10.9739C40.5472 10.6417 41.9165 10.7771 42.8222 10.9927L43.6427 7.54547ZM42.8029 7.06731C42.3806 7.44821 42.0126 7.87424 41.7267 8.33538L44.7382 10.2028C44.8244 10.0639 44.9652 9.889 45.1762 9.69862L42.8029 7.06731ZM46.4299 5.06933C44.8621 5.59921 43.6686 6.2864 42.8029 7.06731L45.1762 9.69862C45.6094 9.30789 46.3507 8.83656 47.5645 8.42631L46.4299 5.06933ZM47.0494 4.22985C46.4109 4.66332 45.8555 5.20455 45.4764 5.8388L48.518 7.65684C48.5765 7.55897 48.7289 7.3726 49.0397 7.16162L47.0494 4.22985ZM51.0145 2.76702C49.3275 3.05788 48.0225 3.56924 47.0494 4.22985L49.0397 7.16163C49.5007 6.84868 50.3004 6.48595 51.6165 6.25903L51.0145 2.76702ZM54.085 4.93447C53.8356 3.48803 52.4609 2.51763 51.0145 2.76702L51.6165 6.25903C51.1344 6.34216 50.6762 6.0187 50.593 5.53655L54.085 4.93447ZM39.5571 12.0082C38.1165 12.1798 36.7551 12.6269 35.5353 13.2992L37.2457 16.4026C38.0709 15.9478 38.9944 15.6438 39.9761 15.5269L39.5571 12.0082ZM38.2585 12.9467C38.2477 12.9568 38.2239 12.9773 38.1901 12.9994C38.1566 13.0213 38.1308 13.0334 38.1217 13.0373C38.1155 13.04 38.1303 13.0331 38.179 13.0191C38.2285 13.0049 38.3016 12.9864 38.41 12.9633L37.6699 9.49789C37.0256 9.63549 36.4078 9.8266 35.8399 10.3569L38.2585 12.9467ZM38.1895 13.1756C38.2552 12.9094 38.3196 12.8896 38.2585 12.9467L35.8399 10.3569C35.2568 10.9015 34.9257 11.6113 34.7491 12.3269L38.1895 13.1756ZM38.1508 14.6491C38.0816 14.0462 38.1024 13.5288 38.1895 13.1756L34.7491 12.3269C34.5257 13.2324 34.5334 14.2078 34.6303 15.0527L38.1508 14.6491ZM37.3859 18.4225C38.3419 17.6866 39.5562 17.2449 40.885 17.2449V13.7014C38.7597 13.7014 36.7884 14.4106 35.2245 15.6145L37.3859 18.4225ZM35.5022 21.1438C35.8232 20.0607 36.487 19.1144 37.3859 18.4225L35.2245 15.6145C33.7568 16.7442 32.6458 18.3113 32.1048 20.1368L35.5022 21.1438ZM35.2841 22.6637C35.2841 22.1279 35.3613 21.6192 35.5022 21.1438L32.1048 20.1368C31.8675 20.9372 31.7406 21.7849 31.7406 22.6637H35.2841ZM35.2963 23.0356C35.2883 22.9131 35.2841 22.789 35.2841 22.6637H31.7406C31.7406 22.8667 31.7473 23.0684 31.7605 23.2684L35.2963 23.0356ZM35.6081 24.537C35.4385 24.0647 35.331 23.5615 35.2963 23.0356L31.7605 23.2684C31.817 24.1281 31.9934 24.9559 32.2732 25.735L35.6081 24.537ZM35.643 24.6314C35.6318 24.6021 35.6209 24.5726 35.6103 24.5429L32.2767 25.7447C32.2943 25.7934 32.3123 25.842 32.3306 25.8903L35.643 24.6314ZM35.6716 24.7051C35.6619 24.6805 35.6523 24.6559 35.643 24.6314L32.3306 25.8903C32.3461 25.931 32.3618 25.9714 32.3777 26.0115L35.6716 24.7051ZM37.2044 26.8578C36.5319 26.2767 36.0023 25.5388 35.6716 24.705L32.3777 26.0116C32.9221 27.3838 33.7903 28.5908 34.8874 29.5389L37.2044 26.8578ZM40.8243 28.2038C39.4381 28.2038 38.1767 27.6982 37.2044 26.8578L34.8874 29.5389C36.4791 30.9145 38.5556 31.7474 40.8243 31.7474V28.2038ZM44.5542 26.8387C43.5666 27.6866 42.2621 28.2038 40.8243 28.2038V31.7474C43.1247 31.7474 45.2443 30.9166 46.8625 29.5273L44.5542 26.8387ZM46.0905 24.6533C45.7739 25.4981 45.2432 26.2471 44.5542 26.8387L46.8625 29.5273C47.9905 28.5587 48.8762 27.3176 49.4087 25.8968L46.0905 24.6533ZM46.4178 23.0721C46.3887 23.632 46.2747 24.1617 46.0904 24.6533L49.4087 25.8968C49.7188 25.0691 49.9083 24.1823 49.9565 23.2562L46.4178 23.0721ZM46.4252 22.7851C46.4252 22.8817 46.4227 22.9774 46.4178 23.0721L49.9565 23.2562C49.9646 23.1002 49.9688 22.9432 49.9688 22.7851H46.4252ZM46.1866 21.1692C46.3411 21.6772 46.4252 22.2189 46.4252 22.7851H49.9688C49.9688 21.8656 49.8319 20.9765 49.5767 20.1379L46.1866 21.1692ZM44.2537 18.3862C45.1624 19.0833 45.8472 20.0534 46.1866 21.1692L49.5767 20.1379C49.0175 18.2995 47.8934 16.7123 46.4105 15.5746L44.2537 18.3862ZM44.2465 18.3807L44.2557 18.3877L46.4084 15.5731L46.3993 15.566L44.2465 18.3807ZM40.885 17.2449C42.1511 17.2449 43.314 17.6677 44.2467 18.3808L46.3991 15.5659C44.87 14.3967 42.9559 13.7014 40.885 13.7014V17.2449ZM35.0452 34.1737C35.2867 33.2544 35.8028 32.2794 36.7841 31.2822L34.2585 28.7967C32.8816 30.1958 32.0299 31.7056 31.618 33.2732L35.0452 34.1737ZM34.2044 32.1697C34.1441 32.1442 34.0869 32.1197 34.0329 32.0964L32.6302 35.3505C32.6904 35.3764 32.754 35.4036 32.8208 35.432L34.2044 32.1697ZM36.1802 32.9365C35.3906 32.6585 34.6983 32.3792 34.2044 32.1697L32.8208 35.432C33.3652 35.6629 34.1281 35.9707 35.0033 36.2789L36.1802 32.9365ZM40.8839 33.9874C39.6254 33.9879 37.8438 33.5223 36.1802 32.9365L35.0033 36.2789C36.7253 36.8853 38.9878 37.5317 40.8854 37.5309L40.8839 33.9874ZM45.5804 32.9357C43.9195 33.5212 42.1406 33.9869 40.8839 33.9874L40.8854 37.5309C42.7802 37.5302 45.0391 36.8838 46.7584 36.2777L45.5804 32.9357ZM47.5529 32.1696C47.0599 32.3788 46.3687 32.6579 45.5804 32.9357L46.7584 36.2777C47.6322 35.9697 48.3938 35.6622 48.9373 35.4315L47.5529 32.1696ZM47.7239 32.0964C47.6701 32.1196 47.6131 32.1441 47.553 32.1696L48.9373 35.4315C49.004 35.4032 49.0673 35.3761 49.1273 35.3502L47.7239 32.0964ZM44.9665 31.2673C45.952 32.2681 46.4697 33.2476 46.7115 34.1718L50.1397 33.2749C49.7279 31.701 48.874 30.1852 47.4916 28.7811L44.9665 31.2673ZM40.8243 33.5191C43.2122 33.5191 45.4446 32.7643 47.2601 31.4651L45.198 28.5834C43.9725 29.4603 42.4588 29.9756 40.8243 29.9756V33.5191ZM34.486 31.4772C36.2694 32.7615 38.4617 33.5191 40.8243 33.5191V29.9756C39.2297 29.9756 37.7574 29.4663 36.5566 28.6017L34.486 31.4772ZM47.3474 37.9487C48.1194 37.6766 48.8061 37.4055 49.3427 37.1828L47.9845 33.9099C47.4943 34.1133 46.8687 34.3602 46.1694 34.6067L47.3474 37.9487ZM40.8861 39.3027C43.0993 39.3018 45.5974 38.5656 47.3474 37.9487L46.1694 34.6067C44.4798 35.2023 42.4607 35.7585 40.8847 35.7592L40.8861 39.3027ZM34.4148 37.9501C36.1676 38.5673 38.6697 39.3036 40.8861 39.3027L40.8847 35.7592C39.3064 35.7598 37.2841 35.2036 35.5918 34.6077L34.4148 37.9501ZM32.4134 37.1824C32.9514 37.4055 33.6403 37.6773 34.4149 37.9501L35.5918 34.6077C34.8901 34.3606 34.2625 34.1131 33.7711 33.9093L32.4134 37.1824ZM36.0897 39.9202C35.278 38.3716 34.8528 36.8978 34.864 35.5606L31.3206 35.531C31.3031 37.6249 31.9629 39.6798 32.9511 41.5653L36.0897 39.9202ZM35.4809 39.2059C35.3447 39.1577 35.2278 39.1152 35.1336 39.0805L33.9071 42.405C34.015 42.4448 34.1467 42.4926 34.2989 42.5465L35.4809 39.2059ZM37.0905 39.7278C36.448 39.5385 35.8836 39.3484 35.4809 39.2059L34.2989 42.5465C34.7461 42.7047 35.3723 42.9157 36.0892 43.1269L37.0905 39.7278ZM40.8841 40.4417C39.8862 40.442 38.4471 40.1274 37.0905 39.7278L36.0892 43.1269C37.4988 43.5421 39.3487 43.9858 40.8853 43.9852L40.8841 40.4417ZM44.672 39.7272C43.3175 40.1267 41.8806 40.4413 40.8841 40.4417L40.8854 43.9852C42.4198 43.9847 44.2668 43.5411 45.6742 43.1261L44.672 39.7272ZM46.2791 39.2058C45.877 39.3481 45.3135 39.5381 44.672 39.7272L45.6742 43.1261C46.39 42.915 47.0152 42.7043 47.4617 42.5461L46.2791 39.2058ZM46.625 39.0808C46.5311 39.1155 46.4147 39.1578 46.2791 39.2058L47.4617 42.5461C47.6132 42.4925 47.7444 42.4448 47.8519 42.4052L46.625 39.0808ZM46.8919 35.5605C46.9026 36.8991 46.478 38.3737 45.6684 39.922L48.8085 41.564C49.7942 39.6789 50.4521 37.6249 50.4353 35.5322L46.8919 35.5605ZM40.886 45.757C42.6886 45.7564 44.7401 45.2487 46.1754 44.8255L45.1731 41.4267C43.7926 41.8338 42.1504 42.213 40.8847 42.2135L40.886 45.757ZM35.5885 44.8264C37.026 45.2499 39.0807 45.7576 40.886 45.757L40.8847 42.2135C39.6172 42.2139 37.9725 41.8346 36.5898 41.4273L35.5885 44.8264ZM42.0042 46.8789C40.5049 45.6573 38.7991 43.9653 37.4253 42.0605L34.5513 44.1334C36.1379 46.3332 38.0716 48.2455 39.7658 49.626L42.0042 46.8789ZM44.3364 42.0615C42.9654 43.9667 41.2627 45.6587 39.7655 46.8792L42.0045 49.6258C43.698 48.2452 45.6289 46.3321 47.2127 44.1312L44.3364 42.0615ZM30.11 24.4163C30.1598 24.7226 30.2225 25.0249 30.2975 25.3224L33.7336 24.4566C33.6832 24.2568 33.6411 24.0536 33.6076 23.8475L30.11 24.4163ZM24.9078 26.8629C27.4753 26.4235 30.214 26.0179 31.9773 25.8997L31.7402 22.3641C29.7789 22.4956 26.8829 22.9298 24.3101 23.3701L24.9078 26.8629ZM23.699 27.0742C24.0904 27.0044 24.4951 26.9335 24.9078 26.8629L24.3101 23.3701C23.8886 23.4422 23.4756 23.5146 23.0764 23.5858L23.699 27.0742ZM17.6443 28.8368C19.5656 28.0592 22.0487 27.4129 23.7433 27.0657L23.0321 23.5943C21.2223 23.9651 18.5101 24.6636 16.3148 25.5521L17.6443 28.8368ZM15.6885 29.8534C16.0069 29.5977 16.6527 29.2382 17.6443 28.8368L16.3148 25.5522C15.2249 25.9933 14.1961 26.5072 13.4699 27.0903L15.6885 29.8534ZM15.701 29.7741C15.6711 29.8316 15.6444 29.8719 15.6278 29.895C15.6108 29.9188 15.5997 29.9314 15.5981 29.9332C15.5957 29.9359 15.6205 29.9079 15.6885 29.8533L13.4699 27.0903C13.1069 27.3817 12.7698 27.7295 12.5559 28.1416L15.701 29.7741ZM15.7532 28.4388C15.7526 28.437 15.7592 28.4541 15.7667 28.4751C15.7749 28.498 15.785 28.5279 15.7955 28.5633C15.8172 28.6362 15.8365 28.7183 15.8496 28.8087C15.876 28.9914 15.8701 29.1568 15.8501 29.2956C15.8135 29.5496 15.7283 29.7214 15.701 29.7741L12.5559 28.1416C12.4861 28.276 12.3845 28.5009 12.3429 28.7898C12.2866 29.1801 12.3646 29.4989 12.4445 29.7072L15.7532 28.4388ZM17.8727 29.6863C17.1229 29.5002 16.5747 29.2286 16.2199 28.9705C15.8426 28.696 15.7796 28.5114 15.7879 28.5376L12.4112 29.612C12.7055 30.5371 13.379 31.2857 14.1351 31.8359C14.9137 32.4023 15.8959 32.8468 17.0195 33.1256L17.8727 29.6863ZM22.5594 29.2195C21.0777 29.9559 19.3297 30.0477 17.8727 29.6863L17.0195 33.1256C19.1781 33.6611 21.8028 33.5525 24.1365 32.3927L22.5594 29.2195ZM25.3183 27.0534C24.2719 27.9956 23.4617 28.7155 22.4868 29.2577L24.2091 32.3545C25.5911 31.5859 26.689 30.5875 27.6895 29.6866L25.3183 27.0534ZM26.453 26.0492C26.05 26.3944 25.6708 26.7359 25.3183 27.0534L27.6895 29.6866C28.0465 29.3651 28.3937 29.0526 28.758 28.7406L26.453 26.0492ZM31.5811 23.1718C29.3767 23.7294 27.7471 24.9409 26.453 26.0492L28.758 28.7406C29.9162 27.7486 31.0431 26.963 32.45 26.6072L31.5811 23.1718ZM30.169 20.5973C30.0597 21.1534 29.9939 21.7241 29.9747 22.3056L33.5164 22.4224C33.5292 22.0316 33.5734 21.6504 33.646 21.2807L30.169 20.5973ZM24.4446 19.7823C27.0852 21.0334 29.4954 21.9309 31.0039 22.493L32.2412 19.1725C30.7366 18.6118 28.4522 17.7599 25.9617 16.58L24.4446 19.7823ZM22.3369 18.7723C23.0495 19.1157 23.7559 19.4561 24.4446 19.7823L25.9617 16.58C25.2855 16.2596 24.5898 15.9244 23.8751 15.58L22.3369 18.7723ZM12.9053 14.6811C15.8978 15.6726 19.1728 17.2476 22.3369 18.7723L23.8751 15.58C20.7623 14.0801 17.2715 12.3948 14.0198 11.3174L12.9053 14.6811ZM6.93587 13.5888C8.31789 13.4783 10.3666 13.8399 12.9053 14.6811L14.0198 11.3174C11.341 10.4298 8.75013 9.88899 6.65369 10.0565L6.93587 13.5888ZM5.77741 13.8952C5.93112 13.7918 6.27165 13.6418 6.93587 13.5888L6.65369 10.0565C5.59639 10.1409 4.61063 10.4095 3.79992 10.9547L5.77741 13.8952ZM5.48818 14.3436C5.53437 14.1848 5.58614 14.0934 5.62475 14.0397C5.66234 13.9875 5.70859 13.9415 5.77741 13.8952L3.79992 10.9547C2.97768 11.5077 2.38918 12.3101 2.08558 13.3542L5.48818 14.3436ZM5.86806 14.6441C5.64675 14.3163 5.57416 14.0989 5.55197 14.0111C5.54048 13.9656 5.54252 13.9551 5.54373 13.9806C5.54433 13.9933 5.54497 14.02 5.54215 14.06C5.53971 14.0945 5.53282 14.1664 5.50946 14.2635L2.0643 13.4344C1.86877 14.2468 2.10977 15.4102 2.93118 16.6269L5.86806 14.6441ZM9.30197 17.321C7.27091 16.2843 6.30068 15.2849 5.86806 14.6441L2.93118 16.6269C3.77406 17.8754 5.25886 19.2358 7.69101 20.4772L9.30197 17.321ZM9.76134 17.5555L9.30197 17.321L7.69101 20.4772L8.15037 20.7117L9.76134 17.5555ZM10.7488 19.5702L10.7259 19.0549L7.18584 19.2122L7.20874 19.7275L10.7488 19.5702ZM12.1863 22.0616C11.1449 21.3348 10.7794 20.2602 10.7488 19.5702L7.20874 19.7275C7.27953 21.3202 8.06114 23.5038 10.1585 24.9675L12.1863 22.0616ZM19.5491 22.4497C15.3176 23.4802 13.1889 22.7612 12.1863 22.0616L10.1585 24.9675C12.269 26.4403 15.5468 27.0715 20.3876 25.8927L19.5491 22.4497ZM19.5673 22.4453L19.5491 22.4497L20.3876 25.8926L20.4058 25.8882L19.5673 22.4453ZM19.6589 22.4254L19.6406 22.4291L20.3325 25.9044L20.3509 25.9008L19.6589 22.4254ZM22.754 21.8436C21.5523 22.0581 20.4721 22.2635 19.6588 22.4255L20.351 25.9007C21.1399 25.7436 22.1969 25.5426 23.3768 25.332L22.754 21.8436ZM24.0112 21.6237C23.5864 21.6964 23.1699 21.7694 22.7673 21.8412L23.3898 25.3296C23.7846 25.2592 24.1928 25.1877 24.609 25.1165L24.0112 21.6237ZM31.6269 20.5962C29.537 20.7364 26.5548 21.1885 24.0112 21.6237L24.609 25.1165C27.1479 24.682 29.9724 24.2587 31.8642 24.1318L31.6269 20.5962ZM55.2723 26.0574C53.9824 24.9487 52.3569 23.7368 50.1495 23.1803L49.2832 26.6163C50.6892 26.9708 51.8101 27.7542 52.9624 28.7447L55.2723 26.0574ZM56.3958 27.0552C56.0467 26.7398 55.6714 26.4005 55.2723 26.0574L52.9624 28.7447C53.323 29.0546 53.6665 29.3649 54.0199 29.6843L56.3958 27.0552ZM59.2187 29.2577C58.244 28.7156 57.438 27.997 56.3958 27.0552L54.0199 29.6843C55.0167 30.5851 56.1118 31.5844 57.4964 32.3545L59.2187 29.2577ZM63.8328 29.6863C62.3758 30.0477 60.6278 29.9559 59.1461 29.2195L57.569 32.3927C59.9027 33.5525 62.5274 33.6611 64.686 33.1256L63.8328 29.6863ZM65.9176 28.5376C65.9259 28.5114 65.8629 28.696 65.4856 28.9705C65.1308 29.2286 64.5826 29.5002 63.8328 29.6863L64.686 33.1256C65.8096 32.8468 66.7918 32.4023 67.5704 31.8359C68.3265 31.2857 69 30.5371 69.2943 29.612L65.9176 28.5376ZM65.9988 29.7542C65.9704 29.6983 65.8866 29.524 65.853 29.2681C65.8347 29.1282 65.8324 28.9718 65.8566 28.8055C65.8683 28.7246 65.8845 28.6538 65.9007 28.595C65.9158 28.5407 65.931 28.4972 65.9299 28.5004L69.2836 29.6447C69.3353 29.4931 69.4171 29.1936 69.3666 28.808C69.3283 28.5154 69.2281 28.2871 69.1582 28.1494L65.9988 29.7542ZM66.0212 29.8453C66.0858 29.8979 66.108 29.9237 66.1037 29.9188C66.1012 29.9159 66.0894 29.9023 66.072 29.8775C66.0551 29.8533 66.0283 29.8122 65.9989 29.7542L69.1582 28.1494C68.9487 27.737 68.6167 27.3889 68.2584 27.0972L66.0212 29.8453ZM64.1127 28.8444C65.0882 29.2423 65.7161 29.5968 66.0213 29.8453L68.2584 27.0972C67.5424 26.5144 66.527 26.0022 65.4511 25.5633L64.1127 28.8444ZM58.0783 27.0862C59.7721 27.4332 62.2236 28.0737 64.1127 28.8444L65.4511 25.5633C63.2837 24.6791 60.5994 23.9855 58.7895 23.6147L58.0783 27.0862ZM57.0291 26.9022C57.4009 26.9664 57.7662 27.0307 58.1212 27.0944L58.7466 23.6065C58.3845 23.5416 58.0117 23.4759 57.6322 23.4103L57.0291 26.9022ZM49.7482 25.9003C51.5724 26.0234 54.4207 26.4517 57.0291 26.9022L57.6322 23.4103C55.021 22.9594 52.0123 22.5015 49.9868 22.3648L49.7482 25.9003ZM51.4376 25.3182C51.5112 25.0164 51.572 24.7097 51.6192 24.3985L48.1159 23.8665C48.0844 24.0738 48.044 24.2778 47.995 24.4783L51.4376 25.3182ZM59.0702 21.8645C56.2487 21.3584 52.5322 20.7592 50.0771 20.5954L49.8412 24.1311C52.077 24.2803 55.6165 24.845 58.4445 25.3523L59.0702 21.8645ZM62.0467 22.4255C61.2931 22.2754 60.3115 22.0881 59.2173 21.891L58.5888 25.3783C59.6631 25.5719 60.6234 25.7551 61.3545 25.9007L62.0467 22.4255ZM62.0649 22.4291L62.0466 22.4254L61.3547 25.9008L61.373 25.9044L62.0649 22.4291ZM62.1565 22.4498L62.1383 22.4453L61.2997 25.8882L61.3179 25.8926L62.1565 22.4498ZM69.5191 22.0616C68.5166 22.7612 66.3879 23.4802 62.1564 22.4497L61.3179 25.8927C66.1587 27.0715 69.4365 26.4403 71.547 24.9675L69.5191 22.0616ZM70.9567 19.5702C70.926 20.2602 70.5606 21.3348 69.5191 22.0616L71.547 24.9675C73.6444 23.5039 74.426 21.3202 74.4968 19.7275L70.9567 19.5702ZM70.9796 19.0549L70.9567 19.5701L74.4968 19.7275L74.5197 19.2123L70.9796 19.0549ZM72.4035 17.321L71.9442 17.5555L73.5551 20.7117L74.0145 20.4772L72.4035 17.321ZM75.8374 14.6441C75.4048 15.2849 74.4346 16.2843 72.4035 17.321L74.0145 20.4772C76.4466 19.2358 77.9314 17.8754 78.7743 16.6269L75.8374 14.6441ZM76.196 14.2635C76.1727 14.1664 76.1658 14.0945 76.1633 14.06C76.1605 14.02 76.1612 13.9933 76.1618 13.9807C76.163 13.9551 76.165 13.9656 76.1535 14.0111C76.1313 14.0989 76.0587 14.3163 75.8374 14.6441L78.7743 16.6269C79.5958 15.4102 79.8367 14.2467 79.6412 13.4343L76.196 14.2635ZM75.9281 13.8952C75.9969 13.9415 76.0432 13.9875 76.0807 14.0397C76.1193 14.0934 76.1711 14.1848 76.2173 14.3436L79.6199 13.3542C79.3163 12.3101 78.7278 11.5077 77.9056 10.9547L75.9281 13.8952ZM74.7696 13.5888C75.4338 13.6418 75.7744 13.7918 75.9281 13.8952L77.9056 10.9547C77.0949 10.4095 76.1091 10.1409 75.0518 10.0565L74.7696 13.5888ZM68.8002 14.6811C71.3389 13.8399 73.3876 13.4783 74.7696 13.5888L75.0518 10.0565C72.9554 9.88899 70.3645 10.4298 67.6857 11.3174L68.8002 14.6811ZM59.3687 18.7723C62.5327 17.2476 65.8077 15.6726 68.8002 14.6811L67.6857 11.3174C64.434 12.3948 60.9432 14.0801 57.8304 15.58L59.3687 18.7723ZM57.2609 19.7823C57.9496 19.4561 58.656 19.1157 59.3687 18.7723L57.8304 15.58C57.1157 15.9244 56.42 16.2596 55.7438 16.58L57.2609 19.7823ZM50.6852 22.4982C52.1992 21.9343 54.6222 21.0325 57.2609 19.7823L55.7438 16.58C53.2557 17.7588 50.9592 18.6148 49.4484 19.1775L50.6852 22.4982ZM50.4014 22.604C50.492 22.5702 50.5864 22.535 50.6852 22.4982L49.4484 19.1775C49.3499 19.2142 49.2543 19.2498 49.1624 19.2841L50.4014 22.604ZM51.729 22.2822C51.7026 21.7053 51.631 21.1388 51.5172 20.5866L48.0466 21.3015C48.123 21.6725 48.1713 22.0542 48.1892 22.4443L51.729 22.2822ZM43.5017 13.1287C43.571 13.4765 43.5737 13.9801 43.4926 14.5777L47.004 15.0543C47.1137 14.2455 47.1516 13.3125 46.9769 12.4361L43.5017 13.1287ZM43.4555 12.9181C43.4219 12.8825 43.4199 12.8672 43.4339 12.8975C43.4486 12.9293 43.4763 13.0014 43.5017 13.1287L46.9769 12.4361C46.8385 11.7415 46.5577 11.0421 46.0323 10.4856L43.4555 12.9181ZM43.5538 13.0024C43.5981 13.0108 43.592 13.0155 43.5575 12.9969C43.5413 12.9882 43.5228 12.9764 43.5038 12.9617C43.4848 12.947 43.4686 12.9319 43.4555 12.9181L46.0323 10.4856C45.5798 10.0063 44.9737 9.66428 44.2109 9.52033L43.5538 13.0024ZM46.1006 13.2627C44.9321 12.6215 43.632 12.1887 42.252 12.0151L41.8096 15.5309C42.7376 15.6476 43.6104 15.9382 44.396 16.3693L46.1006 13.2627ZM43.791 13.9749C43.808 13.8267 43.8439 13.6263 43.9015 13.4187C43.9603 13.2068 44.029 13.0336 44.0938 12.9153C44.1658 12.7837 44.1803 12.8151 44.0813 12.8816C44.0222 12.9213 43.9307 12.9672 43.8117 12.9915C43.6906 13.0163 43.5852 13.0096 43.5125 12.9941L44.2522 9.52864C43.4502 9.35746 42.7022 9.53918 42.1053 9.94019C41.5617 10.3054 41.2099 10.8037 40.9852 11.2143C40.5401 12.0277 40.3399 12.9668 40.2706 13.571L43.791 13.9749ZM31.9561 8.64331C31.8786 8.59273 31.8457 8.55101 31.8584 8.56563C31.8642 8.57231 31.8765 8.58725 31.8987 8.61661C31.922 8.6476 31.9467 8.68183 31.9847 8.7347L34.8619 6.6663C34.7548 6.51733 34.4249 6.02351 33.8941 5.67669L31.9561 8.64331ZM31.9847 8.7347C32.091 8.88249 32.5991 9.6963 33.563 9.99168L34.6012 6.60366C34.7024 6.63465 34.7874 6.67802 34.8536 6.72151C34.9172 6.76326 34.9561 6.80029 34.9709 6.8152C34.9845 6.82894 34.9828 6.8293 34.9613 6.80173C34.9379 6.77164 34.9116 6.73538 34.8619 6.6663L31.9847 8.7347ZM33.0434 17.5804L32.8232 17.4982L31.5849 20.8184L31.8052 20.9005L33.0434 17.5804ZM48.8675 17.5028L48.6358 17.5892L49.8736 20.9095L50.1053 20.8231L48.8675 17.5028ZM48.4191 10.0123C49.4068 9.70966 49.9142 8.85863 50.0145 8.7136L47.1002 6.69788C47.0511 6.76884 47.0251 6.80607 47.0019 6.83693C46.9807 6.86527 46.9792 6.86452 46.9934 6.84979C47.0086 6.83387 47.049 6.79432 47.1154 6.7498C47.1846 6.70337 47.2741 6.65705 47.3808 6.62433L48.4191 10.0123ZM50.0145 8.7136C50.0514 8.66025 50.0755 8.62557 50.0982 8.59418C50.1198 8.56439 50.1319 8.54929 50.1374 8.54264C50.1427 8.53633 50.1371 8.5437 50.1213 8.55875C50.105 8.57423 50.0763 8.59937 50.0349 8.62751L48.0446 5.69574C47.5229 6.04986 47.2017 6.55113 47.1002 6.69788L50.0145 8.7136ZM35.6105 24.5436L35.6077 24.5358L32.2737 25.7362L32.2765 25.744L35.6105 24.5436ZM15.7644 28.4686L15.7637 28.4668L12.434 29.6791L12.4347 29.6809L15.7644 28.4686ZM22.7673 21.8412L22.7541 21.8436L23.3767 25.332L23.3899 25.3296L22.7673 21.8412ZM65.9262 28.5114L65.9254 28.5136L69.2865 29.6359L69.2873 29.6337L65.9262 28.5114ZM59.2166 21.8908L59.0737 21.8651L58.4466 25.3527L58.5895 25.3784L59.2166 21.8908ZM59.0739 21.8652L59.0711 21.8646L58.4436 25.3522L58.4465 25.3527L59.0739 21.8652ZM41.4961 13.3827C41.4344 13.1056 41.2703 12.0999 40.9324 11.3342C40.7519 10.9254 40.439 10.3699 39.8808 9.95665C39.2477 9.48801 38.4678 9.32748 37.6699 9.49789L38.41 12.9633C38.3609 12.9738 38.2557 12.986 38.1172 12.9572C37.9766 12.9281 37.8585 12.8684 37.7726 12.8048C37.6273 12.6973 37.6267 12.6203 37.6905 12.765C37.7468 12.8924 37.8054 13.0821 37.8665 13.3447C37.8958 13.4709 37.9226 13.5993 37.9504 13.736C37.9763 13.8632 38.007 14.0168 38.0371 14.1524L41.4961 13.3827ZM45.2693 41.3982L45.2262 41.411L46.2368 44.8073L46.2799 44.7945L45.2693 41.3982ZM45.2289 41.4102L45.1716 41.4271L46.1769 44.8251L46.2342 44.8081L45.2289 41.4102ZM36.5897 41.4273C36.5736 41.4226 36.5576 41.4178 36.5417 41.4131L35.5348 44.8106C35.5527 44.8159 35.5707 44.8212 35.5886 44.8265L36.5897 41.4273ZM36.5417 41.4131C36.5259 41.4084 36.5101 41.4037 36.4942 41.399L35.4823 44.795C35.4997 44.8002 35.5172 44.8054 35.5348 44.8106L36.5417 41.4131ZM32.5269 19.279L32.3905 19.2282L31.1518 22.5481L31.2882 22.599L32.5269 19.279ZM32.3899 19.2279L32.2413 19.1725L31.0038 22.493L31.1524 22.5484L32.3899 19.2279Z" fill="#26619C" mask="url(#path-3-outside-1_24_13)"/>
<path d="M123.274 20.728C122.858 19.704 122.314 18.696 121.642 17.704C121.002 16.68 120.25 15.784 119.386 15.016C118.522 14.216 117.562 13.576 116.506 13.096C115.45 12.616 114.298 12.376 113.05 12.376C111.226 12.376 109.722 12.712 108.538 13.384C107.386 14.056 106.81 15.256 106.81 16.984C106.81 18.008 107.066 18.904 107.578 19.672C108.122 20.408 108.826 21.064 109.69 21.64C110.586 22.216 111.594 22.744 112.714 23.224C113.834 23.704 114.97 24.2 116.122 24.712C117.306 25.192 118.458 25.72 119.578 26.296C120.698 26.872 121.69 27.56 122.554 28.36C123.45 29.16 124.154 30.088 124.666 31.144C125.21 32.2 125.482 33.464 125.482 34.936C125.482 36.504 125.194 37.864 124.618 39.016C124.042 40.136 123.258 41.064 122.266 41.8C121.306 42.536 120.17 43.08 118.858 43.432C117.578 43.784 116.202 43.96 114.73 43.96C113.93 43.96 113.098 43.88 112.234 43.72C111.37 43.592 110.538 43.432 109.738 43.24C108.938 43.08 108.202 42.936 107.53 42.808C106.89 42.648 106.378 42.568 105.994 42.568C105.642 42.568 105.306 42.632 104.986 42.76C104.666 42.856 104.33 42.968 103.978 43.096C103.69 41.272 103.354 39.496 102.97 37.768C102.586 36.008 102.186 34.216 101.77 32.392L102.394 32.056C102.97 33.176 103.658 34.344 104.458 35.56C105.29 36.776 106.218 37.896 107.242 38.92C108.266 39.912 109.386 40.744 110.602 41.416C111.85 42.088 113.194 42.424 114.634 42.424C115.562 42.424 116.458 42.328 117.322 42.136C118.186 41.912 118.938 41.576 119.578 41.128C120.25 40.68 120.778 40.104 121.162 39.4C121.546 38.664 121.738 37.768 121.738 36.712C121.738 35.208 121.274 33.96 120.346 32.968C119.418 31.944 118.266 31.064 116.89 30.328C115.514 29.56 114.01 28.856 112.378 28.216C110.778 27.576 109.29 26.856 107.914 26.056C106.538 25.256 105.386 24.312 104.458 23.224C103.53 22.136 103.066 20.76 103.066 19.096C103.066 17.848 103.306 16.712 103.786 15.688C104.266 14.664 104.906 13.8 105.706 13.096C106.538 12.36 107.482 11.8 108.538 11.416C109.626 11.032 110.778 10.84 111.994 10.84C113.178 10.84 114.234 10.92 115.162 11.08C116.122 11.24 117.05 11.416 117.946 11.608C118.874 11.8 119.786 11.992 120.682 12.184C121.578 12.344 122.538 12.424 123.562 12.424C123.562 13.864 123.578 15.272 123.61 16.648C123.674 17.992 123.786 19.352 123.946 20.728H123.274ZM135.647 37.144C135.647 38.488 135.983 39.528 136.655 40.264C137.359 41 138.383 41.368 139.727 41.368C140.751 41.368 141.759 41.128 142.751 40.648C143.775 40.136 144.527 39.608 145.007 39.064V28.936C145.007 28.52 144.975 28.136 144.911 27.784C144.847 27.432 144.687 27.128 144.431 26.872C144.175 26.584 143.791 26.344 143.279 26.152C142.767 25.928 142.079 25.752 141.215 25.624V25.096L148.751 24.568V39.304C148.751 40.52 149.055 41.336 149.663 41.752C150.303 42.136 151.183 42.36 152.303 42.424V42.904C151.087 42.968 149.855 43.016 148.607 43.048C147.391 43.08 146.191 43.128 145.007 43.192V40.696C143.887 41.528 142.703 42.248 141.455 42.856C140.239 43.464 138.911 43.768 137.471 43.768C135.935 43.768 134.623 43.336 133.535 42.472C132.447 41.608 131.903 40.28 131.903 38.488V28.552C131.903 27.592 131.631 26.936 131.087 26.584C130.575 26.232 129.647 25.976 128.303 25.816V25.192L135.647 24.568V37.144ZM154.612 25.912L161.62 24.856V27.4C162.484 26.728 163.476 26.088 164.596 25.48C165.716 24.872 166.788 24.568 167.812 24.568C168.708 24.568 169.556 24.68 170.356 24.904C171.188 25.128 171.924 25.496 172.564 26.008C173.204 26.52 173.716 27.208 174.1 28.072C174.484 28.936 174.676 30.008 174.676 31.288V39.736C174.676 40.792 174.964 41.496 175.54 41.848C176.116 42.168 176.948 42.424 178.036 42.616V43.192C177.108 43.128 176.116 43.08 175.06 43.048C174.004 43.016 172.932 43 171.844 43C171.108 43 170.388 43.016 169.684 43.048C169.012 43.08 168.356 43.128 167.716 43.192V42.616C168.74 42.424 169.524 42.168 170.068 41.848C170.644 41.496 170.932 40.792 170.932 39.736V32.008C170.932 30.376 170.58 29.112 169.876 28.216C169.204 27.32 168.1 26.872 166.564 26.872C166.02 26.872 165.46 26.952 164.884 27.112C164.308 27.272 163.78 27.496 163.3 27.784C162.82 28.04 162.42 28.328 162.1 28.648C161.78 28.968 161.62 29.272 161.62 29.56V39.736C161.62 40.792 161.924 41.496 162.532 41.848C163.14 42.168 164.052 42.424 165.268 42.616V43.192C164.18 43.128 163.092 43.08 162.004 43.048C160.948 43.016 159.876 43 158.788 43C158.052 43 157.332 43.016 156.628 43.048C155.956 43.08 155.252 43.128 154.516 43.192V42.616C155.604 42.424 156.436 42.168 157.012 41.848C157.588 41.496 157.876 40.792 157.876 39.736V28.6C157.876 27.64 157.54 27.048 156.868 26.824C156.228 26.6 155.476 26.488 154.612 26.488V25.912ZM184.713 32.92C184.713 34.584 184.921 35.96 185.337 37.048C185.785 38.136 186.329 39 186.969 39.64C187.641 40.28 188.345 40.728 189.081 40.984C189.849 41.24 190.553 41.368 191.193 41.368C192.537 41.368 193.753 41.16 194.841 40.744C195.929 40.296 196.937 39.608 197.865 38.68L198.681 39.448C197.369 40.856 196.025 41.928 194.649 42.664C193.273 43.4 191.625 43.768 189.705 43.768C188.329 43.768 187.097 43.496 186.009 42.952C184.921 42.408 183.993 41.688 183.225 40.792C182.457 39.896 181.865 38.872 181.449 37.72C181.065 36.568 180.873 35.384 180.873 34.168C180.873 32.952 181.065 31.768 181.449 30.616C181.865 29.464 182.457 28.44 183.225 27.544C183.993 26.648 184.921 25.928 186.009 25.384C187.097 24.84 188.329 24.568 189.705 24.568C192.233 24.568 194.265 25.256 195.801 26.632C197.337 28.008 198.281 30.104 198.633 32.92H184.713ZM194.073 31.48C193.977 30.616 193.849 29.848 193.689 29.176C193.529 28.472 193.273 27.896 192.921 27.448C192.569 26.968 192.105 26.616 191.529 26.392C190.953 26.136 190.217 26.008 189.321 26.008C188.649 26.008 188.025 26.184 187.449 26.536C186.905 26.856 186.425 27.288 186.009 27.832C185.625 28.344 185.321 28.936 185.097 29.608C184.905 30.248 184.809 30.872 184.809 31.48H194.073ZM201.481 42.616C202.569 42.424 203.401 42.168 203.977 41.848C204.553 41.496 204.841 40.792 204.841 39.736V28.6C204.841 27.64 204.505 27.048 203.833 26.824C203.193 26.6 202.441 26.488 201.577 26.488V25.912L208.585 24.856V27.592C208.969 27.336 209.401 27 209.881 26.584C210.393 26.168 210.921 25.768 211.465 25.384C212.041 24.968 212.617 24.616 213.193 24.328C213.769 24.04 214.329 23.896 214.873 23.896C216.121 23.896 217.049 24.248 217.657 24.952C218.297 25.624 218.649 26.568 218.713 27.784L214.873 29.8C214.937 29.576 215.001 29.352 215.065 29.128C215.129 28.872 215.161 28.552 215.161 28.168C215.161 27.72 215.001 27.304 214.681 26.92C214.361 26.504 213.929 26.296 213.385 26.296C212.937 26.296 212.489 26.408 212.041 26.632C211.593 26.856 211.161 27.144 210.745 27.496C210.329 27.816 209.929 28.168 209.545 28.552C209.193 28.936 208.873 29.272 208.585 29.56V39.736C208.585 40.792 208.889 41.496 209.497 41.848C210.105 42.168 211.017 42.424 212.233 42.616V43.192C211.145 43.128 210.057 43.08 208.969 43.048C207.913 43.016 206.841 43 205.753 43C205.017 43 204.297 43.016 203.593 43.048C202.921 43.08 202.217 43.128 201.481 43.192V42.616ZM239.674 29.224C239.802 28.744 239.866 28.216 239.866 27.64C239.866 27.288 239.706 27.032 239.386 26.872C239.066 26.68 238.682 26.584 238.234 26.584C237.978 26.584 237.674 26.664 237.322 26.824C236.97 26.984 236.698 27.112 236.506 27.208C236.762 27.88 236.954 28.52 237.082 29.128C237.242 29.736 237.322 30.408 237.322 31.144C237.322 32.008 237.162 32.808 236.842 33.544C236.522 34.28 236.058 34.936 235.45 35.512C234.842 36.056 234.074 36.488 233.146 36.808C232.218 37.128 231.162 37.288 229.978 37.288C228.378 37.288 226.906 36.904 225.562 36.136C225.018 36.456 224.49 36.84 223.978 37.288C223.498 37.704 223.258 38.28 223.258 39.016C223.258 39.752 223.514 40.248 224.026 40.504C224.57 40.76 225.562 40.888 227.002 40.888C227.322 40.888 227.706 40.872 228.154 40.84C228.634 40.808 229.13 40.776 229.642 40.744C230.154 40.712 230.666 40.68 231.178 40.648C231.69 40.616 232.17 40.6 232.618 40.6C233.706 40.6 234.714 40.696 235.642 40.888C236.57 41.048 237.354 41.352 237.994 41.8C238.634 42.248 239.13 42.872 239.482 43.672C239.866 44.472 240.058 45.496 240.058 46.744C240.058 48.248 239.706 49.512 239.002 50.536C238.33 51.592 237.45 52.44 236.362 53.08C235.306 53.752 234.122 54.232 232.81 54.52C231.498 54.84 230.202 55 228.922 55C227.93 55 226.906 54.888 225.85 54.664C224.794 54.44 223.834 54.072 222.97 53.56C222.106 53.08 221.386 52.424 220.81 51.592C220.266 50.76 219.994 49.736 219.994 48.52C219.994 47.592 220.186 46.728 220.57 45.928C220.986 45.128 221.53 44.408 222.202 43.768C221.242 43.032 220.762 41.992 220.762 40.648C220.762 39.368 221.098 38.296 221.77 37.432C222.474 36.536 223.386 35.848 224.506 35.368C223.866 34.92 223.386 34.312 223.066 33.544C222.778 32.776 222.634 31.928 222.634 31C222.634 30.072 222.794 29.224 223.114 28.456C223.466 27.656 223.946 26.968 224.554 26.392C225.162 25.816 225.882 25.368 226.714 25.048C227.578 24.728 228.522 24.568 229.546 24.568C230.666 24.568 231.738 24.696 232.762 24.952C233.786 25.176 234.746 25.64 235.642 26.344C236.378 25.992 237.114 25.64 237.85 25.288C238.618 24.936 239.418 24.76 240.25 24.76C240.826 24.76 241.322 24.952 241.738 25.336C242.154 25.72 242.362 26.072 242.362 26.392V27.544C242.362 27.864 242.33 28.12 242.266 28.312L239.674 29.224ZM230.218 52.024C230.89 52.024 231.69 51.96 232.618 51.832C233.578 51.736 234.474 51.528 235.306 51.208C236.17 50.888 236.906 50.44 237.514 49.864C238.122 49.288 238.426 48.536 238.426 47.608C238.426 46.232 237.882 45.272 236.794 44.728C235.706 44.216 234.106 43.96 231.994 43.96C229.658 43.96 227.834 43.976 226.522 44.008C225.21 44.072 224.106 44.104 223.21 44.104C222.954 44.52 222.762 45 222.634 45.544C222.538 46.12 222.49 46.68 222.49 47.224C222.49 48.152 222.746 48.92 223.258 49.528C223.802 50.136 224.458 50.616 225.226 50.968C226.026 51.352 226.874 51.624 227.77 51.784C228.666 51.944 229.482 52.024 230.218 52.024ZM226.186 30.904C226.186 31.576 226.266 32.216 226.426 32.824C226.586 33.432 226.81 33.976 227.098 34.456C227.418 34.936 227.818 35.32 228.298 35.608C228.778 35.896 229.338 36.04 229.978 36.04C230.618 36.04 231.178 35.896 231.658 35.608C232.138 35.32 232.522 34.936 232.81 34.456C233.13 33.976 233.37 33.432 233.53 32.824C233.69 32.216 233.77 31.576 233.77 30.904C233.77 30.232 233.69 29.592 233.53 28.984C233.37 28.376 233.13 27.848 232.81 27.4C232.522 26.92 232.138 26.536 231.658 26.248C231.178 25.96 230.618 25.816 229.978 25.816C229.338 25.816 228.778 25.96 228.298 26.248C227.818 26.536 227.418 26.92 227.098 27.4C226.81 27.848 226.586 28.376 226.426 28.984C226.266 29.592 226.186 30.232 226.186 30.904ZM255.178 24.568C256.714 24.568 258.106 24.808 259.354 25.288C260.634 25.736 261.722 26.376 262.618 27.208C263.546 28.04 264.25 29.048 264.73 30.232C265.242 31.416 265.498 32.728 265.498 34.168C265.498 35.608 265.242 36.92 264.73 38.104C264.25 39.288 263.546 40.296 262.618 41.128C261.722 41.96 260.634 42.6 259.354 43.048C258.106 43.528 256.714 43.768 255.178 43.768C253.642 43.768 252.234 43.528 250.954 43.048C249.706 42.6 248.618 41.96 247.69 41.128C246.794 40.296 246.09 39.288 245.578 38.104C245.098 36.92 244.858 35.608 244.858 34.168C244.858 32.728 245.098 31.416 245.578 30.232C246.09 29.048 246.794 28.04 247.69 27.208C248.618 26.376 249.706 25.736 250.954 25.288C252.234 24.808 253.642 24.568 255.178 24.568ZM254.314 26.008C253.418 26.008 252.634 26.232 251.962 26.68C251.322 27.128 250.778 27.72 250.33 28.456C249.914 29.16 249.594 29.976 249.37 30.904C249.178 31.8 249.082 32.696 249.082 33.592C249.082 34.616 249.21 35.64 249.466 36.664C249.754 37.688 250.186 38.632 250.762 39.496C251.338 40.328 252.058 41.016 252.922 41.56C253.786 42.072 254.826 42.328 256.042 42.328C256.938 42.328 257.706 42.104 258.346 41.656C259.018 41.208 259.562 40.632 259.978 39.928C260.426 39.192 260.746 38.376 260.938 37.48C261.162 36.584 261.274 35.672 261.274 34.744C261.274 33.752 261.13 32.744 260.842 31.72C260.554 30.664 260.122 29.72 259.546 28.888C258.97 28.024 258.25 27.336 257.386 26.824C256.522 26.28 255.498 26.008 254.314 26.008ZM269.098 36.904H269.77C270.218 37.576 270.714 38.232 271.258 38.872C271.834 39.512 272.458 40.088 273.13 40.6C273.802 41.112 274.522 41.528 275.29 41.848C276.058 42.168 276.874 42.328 277.738 42.328C278.154 42.328 278.57 42.296 278.986 42.232C279.434 42.136 279.834 41.992 280.186 41.8C280.538 41.608 280.826 41.352 281.05 41.032C281.274 40.712 281.386 40.312 281.386 39.832C281.386 39.032 281.082 38.376 280.474 37.864C279.898 37.352 279.178 36.904 278.314 36.52C277.45 36.136 276.49 35.784 275.434 35.464C274.41 35.112 273.466 34.712 272.602 34.264C271.738 33.784 271.002 33.208 270.394 32.536C269.818 31.864 269.53 31 269.53 29.944C269.53 28.216 270.058 26.888 271.114 25.96C272.202 25.032 273.562 24.568 275.194 24.568C276.41 24.568 277.578 24.728 278.698 25.048C279.85 25.368 281.034 25.56 282.25 25.624L282.538 30.712H281.914C281.594 30.104 281.194 29.528 280.714 28.984C280.234 28.408 279.69 27.912 279.082 27.496C278.506 27.048 277.882 26.696 277.21 26.44C276.538 26.152 275.85 26.008 275.146 26.008C274.346 26.008 273.626 26.184 272.986 26.536C272.346 26.888 272.026 27.528 272.026 28.456C272.026 29.128 272.314 29.688 272.89 30.136C273.498 30.552 274.234 30.952 275.098 31.336C275.962 31.688 276.906 32.04 277.93 32.392C278.986 32.744 279.946 33.176 280.81 33.688C281.674 34.168 282.394 34.776 282.97 35.512C283.578 36.216 283.882 37.096 283.882 38.152C283.882 39.272 283.69 40.2 283.306 40.936C282.954 41.64 282.458 42.2 281.818 42.616C281.178 43.032 280.426 43.32 279.562 43.48C278.73 43.672 277.834 43.768 276.874 43.768C276.106 43.768 275.37 43.704 274.666 43.576C273.962 43.48 273.29 43.352 272.65 43.192C272.042 43.032 271.466 42.888 270.922 42.76C270.378 42.632 269.898 42.536 269.482 42.472L269.098 36.904Z" fill="#26619C"/>
</svg>
