<svg width="322" height="198" viewBox="0 0 322 198" fill="none" xmlns="http://www.w3.org/2000/svg">
<path d="M161.128 134.001C147.397 134.006 127.275 124.501 127.275 124.501C125.694 134.112 128.547 143.94 133.518 153.001C133.518 153.001 150.051 159.504 161.128 159.501C172.189 159.497 188.695 153.001 188.695 153.001C193.655 143.94 196.502 134.111 194.927 124.501C194.927 124.501 174.839 133.995 161.128 134.001Z" fill="#26619C"/>
<path d="M193.473 80.9213C193.502 80.3656 193.516 79.8056 193.516 79.2419C193.516 75.9581 193.028 72.7885 192.119 69.8018C188.078 56.5189 175.732 46.8535 161.128 46.8535C153.518 46.8535 146.477 49.3913 140.899 53.6852C135.662 57.7161 131.714 63.2944 129.794 69.7733C128.952 72.6145 128.499 75.629 128.499 78.7621C128.499 79.4876 128.523 80.2076 128.57 80.9213C128.772 83.9881 129.401 86.9383 130.398 89.7131C130.464 89.8984 130.532 90.083 130.602 90.2668C132.529 95.335 135.691 99.7944 139.72 103.277C145.397 108.183 152.796 111.151 160.888 111.151C169.124 111.151 176.694 108.178 182.464 103.224C186.487 99.7695 189.636 95.3521 191.526 90.3075C192.627 87.3694 193.301 84.2186 193.473 80.9213Z" fill="#26619C"/>
<path d="M161.128 46.8535C168.521 46.8535 175.336 49.3308 180.788 53.5006C183.011 44.971 183.942 31.2624 172.463 30.1084C169.52 29.8125 165.798 40.7774 161.128 42.5006C156.891 40.9372 153.434 29.9177 150.63 30.0267C138.291 30.5066 138.623 44.9528 140.899 53.6852C146.477 49.3913 153.518 46.8535 161.128 46.8535Z" fill="#26619C"/>
<path d="M128.499 78.7621C128.499 75.629 128.952 72.6145 129.794 69.7733C124.551 67.7256 113.345 63.8947 100.669 57.8895C86.2846 51.0743 69.2933 42.3618 53.8861 37.2569C32.9946 30.3348 15.085 29.4192 11.1813 43.0148C10.1417 46.9334 13.1486 57.6016 31.574 67.0063C32.0539 77.8024 42.2742 97.1395 79.317 88.1187C82.4593 87.4928 86.6583 86.6945 91.34 85.8587C92.9231 85.576 94.5616 85.289 96.2329 85.003C107.933 83.0008 121.25 81.0439 128.57 80.9213C128.523 80.2076 128.499 79.4876 128.499 78.7621Z" fill="#26619C"/>
<path d="M91.34 85.8587C77.265 88.7376 49.2797 96.7077 51.9668 105.153C55.3256 115.709 76.6779 122.426 93.472 114.029C106.907 106.592 114.239 92.2763 130.602 90.2668C130.532 90.083 130.464 89.8984 130.398 89.7131C129.401 86.9383 128.772 83.9881 128.57 80.9213C121.25 81.0439 107.933 83.0008 96.2329 85.003C94.5616 85.289 92.9231 85.576 91.34 85.8587Z" fill="#26619C"/>
<path d="M193.473 80.9213C193.301 84.2186 192.627 87.3694 191.526 90.3075C207.89 92.3171 215.093 106.592 228.529 114.029C245.323 122.426 266.675 115.709 270.034 105.153C272.721 96.7077 245.196 88.8186 231.121 85.9397C218.403 83.6584 201.939 81.0631 193.473 80.9213Z" fill="#26619C"/>
<path d="M193.516 79.2419C193.516 79.8056 193.502 80.3656 193.473 80.9213C201.939 81.0631 218.403 83.6584 231.121 85.9397C231.313 85.9741 231.504 86.0084 231.694 86.0427C235.958 86.8112 239.773 87.5389 242.683 88.1187C279.726 97.1395 289.947 77.8024 290.426 67.0063C308.852 57.6016 311.859 46.9334 310.819 43.0148C306.915 29.4192 289.006 30.3348 268.114 37.2569C252.707 42.3618 235.716 51.0743 221.331 57.8895C208.656 63.8947 197.362 67.7542 192.119 69.8018C193.028 72.7885 193.516 75.9581 193.516 79.2419Z" fill="#26619C"/>
<path d="M182.464 103.224C176.694 108.178 169.124 111.151 160.888 111.151C152.796 111.151 145.397 108.183 139.72 103.277C132.288 109.93 128.485 117.151 127.275 124.501C127.275 124.501 147.397 134.006 161.128 134.001C174.839 133.995 194.927 124.501 194.927 124.501C193.719 117.131 189.912 109.89 182.464 103.224Z" fill="#26619C"/>
<path d="M133.518 153.001C140.646 165.993 152.129 177.405 161.128 184.324C170.122 177.409 181.582 165.996 188.695 153.001C188.695 153.001 172.189 159.497 161.128 159.501C150.051 159.504 133.518 153.001 133.518 153.001Z" fill="#26619C"/>
<path d="M161.128 134.001C147.397 134.006 127.275 124.501 127.275 124.501C125.694 134.112 128.547 143.94 133.518 153.001C133.518 153.001 150.051 159.504 161.128 159.501C172.189 159.497 188.695 153.001 188.695 153.001C193.655 143.94 196.502 134.111 194.927 124.501C194.927 124.501 174.839 133.995 161.128 134.001Z" fill="#26619C"/>
<path d="M193.473 80.9213C193.502 80.3656 193.516 79.8056 193.516 79.2419C193.516 75.9581 193.028 72.7885 192.119 69.8018C188.078 56.5189 175.732 46.8535 161.128 46.8535C153.518 46.8535 146.477 49.3913 140.899 53.6852C135.662 57.7161 131.714 63.2944 129.794 69.7733C128.952 72.6145 128.499 75.629 128.499 78.7621C128.499 79.4876 128.523 80.2076 128.57 80.9213C128.772 83.9881 129.401 86.9383 130.398 89.7131C130.464 89.8984 130.532 90.083 130.602 90.2668C132.529 95.335 135.691 99.7944 139.72 103.277C145.397 108.183 152.796 111.151 160.888 111.151C169.124 111.151 176.694 108.178 182.464 103.224C186.487 99.7695 189.636 95.3521 191.526 90.3075C192.627 87.3694 193.301 84.2186 193.473 80.9213Z" fill="#26619C"/>
<path d="M161.128 46.8535C168.521 46.8535 175.336 49.3308 180.788 53.5006C183.011 44.971 183.942 31.2624 172.463 30.1084C169.52 29.8125 165.798 40.7774 161.128 42.5006C156.891 40.9372 153.434 29.9177 150.63 30.0267C138.291 30.5066 138.623 44.9528 140.899 53.6852C146.477 49.3913 153.518 46.8535 161.128 46.8535Z" fill="#26619C"/>
<path d="M128.499 78.7621C128.499 75.629 128.952 72.6145 129.794 69.7733C124.551 67.7256 113.345 63.8947 100.669 57.8895C86.2846 51.0743 69.2933 42.3618 53.8861 37.2569C32.9946 30.3348 15.085 29.4192 11.1813 43.0148C10.1417 46.9334 13.1486 57.6016 31.574 67.0063C32.0539 77.8024 42.2742 97.1395 79.317 88.1187C82.4593 87.4928 86.6583 86.6945 91.34 85.8587C92.9231 85.576 94.5616 85.289 96.2329 85.003C107.933 83.0008 121.25 81.0439 128.57 80.9213C128.523 80.2076 128.499 79.4876 128.499 78.7621Z" fill="#26619C"/>
<path d="M91.34 85.8587C77.265 88.7376 49.2797 96.7077 51.9668 105.153C55.3256 115.709 76.6779 122.426 93.472 114.029C106.907 106.592 114.239 92.2763 130.602 90.2668C130.532 90.083 130.464 89.8984 130.398 89.7131C129.401 86.9383 128.772 83.9881 128.57 80.9213C121.25 81.0439 107.933 83.0008 96.2329 85.003C94.5616 85.289 92.9231 85.576 91.34 85.8587Z" fill="#26619C"/>
<path d="M193.473 80.9213C193.301 84.2186 192.627 87.3694 191.526 90.3075C207.89 92.3171 215.093 106.592 228.529 114.029C245.323 122.426 266.675 115.709 270.034 105.153C272.721 96.7077 245.196 88.8186 231.121 85.9397C218.403 83.6584 201.939 81.0631 193.473 80.9213Z" fill="#26619C"/>
<path d="M193.516 79.2419C193.516 79.8056 193.502 80.3656 193.473 80.9213C201.939 81.0631 218.403 83.6584 231.121 85.9397C231.313 85.9741 231.504 86.0084 231.694 86.0427C235.958 86.8112 239.773 87.5389 242.683 88.1187C279.726 97.1395 289.947 77.8024 290.426 67.0063C308.852 57.6016 311.859 46.9334 310.819 43.0148C306.915 29.4192 289.006 30.3348 268.114 37.2569C252.707 42.3618 235.716 51.0743 221.331 57.8895C208.656 63.8947 197.362 67.7542 192.119 69.8018C193.028 72.7885 193.516 75.9581 193.516 79.2419Z" fill="#26619C"/>
<path d="M182.464 103.224C176.694 108.178 169.124 111.151 160.888 111.151C152.796 111.151 145.397 108.183 139.72 103.277C132.288 109.93 128.485 117.151 127.275 124.501C127.275 124.501 147.397 134.006 161.128 134.001C174.839 133.995 194.927 124.501 194.927 124.501C193.719 117.131 189.912 109.89 182.464 103.224Z" fill="#26619C"/>
<path d="M133.518 153.001C140.646 165.993 152.129 177.405 161.128 184.324C170.122 177.409 181.582 165.996 188.695 153.001C188.695 153.001 172.189 159.497 161.128 159.501C150.051 159.504 133.518 153.001 133.518 153.001Z" fill="#26619C"/>
<mask id="path-3-outside-1_23_24" maskUnits="userSpaceOnUse" x="-0.501709" y="-1" width="323" height="199" fill="black">
<rect fill="white" x="-0.501709" y="-1" width="323" height="199"/>
<path fill-rule="evenodd" clip-rule="evenodd" d="M206.381 9.9059C206.709 11.8108 205.431 13.6213 203.526 13.9497C198.327 14.8462 195.167 16.2792 193.346 17.5157C192.556 18.0519 191.993 18.8651 191.44 19.6654C190.719 20.7069 190.014 21.7267 188.842 22.0857C183.259 23.7968 179.948 25.8553 178.081 27.539C177.937 27.669 177.803 27.7957 177.677 27.9188C179.129 28.5976 180.394 29.5151 181.464 30.6482C183.541 32.8489 184.649 35.6136 185.196 38.3546C186.104 42.9095 185.581 48.009 184.696 52.1766C188.781 55.7376 192.053 60.2084 194.195 65.2727L195.111 64.9313C201.108 62.6963 210.019 59.376 219.832 54.7265C222.429 53.4963 225.128 52.1951 227.901 50.8582C240.311 44.8758 254.202 38.1793 267.013 33.9345C277.598 30.4274 287.834 28.2912 296.116 28.9529C300.292 29.2865 304.187 30.3472 307.391 32.5018C310.66 34.7008 312.99 37.8953 314.183 42.0489L314.193 42.083L314.202 42.1173C315.074 45.4032 314.073 50.0971 310.823 54.9117C307.696 59.5428 302.334 64.5635 293.738 69.2188C292.936 75.2338 289.687 82.6876 282.269 87.8641C277.962 90.8695 272.426 92.9872 265.447 93.6917C266.868 94.5104 268.164 95.3729 269.276 96.2785C271.924 98.4346 274.743 101.896 273.369 106.214C271.14 113.218 263.474 118.033 255.162 120.096C246.61 122.217 236.205 121.781 226.963 117.16L226.897 117.127L226.833 117.092C221.369 114.067 216.76 109.896 212.577 106.111C211.297 104.952 210.057 103.83 208.844 102.787C204.154 98.7561 199.546 95.5472 193.664 94.2249C192.088 97.5495 190.004 100.579 187.517 103.227C193.759 109.672 197.193 116.687 198.381 123.935C200.127 134.596 196.936 145.235 191.765 154.681C184.351 168.226 172.51 179.988 163.261 187.099L161.128 188.739L158.994 187.099C149.743 179.986 137.879 168.226 130.449 154.684C125.267 145.238 122.066 134.597 123.821 123.932C125.011 116.702 128.443 109.705 134.673 103.273C132.169 100.596 130.069 97.5332 128.473 94.1823C122.578 95.5055 117.939 98.726 113.215 102.771C111.989 103.821 110.735 104.952 109.441 106.119C105.241 109.906 100.62 114.073 95.1669 117.092L95.1026 117.127L95.037 117.16C85.7954 121.781 75.3896 122.217 66.8382 120.096C58.5257 118.033 50.86 113.218 48.6313 106.214C47.2472 101.864 50.146 98.3935 52.8144 96.2509C53.925 95.3593 55.2148 94.5084 56.6287 93.6993C49.6136 93.0024 44.0534 90.8803 39.7312 87.8641C32.3135 82.6876 29.0637 75.2338 28.2616 69.2188C19.666 64.5635 14.3039 59.5428 11.1773 54.9117C7.92678 50.097 6.92636 45.4032 7.79813 42.1173L7.80723 42.083L7.81703 42.0489C9.00965 37.8953 11.3397 34.7008 14.6095 32.5018C17.8132 30.3472 21.7083 29.2865 25.8844 28.9529C34.1665 28.2912 44.402 30.4274 54.9867 33.9345C67.7981 38.1793 81.6892 44.8759 94.0988 50.8582C96.872 52.1951 99.5711 53.4963 102.168 54.7265C111.991 59.3804 120.856 62.6855 126.83 64.9129L127.7 65.2374C129.79 60.2499 132.998 55.8665 137 52.3603C136.113 48.0039 135.721 42.6443 136.885 37.923C137.582 35.0995 138.889 32.2934 141.195 30.1398C142.344 29.0671 143.675 28.2178 145.179 27.6117C145.125 27.5608 145.069 27.5093 145.011 27.4573C143.145 25.7736 139.834 23.7151 134.25 22.0041C133.087 21.6477 132.377 20.6589 131.647 19.6447C131.077 18.8517 130.496 18.0432 129.679 17.5093C127.78 16.2689 124.539 14.8483 119.327 13.9497C117.422 13.6213 116.144 11.8108 116.472 9.9059C116.8 8.001 118.611 6.72303 120.516 7.05146C126.436 8.0721 130.632 9.77042 133.507 11.6489C135.404 12.8882 136.881 14.3154 137.794 15.7913C143.301 17.6499 147.13 19.9416 149.7 22.2594C150.955 23.3914 151.962 24.5823 152.698 25.7713C159.505 24.1346 166.07 24.8108 170.402 25.842C171.137 24.6566 172.142 23.4696 173.393 22.3411C175.959 20.0266 179.781 17.738 185.276 15.8808C186.14 14.4346 187.539 12.9973 189.414 11.7242C192.247 9.80101 196.404 8.0743 202.337 7.05146C204.242 6.72303 206.052 8.001 206.381 9.9059ZM161.128 50.3534C154.304 50.3534 148.011 52.627 143.033 56.4587C138.358 60.0572 134.852 65.0224 133.149 70.7679C132.402 73.2882 131.999 75.9677 131.999 78.7621C131.999 79.4109 132.021 80.0542 132.063 80.6914C132.243 83.4285 132.803 86.0581 133.691 88.5298L133.702 88.5608C133.758 88.7156 133.815 88.8697 133.874 89.0233C133.923 89.152 133.972 89.2803 134.023 89.4082C135.752 93.7661 138.513 97.6079 142.009 100.629C147.074 105.006 153.668 107.651 160.888 107.651C168.272 107.651 175.036 104.988 180.184 100.568C183.773 97.4862 186.571 93.5548 188.248 89.0794C189.225 86.4731 189.824 83.6749 189.977 80.7394C190.003 80.2443 190.016 79.745 190.016 79.2419C190.016 76.3071 189.58 73.4806 188.77 70.8205C186.995 64.9845 183.422 59.9328 178.697 56.3083L178.661 56.2806C173.798 52.562 167.719 50.3534 161.128 50.3534ZM139.936 107.903C135.278 112.636 132.576 117.545 131.285 122.458C131.51 122.555 131.749 122.657 132 122.764C134.051 123.633 136.926 124.793 140.215 125.951C146.903 128.306 154.891 130.503 161.126 130.501C167.352 130.498 175.328 128.301 182.005 125.948C185.289 124.79 188.159 123.631 190.206 122.762C190.457 122.656 190.695 122.554 190.919 122.457C189.628 117.523 186.919 112.593 182.241 107.843C176.234 112.141 168.834 114.651 160.888 114.651C153.07 114.651 145.831 112.148 139.936 107.903ZM191.86 129.66C189.831 130.502 187.239 131.525 184.332 132.549C177.538 134.944 168.614 137.497 161.129 137.501C153.633 137.504 144.695 134.95 137.89 132.554C134.973 131.527 132.373 130.501 130.339 129.658C130.283 136.435 132.426 143.406 135.982 150.19C136.381 150.337 136.872 150.516 137.442 150.717C139.121 151.311 141.472 152.104 144.158 152.895C149.622 154.504 156.119 156.002 161.126 156.001C166.126 155.999 172.613 154.501 178.069 152.892C180.75 152.101 183.099 151.31 184.775 150.716C185.342 150.516 185.831 150.338 186.229 150.191C189.776 143.409 191.914 136.438 191.86 129.66ZM180.445 159.489L180.275 159.539L180.049 159.606C174.487 161.246 167.19 162.998 161.129 163.001C155.059 163.003 147.751 161.251 142.18 159.609C142.113 159.59 142.045 159.57 141.979 159.55C141.913 159.53 141.847 159.511 141.781 159.491C147.629 167.599 154.819 174.72 161.127 179.86C167.43 174.722 174.608 167.6 180.445 159.489ZM126.085 87.5561C125.838 86.5736 125.631 85.5751 125.466 84.5627C118.108 85.0562 106.977 86.7151 96.8231 88.4529C95.1752 88.7349 93.5597 89.0177 91.9982 89.2964C85.0753 90.7148 74.8125 93.3712 66.6806 96.6627C62.5685 98.3271 59.2603 100.053 57.197 101.709C56.1669 102.536 55.6425 103.193 55.416 103.63C55.2485 103.952 55.2858 104.049 55.2992 104.084L55.3018 104.091C56.4319 107.643 61.1218 111.465 68.5237 113.302C75.666 115.073 84.304 114.678 91.8411 110.932C96.497 108.342 100.266 104.948 104.31 101.307C105.711 100.045 107.146 98.7527 108.662 97.4544C113.507 93.3055 118.952 89.3603 126.085 87.5561ZM125.019 77.5781C125.082 75.6573 125.299 73.777 125.659 71.9483L125.12 71.7473L124.533 71.5284C118.581 69.3105 109.307 65.8547 99.1706 61.0525C96.4744 59.775 93.7047 58.4404 90.8851 57.0817C78.4856 51.1067 65.1202 44.6663 52.7851 40.5792C42.4783 37.1643 33.3133 35.3817 26.4418 35.9306C23.0411 36.2023 20.4211 37.0292 18.5159 38.3104C16.6872 39.5402 15.3198 41.3165 14.558 43.9364C14.3962 44.6087 14.4112 47.1916 16.9789 50.9949C19.4985 54.7269 24.3482 59.3886 33.165 63.8889L34.9799 64.8152L35.0704 66.8508C35.2708 71.3603 37.5367 77.7967 43.7372 82.1236C49.887 86.4153 60.567 89.0825 78.4887 84.7181L78.5605 84.7006L78.6331 84.6862C81.7981 84.0557 86.0199 83.2531 90.7246 82.4131L90.7767 82.4038C92.3519 82.1227 93.981 81.8375 95.6423 81.5532C105.682 79.835 117.153 78.1058 125.019 77.5781ZM196.019 87.5907C203.157 89.3904 208.582 93.332 213.407 97.4788C214.907 98.7686 216.327 100.052 217.715 101.306C221.743 104.946 225.498 108.34 230.159 110.932C237.696 114.678 246.334 115.073 253.476 113.302C260.878 111.465 265.568 107.643 266.698 104.091L266.701 104.083C266.718 104.032 266.754 103.929 266.59 103.606C266.371 103.175 265.863 102.526 264.857 101.707C262.839 100.065 259.593 98.3527 255.541 96.6996C247.527 93.4307 237.382 90.7952 230.461 89.3772C229.044 89.1232 227.586 88.8662 226.102 88.6099C215.791 86.8292 204.221 85.0785 196.616 84.5653C196.461 85.5894 196.261 86.5985 196.019 87.5907ZM196.978 77.5753C206.245 78.1935 220.578 80.4927 231.738 82.4947L231.75 82.4967L232.314 82.5982C236.598 83.3702 240.434 84.1019 243.367 84.6862L243.44 84.7006L243.511 84.7181C261.433 89.0825 272.113 86.4153 278.263 82.1236C284.463 77.7967 286.729 71.3603 286.93 66.8508L287.02 64.8152L288.835 63.8889C297.652 59.3886 302.502 54.727 305.021 50.9949C307.589 47.1915 307.604 44.6085 307.442 43.9363C306.68 41.3165 305.313 39.5402 303.484 38.3104C301.579 37.0292 298.959 36.2023 295.558 35.9306C288.687 35.3817 279.522 37.1643 269.215 40.5792C256.88 44.6663 243.515 51.1067 231.115 57.0817C228.295 58.4404 225.526 59.775 222.829 61.0525C212.702 65.8507 203.379 69.3231 197.404 71.5486C197.014 71.6937 196.638 71.8335 196.278 71.9681C196.653 73.7919 196.891 75.6649 196.978 77.5753ZM178.331 39.7227C178.813 42.1409 178.743 44.9788 178.366 47.757C174.506 45.6388 170.214 44.2099 165.654 43.6362C166.083 39.8996 168.146 32.6838 172.969 33.7132C174.593 34.0196 175.641 34.6777 176.373 35.4534C177.28 36.4141 177.953 37.8261 178.331 39.7227ZM143.37 47.895C147.41 45.6686 151.924 44.1846 156.709 43.6148C155.898 39.9709 154.998 32.5 149.887 33.5916C147.765 34.0448 146.824 34.4605 145.973 35.2558C144.942 36.2188 144.16 37.6599 143.682 39.5996C143.068 42.086 143.043 45.035 143.37 47.895Z"/>
</mask>
<path fill-rule="evenodd" clip-rule="evenodd" d="M206.381 9.9059C206.709 11.8108 205.431 13.6213 203.526 13.9497C198.327 14.8462 195.167 16.2792 193.346 17.5157C192.556 18.0519 191.993 18.8651 191.44 19.6654C190.719 20.7069 190.014 21.7267 188.842 22.0857C183.259 23.7968 179.948 25.8553 178.081 27.539C177.937 27.669 177.803 27.7957 177.677 27.9188C179.129 28.5976 180.394 29.5151 181.464 30.6482C183.541 32.8489 184.649 35.6136 185.196 38.3546C186.104 42.9095 185.581 48.009 184.696 52.1766C188.781 55.7376 192.053 60.2084 194.195 65.2727L195.111 64.9313C201.108 62.6963 210.019 59.376 219.832 54.7265C222.429 53.4963 225.128 52.1951 227.901 50.8582C240.311 44.8758 254.202 38.1793 267.013 33.9345C277.598 30.4274 287.834 28.2912 296.116 28.9529C300.292 29.2865 304.187 30.3472 307.391 32.5018C310.66 34.7008 312.99 37.8953 314.183 42.0489L314.193 42.083L314.202 42.1173C315.074 45.4032 314.073 50.0971 310.823 54.9117C307.696 59.5428 302.334 64.5635 293.738 69.2188C292.936 75.2338 289.687 82.6876 282.269 87.8641C277.962 90.8695 272.426 92.9872 265.447 93.6917C266.868 94.5104 268.164 95.3729 269.276 96.2785C271.924 98.4346 274.743 101.896 273.369 106.214C271.14 113.218 263.474 118.033 255.162 120.096C246.61 122.217 236.205 121.781 226.963 117.16L226.897 117.127L226.833 117.092C221.369 114.067 216.76 109.896 212.577 106.111C211.297 104.952 210.057 103.83 208.844 102.787C204.154 98.7561 199.546 95.5472 193.664 94.2249C192.088 97.5495 190.004 100.579 187.517 103.227C193.759 109.672 197.193 116.687 198.381 123.935C200.127 134.596 196.936 145.235 191.765 154.681C184.351 168.226 172.51 179.988 163.261 187.099L161.128 188.739L158.994 187.099C149.743 179.986 137.879 168.226 130.449 154.684C125.267 145.238 122.066 134.597 123.821 123.932C125.011 116.702 128.443 109.705 134.673 103.273C132.169 100.596 130.069 97.5332 128.473 94.1823C122.578 95.5055 117.939 98.726 113.215 102.771C111.989 103.821 110.735 104.952 109.441 106.119C105.241 109.906 100.62 114.073 95.1669 117.092L95.1026 117.127L95.037 117.16C85.7954 121.781 75.3896 122.217 66.8382 120.096C58.5257 118.033 50.86 113.218 48.6313 106.214C47.2472 101.864 50.146 98.3935 52.8144 96.2509C53.925 95.3593 55.2148 94.5084 56.6287 93.6993C49.6136 93.0024 44.0534 90.8803 39.7312 87.8641C32.3135 82.6876 29.0637 75.2338 28.2616 69.2188C19.666 64.5635 14.3039 59.5428 11.1773 54.9117C7.92678 50.097 6.92636 45.4032 7.79813 42.1173L7.80723 42.083L7.81703 42.0489C9.00965 37.8953 11.3397 34.7008 14.6095 32.5018C17.8132 30.3472 21.7083 29.2865 25.8844 28.9529C34.1665 28.2912 44.402 30.4274 54.9867 33.9345C67.7981 38.1793 81.6892 44.8759 94.0988 50.8582C96.872 52.1951 99.5711 53.4963 102.168 54.7265C111.991 59.3804 120.856 62.6855 126.83 64.9129L127.7 65.2374C129.79 60.2499 132.998 55.8665 137 52.3603C136.113 48.0039 135.721 42.6443 136.885 37.923C137.582 35.0995 138.889 32.2934 141.195 30.1398C142.344 29.0671 143.675 28.2178 145.179 27.6117C145.125 27.5608 145.069 27.5093 145.011 27.4573C143.145 25.7736 139.834 23.7151 134.25 22.0041C133.087 21.6477 132.377 20.6589 131.647 19.6447C131.077 18.8517 130.496 18.0432 129.679 17.5093C127.78 16.2689 124.539 14.8483 119.327 13.9497C117.422 13.6213 116.144 11.8108 116.472 9.9059C116.8 8.001 118.611 6.72303 120.516 7.05146C126.436 8.0721 130.632 9.77042 133.507 11.6489C135.404 12.8882 136.881 14.3154 137.794 15.7913C143.301 17.6499 147.13 19.9416 149.7 22.2594C150.955 23.3914 151.962 24.5823 152.698 25.7713C159.505 24.1346 166.07 24.8108 170.402 25.842C171.137 24.6566 172.142 23.4696 173.393 22.3411C175.959 20.0266 179.781 17.738 185.276 15.8808C186.14 14.4346 187.539 12.9973 189.414 11.7242C192.247 9.80101 196.404 8.0743 202.337 7.05146C204.242 6.72303 206.052 8.001 206.381 9.9059ZM161.128 50.3534C154.304 50.3534 148.011 52.627 143.033 56.4587C138.358 60.0572 134.852 65.0224 133.149 70.7679C132.402 73.2882 131.999 75.9677 131.999 78.7621C131.999 79.4109 132.021 80.0542 132.063 80.6914C132.243 83.4285 132.803 86.0581 133.691 88.5298L133.702 88.5608C133.758 88.7156 133.815 88.8697 133.874 89.0233C133.923 89.152 133.972 89.2803 134.023 89.4082C135.752 93.7661 138.513 97.6079 142.009 100.629C147.074 105.006 153.668 107.651 160.888 107.651C168.272 107.651 175.036 104.988 180.184 100.568C183.773 97.4862 186.571 93.5548 188.248 89.0794C189.225 86.4731 189.824 83.6749 189.977 80.7394C190.003 80.2443 190.016 79.745 190.016 79.2419C190.016 76.3071 189.58 73.4806 188.77 70.8205C186.995 64.9845 183.422 59.9328 178.697 56.3083L178.661 56.2806C173.798 52.562 167.719 50.3534 161.128 50.3534ZM139.936 107.903C135.278 112.636 132.576 117.545 131.285 122.458C131.51 122.555 131.749 122.657 132 122.764C134.051 123.633 136.926 124.793 140.215 125.951C146.903 128.306 154.891 130.503 161.126 130.501C167.352 130.498 175.328 128.301 182.005 125.948C185.289 124.79 188.159 123.631 190.206 122.762C190.457 122.656 190.695 122.554 190.919 122.457C189.628 117.523 186.919 112.593 182.241 107.843C176.234 112.141 168.834 114.651 160.888 114.651C153.07 114.651 145.831 112.148 139.936 107.903ZM191.86 129.66C189.831 130.502 187.239 131.525 184.332 132.549C177.538 134.944 168.614 137.497 161.129 137.501C153.633 137.504 144.695 134.95 137.89 132.554C134.973 131.527 132.373 130.501 130.339 129.658C130.283 136.435 132.426 143.406 135.982 150.19C136.381 150.337 136.872 150.516 137.442 150.717C139.121 151.311 141.472 152.104 144.158 152.895C149.622 154.504 156.119 156.002 161.126 156.001C166.126 155.999 172.613 154.501 178.069 152.892C180.75 152.101 183.099 151.31 184.775 150.716C185.342 150.516 185.831 150.338 186.229 150.191C189.776 143.409 191.914 136.438 191.86 129.66ZM180.445 159.489L180.275 159.539L180.049 159.606C174.487 161.246 167.19 162.998 161.129 163.001C155.059 163.003 147.751 161.251 142.18 159.609C142.113 159.59 142.045 159.57 141.979 159.55C141.913 159.53 141.847 159.511 141.781 159.491C147.629 167.599 154.819 174.72 161.127 179.86C167.43 174.722 174.608 167.6 180.445 159.489ZM126.085 87.5561C125.838 86.5736 125.631 85.5751 125.466 84.5627C118.108 85.0562 106.977 86.7151 96.8231 88.4529C95.1752 88.7349 93.5597 89.0177 91.9982 89.2964C85.0753 90.7148 74.8125 93.3712 66.6806 96.6627C62.5685 98.3271 59.2603 100.053 57.197 101.709C56.1669 102.536 55.6425 103.193 55.416 103.63C55.2485 103.952 55.2858 104.049 55.2992 104.084L55.3018 104.091C56.4319 107.643 61.1218 111.465 68.5237 113.302C75.666 115.073 84.304 114.678 91.8411 110.932C96.497 108.342 100.266 104.948 104.31 101.307C105.711 100.045 107.146 98.7527 108.662 97.4544C113.507 93.3055 118.952 89.3603 126.085 87.5561ZM125.019 77.5781C125.082 75.6573 125.299 73.777 125.659 71.9483L125.12 71.7473L124.533 71.5284C118.581 69.3105 109.307 65.8547 99.1706 61.0525C96.4744 59.775 93.7047 58.4404 90.8851 57.0817C78.4856 51.1067 65.1202 44.6663 52.7851 40.5792C42.4783 37.1643 33.3133 35.3817 26.4418 35.9306C23.0411 36.2023 20.4211 37.0292 18.5159 38.3104C16.6872 39.5402 15.3198 41.3165 14.558 43.9364C14.3962 44.6087 14.4112 47.1916 16.9789 50.9949C19.4985 54.7269 24.3482 59.3886 33.165 63.8889L34.9799 64.8152L35.0704 66.8508C35.2708 71.3603 37.5367 77.7967 43.7372 82.1236C49.887 86.4153 60.567 89.0825 78.4887 84.7181L78.5605 84.7006L78.6331 84.6862C81.7981 84.0557 86.0199 83.2531 90.7246 82.4131L90.7767 82.4038C92.3519 82.1227 93.981 81.8375 95.6423 81.5532C105.682 79.835 117.153 78.1058 125.019 77.5781ZM196.019 87.5907C203.157 89.3904 208.582 93.332 213.407 97.4788C214.907 98.7686 216.327 100.052 217.715 101.306C221.743 104.946 225.498 108.34 230.159 110.932C237.696 114.678 246.334 115.073 253.476 113.302C260.878 111.465 265.568 107.643 266.698 104.091L266.701 104.083C266.718 104.032 266.754 103.929 266.59 103.606C266.371 103.175 265.863 102.526 264.857 101.707C262.839 100.065 259.593 98.3527 255.541 96.6996C247.527 93.4307 237.382 90.7952 230.461 89.3772C229.044 89.1232 227.586 88.8662 226.102 88.6099C215.791 86.8292 204.221 85.0785 196.616 84.5653C196.461 85.5894 196.261 86.5985 196.019 87.5907ZM196.978 77.5753C206.245 78.1935 220.578 80.4927 231.738 82.4947L231.75 82.4967L232.314 82.5982C236.598 83.3702 240.434 84.1019 243.367 84.6862L243.44 84.7006L243.511 84.7181C261.433 89.0825 272.113 86.4153 278.263 82.1236C284.463 77.7967 286.729 71.3603 286.93 66.8508L287.02 64.8152L288.835 63.8889C297.652 59.3886 302.502 54.727 305.021 50.9949C307.589 47.1915 307.604 44.6085 307.442 43.9363C306.68 41.3165 305.313 39.5402 303.484 38.3104C301.579 37.0292 298.959 36.2023 295.558 35.9306C288.687 35.3817 279.522 37.1643 269.215 40.5792C256.88 44.6663 243.515 51.1067 231.115 57.0817C228.295 58.4404 225.526 59.775 222.829 61.0525C212.702 65.8507 203.379 69.3231 197.404 71.5486C197.014 71.6937 196.638 71.8335 196.278 71.9681C196.653 73.7919 196.891 75.6649 196.978 77.5753ZM178.331 39.7227C178.813 42.1409 178.743 44.9788 178.366 47.757C174.506 45.6388 170.214 44.2099 165.654 43.6362C166.083 39.8996 168.146 32.6838 172.969 33.7132C174.593 34.0196 175.641 34.6777 176.373 35.4534C177.28 36.4141 177.953 37.8261 178.331 39.7227ZM143.37 47.895C147.41 45.6686 151.924 44.1846 156.709 43.6148C155.898 39.9709 154.998 32.5 149.887 33.5916C147.765 34.0448 146.824 34.4605 145.973 35.2558C144.942 36.2188 144.16 37.6599 143.682 39.5996C143.068 42.086 143.043 45.035 143.37 47.895Z" fill="#F5F5F5"/>
<path d="M231.75 82.4967L232.368 79.0517L232.366 79.0513L231.75 82.4967ZM180.275 159.539L179.28 156.184L179.279 156.184L180.275 159.539ZM125.12 71.7473L126.343 68.4678L126.343 68.4678L125.12 71.7473ZM193.888 61.6516C193.575 61.7683 193.269 61.8824 192.971 61.9935L195.418 68.5519C195.715 68.4413 196.019 68.3278 196.333 68.211L193.888 61.6516ZM128.924 61.9584C128.641 61.8526 128.35 61.7442 128.053 61.6334L125.608 68.1924C125.905 68.3032 126.194 68.4112 126.476 68.5164L128.924 61.9584ZM136.995 87.3725C136.992 87.364 136.988 87.3554 136.985 87.3467L130.397 89.713C130.402 89.7249 130.406 89.7369 130.41 89.7491L136.995 87.3725ZM58.6369 103.03C58.6143 102.959 58.5942 102.904 58.5846 102.878C58.5793 102.863 58.5749 102.851 58.5724 102.845C58.5711 102.841 58.57 102.838 58.5693 102.837C58.5686 102.835 58.568 102.833 58.5679 102.833L52.0305 105.336C52.0326 105.341 52.0251 105.322 52.0166 105.299C52.0079 105.275 51.9886 105.222 51.9667 105.153L58.6369 103.03ZM90.1626 78.9581C90.1458 78.9611 90.1244 78.9649 90.11 78.9675L91.3392 85.8587C91.3595 85.8551 91.3729 85.8527 91.3908 85.8495L90.1626 78.9581ZM263.389 102.951C263.388 102.956 263.377 102.986 263.365 103.024L270.032 105.159C270.026 105.177 270.021 105.191 270.018 105.199C270.016 105.208 270.013 105.214 270.013 105.214L263.389 102.951ZM232.366 79.0513C232.367 79.0516 232.368 79.0518 232.366 79.0514C232.365 79.0511 232.36 79.0502 232.354 79.0492L231.123 85.9401C231.121 85.9398 231.12 85.9396 231.122 85.94C231.124 85.9403 231.129 85.9411 231.134 85.9421L232.366 79.0513ZM232.935 79.1537C232.747 79.1198 232.558 79.0858 232.368 79.0517L231.132 85.9417C231.32 85.9755 231.507 86.0091 231.694 86.0427L232.935 79.1537ZM181.271 162.895C181.33 162.877 181.388 162.86 181.446 162.843L179.445 156.135C179.39 156.151 179.335 156.168 179.28 156.184L181.271 162.895ZM181.039 162.963C181.117 162.94 181.194 162.917 181.272 162.894L179.279 156.184C179.206 156.206 179.133 156.227 179.059 156.249L181.039 162.963ZM123.311 74.8081C123.51 74.8825 123.706 74.9553 123.897 75.0268L126.343 68.4678C126.15 68.3961 125.954 68.3231 125.755 68.2487L123.311 74.8081ZM123.897 75.0267C124.08 75.0949 124.259 75.1617 124.434 75.2271L126.883 68.6694C126.706 68.6034 126.526 68.5362 126.343 68.4678L123.897 75.0267ZM203.526 13.9497L204.716 20.8479L204.716 20.8479L203.526 13.9497ZM193.346 17.5157L197.277 23.3072L197.277 23.3072L193.346 17.5157ZM188.842 22.0857L190.893 28.7785L190.894 28.7785L188.842 22.0857ZM178.081 27.539L173.393 22.341L173.393 22.3411L178.081 27.539ZM177.677 27.9188L172.775 22.922L165.574 29.9871L174.713 34.2599L177.677 27.9188ZM181.464 30.6482L186.554 25.843L186.554 25.843L181.464 30.6482ZM185.196 38.3546L178.331 39.7227L178.331 39.7227L185.196 38.3546ZM184.696 52.1766L177.849 50.7218L176.993 54.7485L180.096 57.4534L184.696 52.1766ZM194.195 65.2727L187.748 67.9996L190.359 74.1732L196.64 71.8317L194.195 65.2727ZM195.111 64.9313L192.666 58.3719L192.665 58.3723L195.111 64.9313ZM219.832 54.7265L216.835 48.4006L216.835 48.4006L219.832 54.7265ZM227.901 50.8582L230.941 57.1637L230.941 57.1637L227.901 50.8582ZM267.013 33.9345L264.812 27.2897L264.812 27.2897L267.013 33.9345ZM296.116 28.9529L296.673 21.9751L296.673 21.9751L296.116 28.9529ZM307.391 32.5018L303.484 38.3104L303.484 38.3104L307.391 32.5018ZM314.183 42.0489L307.455 43.9807L307.455 43.9817L314.183 42.0489ZM314.193 42.083L320.959 40.2887L320.941 40.2193L320.921 40.1502L314.193 42.083ZM314.202 42.1173L307.436 43.9115L307.436 43.9124L314.202 42.1173ZM310.823 54.9117L305.021 50.9949L305.021 50.9949L310.823 54.9117ZM293.738 69.2188L290.405 63.0636L287.271 64.7609L286.8 68.2935L293.738 69.2188ZM282.269 87.8641L278.263 82.1236L278.263 82.1236L282.269 87.8641ZM265.447 93.6917L264.744 86.7271L243.123 88.9096L261.953 99.7572L265.447 93.6917ZM269.276 96.2785L273.695 90.8499L273.695 90.8499L269.276 96.2785ZM273.369 106.214L266.698 104.091L266.698 104.091L273.369 106.214ZM255.162 120.096L256.847 126.89L256.847 126.89L255.162 120.096ZM226.897 117.127L223.507 123.251L223.636 123.322L223.767 123.388L226.897 117.127ZM226.833 117.092L230.223 110.967L230.223 110.967L226.833 117.092ZM212.577 106.111L207.88 111.301L207.88 111.301L212.577 106.111ZM208.844 102.787L213.407 97.4788L213.407 97.4788L208.844 102.787ZM193.664 94.2249L195.199 87.3954L189.738 86.1674L187.339 91.2258L193.664 94.2249ZM187.517 103.227L182.415 98.4347L177.845 103.301L182.489 108.097L187.517 103.227ZM198.381 123.935L205.289 122.803L205.289 122.803L198.381 123.935ZM191.765 154.681L197.905 158.042L197.905 158.042L191.765 154.681ZM163.261 187.099L167.528 192.648L167.528 192.648L163.261 187.099ZM161.128 188.739L156.861 194.289L161.128 197.57L165.395 194.289L161.128 188.739ZM158.994 187.099L154.727 192.648L154.727 192.648L158.994 187.099ZM130.449 154.684L124.312 158.051L124.312 158.051L130.449 154.684ZM123.821 123.932L116.914 122.795L116.914 122.795L123.821 123.932ZM134.673 103.273L139.701 108.144L144.338 103.358L139.786 98.4914L134.673 103.273ZM128.473 94.1823L134.792 91.1713L132.389 86.1288L126.939 87.3523L128.473 94.1823ZM113.215 102.771L108.662 97.4544L108.662 97.4544L113.215 102.771ZM109.441 106.119L104.754 100.92L104.754 100.92L109.441 106.119ZM95.1669 117.092L98.5568 123.216L98.5571 123.216L95.1669 117.092ZM95.1026 117.127L98.2331 123.388L98.3643 123.323L98.4926 123.252L95.1026 117.127ZM66.8382 120.096L65.1526 126.89L65.1526 126.89L66.8382 120.096ZM48.6313 106.214L55.3018 104.091L55.3018 104.091L48.6313 106.214ZM52.8144 96.2509L48.4318 90.7927L48.4318 90.7927L52.8144 96.2509ZM56.6287 93.6993L60.1057 99.7747L79.1108 88.8981L57.3206 86.7335L56.6287 93.6993ZM39.7312 87.8641L43.7372 82.1236L43.7372 82.1236L39.7312 87.8641ZM28.2616 69.2188L35.2001 68.2935L34.729 64.7608L31.5952 63.0636L28.2616 69.2188ZM11.1773 54.9117L5.37567 58.8285L5.37567 58.8285L11.1773 54.9117ZM7.79813 42.1173L1.03223 40.3221L1.0322 40.3222L7.79813 42.1173ZM7.80723 42.083L1.07911 40.1511L1.05953 40.2193L1.04133 40.2878L7.80723 42.083ZM7.81703 42.0489L14.5451 43.9808L14.5452 43.9807L7.81703 42.0489ZM14.6095 32.5018L10.7031 26.6932L10.7031 26.6932L14.6095 32.5018ZM25.8844 28.9529L25.3269 21.9751L25.3269 21.9751L25.8844 28.9529ZM54.9867 33.9345L57.1883 27.2897L54.9867 33.9345ZM94.0988 50.8582L97.1386 44.5527L97.1386 44.5527L94.0988 50.8582ZM102.168 54.7265L99.1706 61.0525L99.1706 61.0525L102.168 54.7265ZM126.83 64.9129L129.276 58.3542L129.276 58.3539L126.83 64.9129ZM127.7 65.2374L125.254 71.7961L131.557 74.1468L134.157 67.9423L127.7 65.2374ZM137 52.3603L141.613 57.6254L144.671 54.9464L143.859 50.9629L137 52.3603ZM136.885 37.923L143.682 39.5996L143.682 39.5996L136.885 37.923ZM141.195 30.1398L136.417 25.0238L136.417 25.0238L141.195 30.1398ZM145.179 27.6117L147.795 34.1046L157.998 29.9943L149.953 22.4922L145.179 27.6117ZM145.011 27.4573L140.323 32.6553L140.323 32.6555L145.011 27.4573ZM134.25 22.0041L136.301 15.3113L136.301 15.3113L134.25 22.0041ZM129.679 17.5093L133.507 11.649L133.507 11.6489L129.679 17.5093ZM119.327 13.9497L120.516 7.05146L120.516 7.05146L119.327 13.9497ZM120.516 7.05146L119.327 13.9497L119.327 13.9497L120.516 7.05146ZM133.507 11.6489L137.336 5.7886L137.336 5.7886L133.507 11.6489ZM137.794 15.7913L131.839 19.4721L133.166 21.6174L135.555 22.4238L137.794 15.7913ZM149.7 22.2594L154.388 17.0614L154.388 17.0614L149.7 22.2594ZM152.698 25.7713L146.745 29.4542L149.409 33.7612L154.334 32.5773L152.698 25.7713ZM170.402 25.842L168.781 32.6517L173.691 33.8205L176.351 29.5309L170.402 25.842ZM173.393 22.3411L178.081 27.539L178.081 27.539L173.393 22.3411ZM185.276 15.8808L187.517 22.5123L189.961 21.6864L191.284 19.4722L185.276 15.8808ZM189.414 11.7242L185.482 5.93269L185.482 5.93269L189.414 11.7242ZM202.337 7.05146L201.148 0.153238L201.148 0.153238L202.337 7.05146ZM156.709 43.6148L157.537 50.5657L165.223 49.6504L163.542 42.0942L156.709 43.6148ZM143.37 47.895L136.416 48.6922L137.605 59.0651L146.749 54.0256L143.37 47.895ZM149.887 33.5916L148.425 26.7459L149.887 33.5916ZM145.973 35.2558L141.195 30.1398L141.195 30.1398L145.973 35.2558ZM143.682 39.5996L136.885 37.9229L136.885 37.923L143.682 39.5996ZM143.033 56.4587L147.303 62.0056L147.303 62.0056L143.033 56.4587ZM133.149 70.7679L126.438 68.7786L126.438 68.7786L133.149 70.7679ZM132.063 80.6914L125.078 81.1511L125.078 81.1512L132.063 80.6914ZM133.691 88.5298L127.103 90.8963L127.105 90.9012L133.691 88.5298ZM133.702 88.5608L127.116 90.9321L127.117 90.9347L133.702 88.5608ZM133.874 89.0233L127.33 91.5102L127.33 91.5102L133.874 89.0233ZM134.023 89.4082L127.516 91.9891L127.516 91.9893L134.023 89.4082ZM142.009 100.629L146.586 95.3327L146.586 95.3327L142.009 100.629ZM180.184 100.568L184.744 105.879L184.744 105.879L180.184 100.568ZM188.248 89.0794L194.803 91.5357L194.803 91.5357L188.248 89.0794ZM189.977 80.7394L196.968 81.1032L196.968 81.1031L189.977 80.7394ZM188.77 70.8205L182.073 72.8578L182.073 72.8578L188.77 70.8205ZM178.697 56.3083L182.958 50.7544L182.95 50.7481L178.697 56.3083ZM178.661 56.2806L182.913 50.7203L182.913 50.7199L178.661 56.2806ZM131.285 122.458L124.515 120.679L122.985 126.502L128.514 128.886L131.285 122.458ZM139.936 107.903L144.027 102.222L139.157 98.7154L134.947 102.993L139.936 107.903ZM132 122.764L134.733 116.319L134.733 116.319L132 122.764ZM140.215 125.951L142.54 119.349L142.54 119.349L140.215 125.951ZM161.126 130.501L161.123 123.501L161.123 123.501L161.126 130.501ZM182.005 125.948L184.332 132.549L184.332 132.549L182.005 125.948ZM190.206 122.762L187.472 116.319L187.472 116.319L190.206 122.762ZM190.919 122.457L193.691 128.885L199.213 126.503L197.691 120.686L190.919 122.457ZM182.241 107.843L187.229 102.931L183.032 98.6688L178.167 102.15L182.241 107.843ZM184.332 132.549L186.659 139.151L186.659 139.151L184.332 132.549ZM191.86 129.66L198.86 129.604L198.776 119.211L189.177 123.194L191.86 129.66ZM161.129 137.501L161.132 144.501L161.132 144.501L161.129 137.501ZM137.89 132.554L140.215 125.951L140.215 125.951L137.89 132.554ZM130.339 129.658L133.021 123.192L123.427 119.212L123.34 129.599L130.339 129.658ZM135.982 150.19L129.782 153.44L131.032 155.825L133.559 156.757L135.982 150.19ZM137.442 150.717L139.777 144.118L139.777 144.118L137.442 150.717ZM144.158 152.895L146.136 146.18L146.136 146.18L144.158 152.895ZM161.126 156.001L161.129 163.001L161.129 163.001L161.126 156.001ZM178.069 152.892L176.089 146.178L176.089 146.178L178.069 152.892ZM184.775 150.716L187.111 157.315L187.111 157.315L184.775 150.716ZM186.229 150.191L188.653 156.758L191.183 155.824L192.432 153.435L186.229 150.191ZM180.049 159.606L182.029 166.32L182.035 166.319L180.049 159.606ZM180.445 159.489L186.127 163.577L198.106 146.93L178.449 152.779L180.445 159.489ZM161.129 163.001L161.126 156.001L161.126 156.001L161.129 163.001ZM142.18 159.609L144.158 152.895L144.157 152.895L142.18 159.609ZM141.781 159.491L143.78 152.783L124.077 146.912L136.104 163.586L141.781 159.491ZM161.127 179.86L156.706 185.287L161.128 188.89L165.55 185.286L161.127 179.86ZM125.466 84.5627L132.375 83.439L131.353 77.1522L124.998 77.5784L125.466 84.5627ZM126.085 87.5561L127.802 94.3424L134.582 92.6276L132.873 85.8458L126.085 87.5561ZM96.8231 88.4529L98.0038 95.3526L98.0038 95.3526L96.8231 88.4529ZM91.9982 89.2964L90.7683 82.4053L90.6806 82.421L90.5932 82.4389L91.9982 89.2964ZM66.6806 96.6627L64.0542 90.1741L64.0542 90.1741L66.6806 96.6627ZM57.197 101.709L52.8144 96.2509L52.8144 96.2509L57.197 101.709ZM55.416 103.63L61.6289 106.854L61.6289 106.854L55.416 103.63ZM55.2992 104.084L61.8768 101.69L61.8566 101.634L61.8354 101.579L55.2992 104.084ZM55.3018 104.091L61.9723 101.969L61.9286 101.832L61.8794 101.697L55.3018 104.091ZM68.5237 113.302L70.2093 106.507L70.2093 106.507L68.5237 113.302ZM91.8411 110.932L94.9565 117.2L95.1017 117.128L95.2433 117.049L91.8411 110.932ZM104.31 101.307L108.994 106.509L108.994 106.509L104.31 101.307ZM108.662 97.4544L104.109 92.1377L104.109 92.1377L108.662 97.4544ZM125.659 71.9483L132.527 73.2983L133.673 67.4672L128.106 65.3899L125.659 71.9483ZM125.019 77.5781L125.487 84.5624L131.806 84.1385L132.015 77.809L125.019 77.5781ZM124.533 71.5284L126.977 64.9692L126.977 64.969L124.533 71.5284ZM99.1706 61.0525L102.168 54.7265L102.168 54.7265L99.1706 61.0525ZM90.8851 57.0817L93.9238 50.7757L93.9238 50.7757L90.8851 57.0817ZM52.7851 40.5792L50.5834 47.224L50.5834 47.224L52.7851 40.5792ZM26.4418 35.9306L26.9992 42.9084L26.9992 42.9084L26.4418 35.9306ZM18.5159 38.3104L22.4223 44.119L22.4223 44.119L18.5159 38.3104ZM14.558 43.9364L7.83639 41.9819L7.79065 42.1392L7.75232 42.2984L14.558 43.9364ZM16.9789 50.9949L22.7805 47.078L22.7805 47.078L16.9789 50.9949ZM33.165 63.8889L36.3473 57.6541L36.3473 57.6541L33.165 63.8889ZM34.9799 64.8152L41.973 64.5044L41.7921 60.4331L38.1622 58.5804L34.9799 64.8152ZM35.0704 66.8508L28.0773 67.1617L28.0773 67.1617L35.0704 66.8508ZM43.7372 82.1236L39.7312 87.8641L39.7312 87.8641L43.7372 82.1236ZM78.4887 84.7181L80.1449 91.5193L80.1451 91.5193L78.4887 84.7181ZM78.5605 84.7006L77.1937 77.8354L77.0482 77.8643L76.9041 77.8994L78.5605 84.7006ZM78.6331 84.6862L79.9999 91.5514L80.0005 91.5513L78.6331 84.6862ZM90.7246 82.4131L89.4947 75.522L89.4943 75.5221L90.7246 82.4131ZM90.7767 82.4038L89.5469 75.5127L89.5468 75.5127L90.7767 82.4038ZM95.6423 81.5532L94.4616 74.6535L94.4616 74.6535L95.6423 81.5532ZM213.407 97.4788L208.844 102.787L208.844 102.787L213.407 97.4788ZM196.019 87.5907L189.218 85.9315L187.572 92.6801L194.307 94.3783L196.019 87.5907ZM217.715 101.306L222.408 96.1124L222.408 96.1124L217.715 101.306ZM230.159 110.932L226.757 117.049L226.898 117.128L227.043 117.2L230.159 110.932ZM253.476 113.302L251.791 106.507L251.791 106.507L253.476 113.302ZM266.698 104.091L260.059 101.874L260.043 101.922L260.028 101.969L266.698 104.091ZM266.701 104.083L260.076 101.822L260.069 101.844L260.062 101.866L266.701 104.083ZM266.59 103.606L272.831 100.436L272.831 100.435L266.59 103.606ZM264.857 101.707L269.276 96.2785L269.276 96.2784L264.857 101.707ZM255.541 96.6996L252.897 103.181L252.897 103.181L255.541 96.6996ZM230.461 89.3772L231.865 82.5196L231.781 82.5023L231.696 82.487L230.461 89.3772ZM226.102 88.6099L227.293 81.712L227.293 81.712L226.102 88.6099ZM196.616 84.5653L197.087 77.5812L190.662 77.1476L189.696 83.5142L196.616 84.5653ZM231.738 82.4947L232.978 75.6053L232.974 75.6046L231.738 82.4947ZM196.978 77.5753L189.985 77.8954L190.271 84.1434L196.512 84.5597L196.978 77.5753ZM231.75 82.4967L230.51 89.3861L230.511 89.3862L231.75 82.4967ZM232.314 82.5982L233.556 75.7092L233.553 75.7087L232.314 82.5982ZM243.367 84.6862L242 91.5513L242 91.5514L243.367 84.6862ZM243.44 84.7006L245.096 77.8995L244.952 77.8643L244.806 77.8354L243.44 84.7006ZM243.511 84.7181L241.855 91.5193L241.855 91.5193L243.511 84.7181ZM278.263 82.1236L282.269 87.8641L282.269 87.8641L278.263 82.1236ZM286.93 66.8508L279.937 66.54L279.937 66.5401L286.93 66.8508ZM287.02 64.8152L283.838 58.5804L280.208 60.4331L280.027 64.5044L287.02 64.8152ZM288.835 63.8889L285.653 57.6541L285.653 57.6541L288.835 63.8889ZM305.021 50.9949L310.823 54.9117L310.823 54.9117L305.021 50.9949ZM307.442 43.9363L314.248 42.2982L314.209 42.1389L314.164 41.9817L307.442 43.9363ZM303.484 38.3104L299.578 44.119L299.578 44.119L303.484 38.3104ZM295.558 35.9306L296.116 28.9529L296.116 28.9529L295.558 35.9306ZM269.215 40.5792L271.417 47.224L271.417 47.224L269.215 40.5792ZM231.115 57.0817L228.076 50.7756L228.076 50.7756L231.115 57.0817ZM222.829 61.0525L219.832 54.7265L219.832 54.7265L222.829 61.0525ZM197.404 71.5486L194.96 64.9888L194.96 64.9888L197.404 71.5486ZM196.278 71.9681L193.83 65.41L188.212 67.5069L189.422 73.3802L196.278 71.9681ZM178.331 39.7227L171.466 41.0909L171.466 41.0909L178.331 39.7227ZM178.366 47.757L174.999 53.8938L183.932 58.7958L185.303 48.6985L178.366 47.757ZM176.373 35.4534L171.283 40.2585L171.283 40.2586L176.373 35.4534ZM172.969 33.7132L171.508 40.559L171.59 40.5764L171.672 40.5918L172.969 33.7132ZM165.654 43.6362L158.7 42.8382L157.911 49.7169L164.78 50.5814L165.654 43.6362ZM131.647 19.6447L137.331 15.5588L137.331 15.5587L131.647 19.6447ZM191.44 19.6654L185.683 15.6835L185.683 15.6835L191.44 19.6654ZM180.275 159.539L182.261 166.252L182.272 166.249L180.275 159.539ZM125.12 71.7473L127.567 65.1889L127.565 65.188L125.12 71.7473ZM141.979 159.55L139.99 166.261L139.99 166.261L141.979 159.55ZM204.716 20.8479C210.43 19.8626 214.264 14.4312 213.279 8.71654L199.482 11.0952C199.154 9.19034 200.432 7.37989 202.337 7.05146L204.716 20.8479ZM197.277 23.3072C198.088 22.7572 200.249 21.6179 204.716 20.8479L202.337 7.05146C196.404 8.07436 192.246 9.80118 189.414 11.7242L197.277 23.3072ZM182.77 32.737C183.708 31.891 186.043 30.2648 190.893 28.7785L186.791 15.3929C180.475 17.3287 176.188 19.8197 173.393 22.341L182.77 32.737ZM182.58 32.9155C182.634 32.8625 182.697 32.8028 182.77 32.737L173.393 22.3411C173.178 22.5352 172.972 22.7289 172.775 22.922L182.58 32.9155ZM186.554 25.843C184.876 24.0657 182.889 22.6283 180.642 21.5777L174.713 34.2599C175.369 34.5669 175.912 34.9645 176.373 35.4534L186.554 25.843ZM192.061 36.9864C191.347 33.403 189.803 29.2848 186.554 25.843L176.373 35.4534C177.279 36.4131 177.952 37.8242 178.331 39.7227L192.061 36.9864ZM191.543 53.6313C192.521 49.0292 193.233 42.8674 192.061 36.9864L178.331 39.7227C178.974 42.9517 178.642 46.9889 177.849 50.7218L191.543 53.6313ZM200.642 62.5458C198.08 56.4885 194.171 51.1495 189.295 46.8997L180.096 57.4534C183.392 60.3257 186.026 63.9284 187.748 67.9996L200.642 62.5458ZM216.835 48.4006C207.319 52.9094 198.658 56.1394 192.666 58.3719L197.555 71.4907C203.559 69.2532 212.719 65.8427 222.829 61.0525L216.835 48.4006ZM224.862 44.5526C222.084 45.8916 219.407 47.1823 216.835 48.4006L222.829 61.0525C225.451 59.8103 228.172 58.4985 230.941 57.1637L224.862 44.5526ZM264.812 27.2897C251.489 31.7041 237.173 38.6176 224.862 44.5526L230.941 57.1637C243.449 51.134 256.915 44.6546 269.215 40.5792L264.812 27.2897ZM296.673 21.9751C286.981 21.2008 275.675 23.6903 264.812 27.2897L269.215 40.5792C279.521 37.1646 288.686 35.3816 295.558 35.9306L296.673 21.9751ZM311.297 26.6932C306.794 23.665 301.624 22.3706 296.673 21.9751L295.558 35.9306C298.96 36.2024 301.579 37.0295 303.484 38.3104L311.297 26.6932ZM320.911 40.117C319.285 34.4547 315.998 29.8548 311.297 26.6932L303.484 38.3104C305.323 39.5468 306.695 41.3358 307.455 43.9807L320.911 40.117ZM320.921 40.1502L320.911 40.1161L307.455 43.9817L307.465 44.0158L320.921 40.1502ZM320.968 40.323L320.959 40.2887L307.427 43.8773L307.436 43.9115L320.968 40.323ZM316.624 58.8285C320.52 53.0587 322.546 46.269 320.968 40.3222L307.436 43.9124C307.602 44.5374 307.627 47.1354 305.021 50.9949L316.624 58.8285ZM297.072 75.3741C306.429 70.3063 312.736 64.588 316.624 58.8285L305.021 50.9949C302.656 54.4976 298.239 58.8208 290.405 63.0636L297.072 75.3741ZM286.275 93.6045C295.571 87.1169 299.662 77.7525 300.677 70.1441L286.8 68.2935C286.21 72.715 283.802 78.2584 278.263 82.1236L286.275 93.6045ZM266.15 100.656C274.184 99.8453 280.886 97.3653 286.275 93.6045L278.263 82.1236C275.039 84.3736 270.669 86.129 264.744 86.7271L266.15 100.656ZM273.695 90.8499C272.221 89.6494 270.596 88.5797 268.941 87.6262L261.953 99.7572C263.14 100.441 264.106 101.096 264.857 101.707L273.695 90.8499ZM280.039 108.336C282.833 99.5565 276.727 93.3179 273.695 90.8499L264.857 101.707C265.781 102.459 266.354 103.15 266.61 103.645C266.718 103.854 266.728 103.95 266.728 103.952C266.729 103.956 266.729 103.957 266.728 103.965C266.727 103.974 266.723 104.014 266.698 104.091L280.039 108.336ZM256.847 126.89C266.054 124.606 276.709 118.803 280.039 108.336L266.698 104.091C265.571 107.633 260.895 111.461 253.476 113.302L256.847 126.89ZM223.833 123.421C234.764 128.887 246.908 129.355 256.847 126.89L253.476 113.302C246.312 115.079 237.645 114.675 230.094 110.899L223.833 123.421ZM223.767 123.388L223.833 123.421L230.094 110.899L230.028 110.866L223.767 123.388ZM223.443 123.216L223.507 123.251L230.288 111.003L230.223 110.967L223.443 123.216ZM207.88 111.301C211.976 115.007 217.16 119.738 223.443 123.216L230.223 110.967C225.578 108.396 221.544 104.785 217.274 100.92L207.88 111.301ZM204.281 108.096C205.414 109.07 206.586 110.13 207.88 111.301L217.274 100.92C216.008 99.7743 214.699 98.59 213.407 97.4788L204.281 108.096ZM192.129 101.054C196.32 101.997 199.868 104.303 204.281 108.096L213.407 97.4788C208.439 93.2091 202.771 89.0976 195.199 87.3954L192.129 101.054ZM192.62 108.019C195.595 104.851 198.095 101.219 199.989 97.224L187.339 91.2258C186.081 93.8797 184.413 96.3068 182.415 98.4347L192.62 108.019ZM205.289 122.803C203.854 114.049 199.709 105.754 192.546 98.3573L182.489 108.097C187.809 113.59 190.532 119.325 191.473 125.066L205.289 122.803ZM197.905 158.042C203.498 147.826 207.38 135.566 205.289 122.803L191.473 125.066C192.875 133.625 190.374 142.644 185.625 151.32L197.905 158.042ZM167.528 192.648C177.286 185.145 189.89 172.685 197.905 158.042L185.625 151.32C178.812 163.766 167.734 174.83 158.994 181.55L167.528 192.648ZM165.395 194.289L167.528 192.648L158.994 181.55L156.861 183.19L165.395 194.289ZM154.727 192.648L156.861 194.289L165.395 183.19L163.261 181.55L154.727 192.648ZM124.312 158.051C132.345 172.692 144.972 185.147 154.727 192.648L163.261 181.55C154.514 174.824 143.413 163.76 136.586 151.317L124.312 158.051ZM116.914 122.795C114.812 135.569 118.707 147.835 124.312 158.051L136.586 151.317C131.826 142.641 129.32 133.625 130.729 125.069L116.914 122.795ZM129.646 98.4027C122.495 105.784 118.352 114.06 116.914 122.795L130.729 125.069C131.671 119.345 134.391 113.626 139.701 108.144L129.646 98.4027ZM122.153 97.1933C124.063 101.2 126.572 104.859 129.561 108.055L139.786 98.4914C137.766 96.3328 136.076 93.8661 134.792 91.1713L122.153 97.1933ZM117.769 108.088C122.217 104.278 125.798 101.957 130.006 101.012L126.939 87.3523C119.358 89.0541 113.66 93.1741 108.662 97.4544L117.769 108.088ZM114.129 111.318C115.437 110.138 116.623 109.069 117.769 108.088L108.662 97.4544C107.356 98.5731 106.034 99.7658 104.754 100.92L114.129 111.318ZM98.5571 123.216C104.823 119.747 110.017 115.025 114.129 111.318L104.754 100.92C100.465 104.787 96.4163 108.399 91.7766 110.967L98.5571 123.216ZM98.4926 123.252L98.5568 123.216L91.7769 110.967L91.7127 111.003L98.4926 123.252ZM98.1675 123.421L98.2331 123.388L91.9721 110.866L91.9065 110.899L98.1675 123.421ZM65.1526 126.89C75.0916 129.355 87.2361 128.887 98.1675 123.421L91.9065 110.899C84.3548 114.675 75.6876 115.079 68.5237 113.302L65.1526 126.89ZM41.9608 108.336C45.2913 118.803 55.9464 124.606 65.1526 126.89L68.5237 113.302C61.1051 111.461 56.4287 107.633 55.3018 104.091L41.9608 108.336ZM48.4318 90.7927C45.4285 93.2041 39.1365 99.4599 41.9608 108.336L55.3018 104.091C55.2778 104.016 55.2744 103.98 55.2741 103.976C55.2737 103.972 55.2739 103.974 55.2739 103.974C55.2741 103.972 55.2768 103.95 55.2924 103.903C55.3085 103.854 55.339 103.776 55.3953 103.669C55.6616 103.164 56.2546 102.466 57.197 101.709L48.4318 90.7927ZM53.1518 87.6238C51.5085 88.5643 49.8972 89.6161 48.4318 90.7927L57.197 101.709C57.9527 101.102 58.9212 100.453 60.1057 99.7747L53.1518 87.6238ZM35.7253 93.6045C41.1341 97.379 47.8646 99.8631 55.9368 100.665L57.3206 86.7335C51.3627 86.1417 46.9727 84.3815 43.7372 82.1236L35.7253 93.6045ZM21.323 70.1441C22.3376 77.7525 26.4287 87.1169 35.7253 93.6045L43.7372 82.1236C38.1984 78.2584 35.7898 72.715 35.2001 68.2935L21.323 70.1441ZM5.37567 58.8285C9.26409 64.588 15.5708 70.3063 24.9279 75.374L31.5952 63.0636C23.7612 58.8207 19.3437 54.4976 16.9789 50.9949L5.37567 58.8285ZM1.0322 40.3222C-0.545495 46.2689 1.48032 53.0587 5.37567 58.8285L16.9789 50.9949C14.3733 47.1354 14.3982 44.5375 14.5641 43.9123L1.0322 40.3222ZM1.04133 40.2878L1.03223 40.3221L14.564 43.9124L14.5731 43.8781L1.04133 40.2878ZM1.0889 40.117L1.07911 40.1511L14.5354 44.0149L14.5451 43.9808L1.0889 40.117ZM10.7031 26.6932C6.00191 29.8548 2.71469 34.4547 1.08888 40.117L14.5452 43.9807C15.3046 41.3358 16.6775 39.5468 18.5159 38.3104L10.7031 26.6932ZM25.3269 21.9751C20.3763 22.3706 15.2059 23.665 10.7031 26.6932L18.5159 38.3104C20.4206 37.0295 23.0402 36.2024 26.4418 35.9306L25.3269 21.9751ZM57.1883 27.2897C46.3249 23.6903 35.0192 21.2008 25.3269 21.9751L26.4418 35.9306C33.3138 35.3816 42.4792 37.1646 52.7851 40.5792L57.1883 27.2897ZM97.1386 44.5527C84.8271 38.6176 70.5113 31.7041 57.1883 27.2897L52.7851 40.5792C65.0849 44.6546 78.5512 51.1341 91.0591 57.1638L97.1386 44.5527ZM105.165 48.4006C102.593 47.1823 99.9161 45.8917 97.1386 44.5527L91.0591 57.1638C93.8278 58.4986 96.5488 59.8103 99.1706 61.0525L105.165 48.4006ZM129.276 58.3539C123.309 56.1295 114.692 52.9143 105.165 48.4006L99.1706 61.0525C109.29 65.8466 118.403 69.2416 124.385 71.4719L129.276 58.3539ZM132.387 47.0952C127.606 51.2839 123.757 56.5355 121.244 62.5325L134.157 67.9423C135.823 63.9642 138.39 60.449 141.613 57.6254L132.387 47.0952ZM130.089 36.2463C128.581 42.3587 129.143 48.86 130.141 53.7578L143.859 50.9629C143.082 47.1477 142.86 42.9298 143.682 39.5996L130.089 36.2463ZM136.417 25.0238C132.835 28.3691 131.003 32.5412 130.089 36.2463L143.682 39.5996C144.161 37.6578 144.943 36.2176 145.973 35.2558L136.417 25.0238ZM142.564 21.1187C140.269 22.0431 138.203 23.3561 136.417 25.0238L145.973 35.2558C146.484 34.7781 147.081 34.3925 147.795 34.1046L142.564 21.1187ZM140.323 32.6555C140.352 32.6814 140.379 32.7067 140.405 32.7311L149.953 22.4922C149.871 22.4149 149.786 22.3372 149.699 22.2592L140.323 32.6555ZM132.199 28.6968C137.049 30.1831 139.385 31.8093 140.323 32.6553L149.7 22.2594C146.904 19.738 142.618 17.247 136.301 15.3113L132.199 28.6968ZM118.137 20.8479C122.642 21.6245 124.928 22.7673 125.85 23.3696L133.507 11.6489C130.632 9.77055 126.436 8.07216 120.516 7.05146L118.137 20.8479ZM109.574 8.71654C108.589 14.4312 112.422 19.8626 118.137 20.8479L120.516 7.05146C122.421 7.37989 123.699 9.19035 123.37 11.0952L109.574 8.71654ZM121.705 0.153239C115.991 -0.832051 110.559 3.00188 109.574 8.71654L123.37 11.0952C123.042 13.0001 121.231 14.2781 119.327 13.9497L121.705 0.153239ZM137.336 5.7886C133.483 3.27181 128.332 1.29582 121.705 0.153238L119.327 13.9497C124.539 14.8484 127.78 16.269 129.679 17.5093L137.336 5.7886ZM143.748 12.1106C142.156 9.53631 139.84 7.4247 137.336 5.7886L129.679 17.5093C130.968 18.3518 131.606 19.0944 131.839 19.4721L143.748 12.1106ZM154.388 17.0614C150.963 13.9718 146.239 11.2535 140.032 9.1588L135.555 22.4238C140.363 24.0462 143.297 25.9114 145.011 27.4573L154.388 17.0614ZM158.65 22.0884C157.519 20.2598 156.062 18.5709 154.388 17.0614L145.011 27.4573C145.848 28.2119 146.405 28.9047 146.745 29.4542L158.65 22.0884ZM172.023 19.0322C166.938 17.8218 159.217 17.0045 151.061 18.9652L154.334 32.5773C159.793 31.2648 165.203 31.7999 168.781 32.6517L172.023 19.0322ZM168.705 17.1431C167.036 18.648 165.583 20.3312 164.453 22.1531L176.351 29.5309C176.691 28.9821 177.248 28.2912 178.081 27.539L168.705 17.1431ZM183.035 9.24935C176.84 11.3428 172.125 14.0578 168.705 17.1431L178.081 27.539C179.793 25.9953 182.722 24.1331 187.517 22.5123L183.035 9.24935ZM185.482 5.93269C182.959 7.64526 180.765 9.78359 179.267 12.2894L191.284 19.4722C191.515 19.0856 192.118 18.3493 193.346 17.5157L185.482 5.93269ZM201.148 0.153238C194.482 1.30239 189.327 3.32272 185.482 5.93269L193.346 17.5157C195.167 16.2793 198.326 14.8462 203.526 13.9497L201.148 0.153238ZM213.279 8.71654C212.294 3.00186 206.862 -0.832047 201.148 0.153238L203.526 13.9497C201.621 14.2781 199.811 13.0001 199.482 11.0952L213.279 8.71654ZM155.881 36.6639C150.19 37.3417 144.811 39.1084 139.992 41.7644L146.749 54.0256C150.009 52.2288 153.658 51.0275 157.537 50.5657L155.881 36.6639ZM150.751 40.3718C150.708 40.4117 150.614 40.4925 150.48 40.5799C150.348 40.6666 150.246 40.7144 150.21 40.7298C150.186 40.7403 150.244 40.7132 150.437 40.6577C150.632 40.6015 150.921 40.5287 151.349 40.4372L148.425 26.7459C145.88 27.2896 143.439 28.0447 141.195 30.1398L150.751 40.3718ZM150.478 41.2762C150.737 40.2243 150.992 40.1462 150.751 40.3718L141.195 30.1398C138.891 32.2913 137.583 35.0956 136.885 37.9229L150.478 41.2762ZM150.325 47.0977C150.052 44.7159 150.134 42.6714 150.478 41.2762L136.885 37.923C136.003 41.5006 136.033 45.3541 136.416 48.6922L150.325 47.0977ZM147.303 62.0056C151.08 59.0985 155.877 57.3534 161.128 57.3534V43.3534C152.731 43.3534 144.942 46.1556 138.764 50.9117L147.303 62.0056ZM139.861 72.7571C141.129 68.4782 143.752 64.7394 147.303 62.0056L138.764 50.9117C132.965 55.375 128.576 61.5666 126.438 68.7786L139.861 72.7571ZM138.999 78.7621C138.999 76.6452 139.304 74.6355 139.861 72.7571L126.438 68.7786C125.501 71.9409 124.999 75.2902 124.999 78.7621H138.999ZM139.047 80.2317C139.016 79.7474 138.999 79.2574 138.999 78.7621H124.999C124.999 79.5644 125.026 80.361 125.078 81.1511L139.047 80.2317ZM140.279 86.1634C139.609 84.2975 139.184 82.3094 139.047 80.2317L125.078 81.1512C125.301 84.5477 125.998 87.8186 127.103 90.8963L140.279 86.1634ZM140.417 86.5364C140.373 86.4204 140.33 86.3038 140.288 86.1869L127.117 90.9347C127.187 91.1273 127.258 91.3191 127.33 91.5102L140.417 86.5364ZM140.53 86.8274C140.492 86.7303 140.454 86.6333 140.417 86.5364L127.33 91.5102C127.391 91.6708 127.453 91.8304 127.516 91.9891L140.53 86.8274ZM146.586 95.3327C143.929 93.0366 141.837 90.1214 140.53 86.8271L127.516 91.9893C129.667 97.4107 133.097 102.179 137.432 105.925L146.586 95.3327ZM160.888 100.651C155.411 100.651 150.427 98.6526 146.586 95.3327L137.432 105.925C143.72 111.36 151.924 114.651 160.888 114.651V100.651ZM175.624 95.2571C171.722 98.6071 166.568 100.651 160.888 100.651V114.651C169.976 114.651 178.351 111.368 184.744 105.879L175.624 95.2571ZM181.693 86.623C180.443 89.9604 178.346 92.9197 175.624 95.2571L184.744 105.879C189.2 102.053 192.7 97.1493 194.803 91.5357L181.693 86.623ZM182.987 80.3757C182.872 82.5877 182.421 84.6806 181.693 86.623L194.803 91.5357C196.029 88.2657 196.777 84.7622 196.968 81.1032L182.987 80.3757ZM183.016 79.2419C183.016 79.6237 183.006 80.0017 182.987 80.3758L196.968 81.1031C197 80.4868 197.016 79.8663 197.016 79.2419H183.016ZM182.073 72.8578C182.684 74.8647 183.016 77.005 183.016 79.2419H197.016C197.016 75.6092 196.475 72.0965 195.467 68.7831L182.073 72.8578ZM174.437 61.8623C178.027 64.6167 180.732 68.4494 182.073 72.8578L195.467 68.7831C193.258 61.5197 188.817 55.249 182.958 50.7544L174.437 61.8623ZM174.408 61.8408L174.445 61.8685L182.95 50.7481L182.913 50.7203L174.408 61.8408ZM161.128 57.3534C166.13 57.3534 170.724 59.0235 174.409 61.8412L182.913 50.7199C176.872 46.1005 169.309 43.3534 161.128 43.3534V57.3534ZM138.055 124.237C139.009 120.605 141.048 116.752 144.925 112.813L134.947 102.993C129.507 108.52 126.142 114.485 124.515 120.679L138.055 124.237ZM134.733 116.319C134.495 116.218 134.269 116.121 134.056 116.03L128.514 128.886C128.752 128.988 129.003 129.096 129.267 129.208L134.733 116.319ZM142.54 119.349C139.42 118.25 136.685 117.147 134.733 116.319L129.267 129.208C131.418 130.12 134.432 131.336 137.89 132.554L142.54 119.349ZM161.123 123.501C156.151 123.503 149.112 121.663 142.54 119.349L137.89 132.554C144.693 134.95 153.632 137.504 161.129 137.501L161.123 123.501ZM179.678 119.346C173.116 121.659 166.088 123.499 161.123 123.501L161.129 137.501C168.615 137.497 177.54 134.944 184.332 132.549L179.678 119.346ZM187.472 116.319C185.524 117.145 182.793 118.248 179.678 119.346L184.332 132.549C187.785 131.332 190.794 130.117 192.941 129.206L187.472 116.319ZM188.147 116.03C187.934 116.121 187.709 116.218 187.472 116.319L192.941 129.206C193.204 129.094 193.455 128.987 193.691 128.885L188.147 116.03ZM177.253 112.754C181.146 116.708 183.192 120.578 184.147 124.229L197.691 120.686C196.064 114.467 192.691 108.479 187.229 102.931L177.253 112.754ZM160.888 121.651C170.322 121.651 179.142 118.668 186.315 113.535L178.167 102.15C173.326 105.615 167.345 107.651 160.888 107.651V121.651ZM135.846 113.583C142.892 118.657 151.553 121.651 160.888 121.651V107.651C154.588 107.651 148.771 105.638 144.027 102.222L135.846 113.583ZM186.659 139.151C189.709 138.076 192.423 137.005 194.543 136.125L189.177 123.194C187.24 123.998 184.768 124.974 182.005 125.948L186.659 139.151ZM161.132 144.501C169.876 144.497 179.745 141.588 186.659 139.151L182.005 125.948C175.33 128.3 167.353 130.498 161.126 130.501L161.132 144.501ZM135.565 139.157C142.49 141.595 152.375 144.504 161.132 144.501L161.126 130.501C154.891 130.503 146.901 128.306 140.215 125.951L135.565 139.157ZM127.657 136.124C129.783 137.005 132.504 138.079 135.565 139.157L140.215 125.951C137.442 124.975 134.963 123.997 133.021 123.192L127.657 136.124ZM142.182 146.94C138.975 140.822 137.295 134.999 137.339 129.716L123.34 129.599C123.271 137.872 125.877 145.99 129.782 153.44L142.182 146.94ZM139.777 144.118C139.238 143.928 138.777 143.76 138.405 143.623L133.559 156.757C133.985 156.915 134.505 157.104 135.107 157.316L139.777 144.118ZM146.136 146.18C143.597 145.432 141.368 144.681 139.777 144.118L135.107 157.316C136.874 157.942 139.347 158.775 142.18 159.609L146.136 146.18ZM161.124 149.001C157.181 149.002 151.496 147.759 146.136 146.18L142.18 159.609C147.749 161.25 155.058 163.003 161.129 163.001L161.124 149.001ZM176.089 146.178C170.738 147.756 165.061 148.999 161.124 149.001L161.129 163.001C167.191 162.998 174.489 161.246 180.049 159.606L176.089 146.178ZM182.439 144.118C180.85 144.68 178.624 145.431 176.089 146.178L180.049 159.606C182.877 158.772 185.347 157.94 187.111 157.315L182.439 144.118ZM183.805 143.624C183.435 143.761 182.975 143.928 182.439 144.118L187.111 157.315C187.71 157.103 188.228 156.915 188.653 156.758L183.805 143.624ZM184.86 129.716C184.902 135.004 183.225 140.83 180.026 146.947L192.432 153.435C196.326 145.987 198.926 137.872 198.86 129.604L184.86 129.716ZM161.131 170.001C168.253 169.998 176.358 167.993 182.029 166.32L178.069 152.892C172.615 154.5 166.127 155.999 161.126 156.001L161.131 170.001ZM140.202 166.324C145.881 167.997 153.999 170.003 161.131 170.001L161.126 156.001C156.119 156.002 149.621 154.504 144.158 152.895L140.202 166.324ZM165.549 174.433C159.626 169.607 152.886 162.922 147.459 155.396L136.104 163.586C142.372 172.277 150.012 179.832 156.706 185.287L165.549 174.433ZM174.764 155.4C169.347 162.927 162.62 169.612 156.704 174.434L165.55 185.286C172.241 179.831 179.87 172.273 186.127 163.577L174.764 155.4ZM118.557 85.6864C118.754 86.8968 119.001 88.091 119.298 89.2664L132.873 85.8458C132.674 85.0561 132.508 84.2534 132.375 83.439L118.557 85.6864ZM98.0038 95.3526C108.147 93.6167 118.968 92.0142 125.935 91.547L124.998 77.5784C117.249 78.0981 105.807 79.8136 95.6423 81.5532L98.0038 95.3526ZM93.2281 96.1875C94.7742 95.9116 96.3733 95.6316 98.0038 95.3526L95.6423 81.5532C93.9772 81.8381 92.3453 82.1239 90.7683 82.4053L93.2281 96.1875ZM69.3069 103.151C76.8975 100.079 86.7079 97.5257 93.4032 96.154L90.5932 82.4389C83.4428 83.9038 72.7275 86.6635 64.0542 90.1741L69.3069 103.151ZM61.5796 107.168C62.8374 106.158 65.3889 104.737 69.3069 103.151L64.0542 90.1741C59.7482 91.917 55.6832 93.9475 52.8144 96.2509L61.5796 107.168ZM61.6289 106.854C61.511 107.082 61.4052 107.241 61.3399 107.332C61.2726 107.426 61.2287 107.476 61.2224 107.483C61.2129 107.494 61.311 107.383 61.5796 107.168L52.8144 96.2509C51.3802 97.4026 50.0483 98.7764 49.2031 100.405L61.6289 106.854ZM61.8354 101.579C61.8327 101.572 61.8589 101.639 61.8886 101.722C61.9208 101.813 61.9609 101.931 62.0025 102.071C62.0882 102.359 62.1642 102.683 62.2159 103.04C62.3205 103.762 62.2972 104.416 62.2181 104.964C62.0734 105.968 61.7371 106.646 61.6289 106.854L49.2032 100.405C48.9275 100.936 48.5261 101.824 48.3614 102.966C48.1391 104.507 48.4475 105.767 48.763 106.59L61.8354 101.579ZM70.2093 106.507C67.2466 105.772 65.081 104.699 63.6791 103.679C62.1886 102.595 61.9394 101.866 61.9723 101.969L48.6313 106.214C49.7943 109.869 52.4551 112.827 55.4426 115C58.5186 117.238 62.3989 118.994 66.8382 120.096L70.2093 106.507ZM88.7256 104.663C82.8717 107.573 75.9653 107.936 70.2093 106.507L66.8382 120.096C75.3667 122.211 85.7364 121.783 94.9565 117.2L88.7256 104.663ZM99.6254 96.1052C95.4915 99.8278 92.2906 102.672 88.4389 104.814L95.2433 117.049C100.703 114.013 105.041 110.068 108.994 106.509L99.6254 96.1052ZM104.109 92.1377C102.516 93.5015 101.018 94.8508 99.6254 96.1052L108.994 106.509C110.404 105.239 111.776 104.004 113.215 102.771L104.109 92.1377ZM124.369 80.7698C115.66 82.9725 109.222 87.7589 104.109 92.1377L113.215 102.771C117.791 98.852 122.243 95.7482 127.802 94.3424L124.369 80.7698ZM118.79 70.5982C118.358 72.7952 118.098 75.0498 118.023 77.3473L132.015 77.809C132.066 76.2649 132.24 74.7588 132.527 73.2983L118.79 70.5982ZM96.1736 67.3784C106.606 72.3212 116.129 75.8671 122.089 78.0878L126.977 64.969C121.032 62.7539 112.007 59.3882 102.168 54.7265L96.1736 67.3784ZM87.8464 63.3877C90.662 64.7445 93.4528 66.0894 96.1736 67.3784L102.168 54.7265C99.496 53.4607 96.7474 52.1363 93.9238 50.7757L87.8464 63.3877ZM50.5834 47.224C62.4065 51.1414 75.3455 57.3639 87.8464 63.3877L93.9238 50.7757C81.6256 44.8495 67.8338 38.1912 54.9867 33.9345L50.5834 47.224ZM26.9992 42.9084C32.4594 42.4722 40.5534 43.9007 50.5834 47.224L54.9867 33.9345C44.4031 30.4278 34.1671 28.2912 25.8844 28.9529L26.9992 42.9084ZM22.4223 44.119C23.0296 43.7106 24.375 43.118 26.9992 42.9084L25.8844 28.9529C21.7071 29.2866 17.8125 30.3477 14.6095 32.5018L22.4223 44.119ZM21.2796 45.8909C21.4621 45.2633 21.6666 44.9021 21.8192 44.6901C21.9677 44.4836 22.1504 44.3019 22.4223 44.119L14.6095 32.5018C11.361 34.6865 9.03589 37.8567 7.83639 41.9819L21.2796 45.8909ZM22.7805 47.078C21.9061 45.7829 21.6193 44.9239 21.5316 44.5768C21.4862 44.3971 21.4943 44.3559 21.4991 44.4567C21.5014 44.5066 21.504 44.6124 21.4928 44.77C21.4832 44.9064 21.456 45.1907 21.3637 45.5743L7.75232 42.2984C6.9798 45.5082 7.93196 50.1047 11.1773 54.9117L22.7805 47.078ZM36.3473 57.6541C28.3229 53.5582 24.4897 49.6097 22.7805 47.078L11.1773 54.9117C14.5073 59.8442 20.3736 65.219 29.9827 70.1237L36.3473 57.6541ZM38.1622 58.5804L36.3473 57.6541L29.9827 70.1236L31.7976 71.05L38.1622 58.5804ZM42.0635 66.54L41.973 64.5044L27.9868 65.126L28.0773 67.1617L42.0635 66.54ZM47.7431 76.3832C43.6284 73.5118 42.1846 69.2663 42.0635 66.54L28.0773 67.1617C28.357 73.4543 31.445 82.0815 39.7312 87.8641L47.7431 76.3832ZM76.8324 77.9169C60.1142 81.9882 51.7041 79.1474 47.7431 76.3832L39.7312 87.8641C48.0698 93.6831 61.0199 96.1767 80.1449 91.5193L76.8324 77.9169ZM76.9041 77.8994L76.8322 77.9169L80.1451 91.5193L80.217 91.5018L76.9041 77.8994ZM77.2662 77.8209L77.1937 77.8354L79.9274 91.5659L79.9999 91.5514L77.2662 77.8209ZM89.4943 75.5221C84.7465 76.3697 80.4789 77.181 77.2656 77.821L80.0005 91.5513C83.1172 90.9305 87.2932 90.1364 91.9549 89.3042L89.4943 75.5221ZM94.4616 74.6535C92.7829 74.9407 91.1375 75.2288 89.5469 75.5127L92.0065 89.295C93.5663 89.0166 95.179 88.7342 96.8231 88.4529L94.4616 74.6535ZM124.55 70.5938C116.293 71.1478 104.511 72.9338 94.4616 74.6535L96.8231 88.4529C106.854 86.7363 118.013 85.0639 125.487 84.5624L124.55 70.5938ZM217.969 92.1703C212.873 87.7899 206.451 83.0019 197.73 80.8031L194.307 94.3783C199.863 95.7789 204.291 98.874 208.844 102.787L217.969 92.1703ZM222.408 96.1124C221.029 94.8663 219.546 93.5256 217.969 92.1703L208.844 102.787C210.268 104.012 211.625 105.238 213.022 106.5L222.408 96.1124ZM233.561 104.814C229.711 102.672 226.526 99.8335 222.408 96.1124L213.022 106.5C216.96 110.058 221.286 114.007 226.757 117.049L233.561 104.814ZM251.791 106.507C246.035 107.936 239.128 107.573 233.274 104.663L227.043 117.2C236.264 121.783 246.633 122.211 255.162 120.096L251.791 106.507ZM260.028 101.969C260.061 101.866 259.812 102.595 258.321 103.679C256.919 104.699 254.753 105.772 251.791 106.507L255.162 120.096C259.601 118.994 263.481 117.238 266.558 115C269.545 112.827 272.206 109.869 273.369 106.214L260.028 101.969ZM260.349 106.776C260.236 106.555 259.905 105.866 259.773 104.855C259.7 104.302 259.691 103.685 259.787 103.028C259.833 102.708 259.897 102.428 259.961 102.196C260.02 101.981 260.081 101.81 260.076 101.822L273.326 106.343C273.53 105.744 273.854 104.561 273.654 103.037C273.503 101.881 273.107 100.979 272.831 100.436L260.349 106.776ZM260.437 107.136C260.692 107.343 260.78 107.445 260.763 107.426C260.753 107.415 260.707 107.361 260.638 107.263C260.571 107.167 260.465 107.005 260.349 106.776L272.831 100.435C272.003 98.806 270.691 97.4309 269.276 96.2785L260.437 107.136ZM252.897 103.181C256.751 104.753 259.231 106.154 260.437 107.136L269.276 96.2784C266.447 93.9757 262.435 91.9521 258.185 90.2182L252.897 103.181ZM229.056 96.2347C235.748 97.6057 245.433 100.136 252.897 103.181L258.185 90.2182C249.621 86.7249 239.016 83.9846 231.865 82.5196L229.056 96.2347ZM224.91 95.5078C226.379 95.7614 227.823 96.0158 229.225 96.2673L231.696 82.487C230.265 82.2305 228.793 81.971 227.293 81.712L224.91 95.5078ZM196.145 91.5494C203.352 92.0358 214.605 93.728 224.91 95.5078L227.293 81.712C216.977 79.9304 205.09 78.1212 197.087 77.5812L196.145 91.5494ZM202.819 89.2499C203.11 88.0575 203.35 86.8455 203.537 85.6163L189.696 83.5142C189.571 84.3333 189.411 85.1395 189.218 85.9315L202.819 89.2499ZM232.974 75.6046C221.827 73.605 207.144 71.238 197.444 70.5908L196.512 84.5597C205.345 85.1491 219.329 87.3804 230.503 89.3847L232.974 75.6046ZM244.734 77.821C241.757 77.2279 237.879 76.4883 233.556 75.7092L231.073 89.4872C235.317 90.2522 239.111 90.9759 242 91.5513L244.734 77.821ZM244.806 77.8354L244.734 77.8209L242 91.5514L242.073 91.5659L244.806 77.8354ZM245.168 77.917L245.096 77.8995L241.783 91.5018L241.855 91.5193L245.168 77.917ZM274.257 76.3832C270.296 79.1474 261.886 81.9882 245.168 77.9169L241.855 91.5193C260.98 96.1767 273.93 93.6831 282.269 87.8641L274.257 76.3832ZM279.937 66.5401C279.815 69.2663 278.372 73.5118 274.257 76.3832L282.269 87.8641C290.555 82.0815 293.643 73.4543 293.923 67.1616L279.937 66.5401ZM280.027 64.5044L279.937 66.54L293.923 67.1617L294.013 65.1261L280.027 64.5044ZM285.653 57.6541L283.838 58.5804L290.203 71.05L292.017 70.1236L285.653 57.6541ZM299.22 47.078C297.51 49.6097 293.677 53.5582 285.653 57.6541L292.017 70.1237C301.626 65.219 307.493 59.8442 310.823 54.9117L299.22 47.078ZM300.636 45.5744C300.544 45.1908 300.517 44.9064 300.507 44.77C300.496 44.6124 300.499 44.5066 300.501 44.4567C300.506 44.3559 300.514 44.3972 300.468 44.5769C300.381 44.9239 300.094 45.7829 299.22 47.078L310.823 54.9117C314.068 50.1046 315.02 45.5079 314.248 42.2982L300.636 45.5744ZM299.578 44.119C299.85 44.3019 300.032 44.4836 300.181 44.6901C300.333 44.9021 300.538 45.2633 300.72 45.8908L314.164 41.9817C312.964 37.8567 310.639 34.6864 307.39 32.5018L299.578 44.119ZM295.001 42.9084C297.625 43.118 298.97 43.7106 299.578 44.119L307.391 32.5018C304.188 30.3477 300.293 29.2866 296.116 28.9529L295.001 42.9084ZM271.417 47.224C281.447 43.9007 289.541 42.4722 295.001 42.9084L296.116 28.9529C287.833 28.2912 277.597 30.4278 267.013 33.9345L271.417 47.224ZM234.154 63.3877C246.655 57.3639 259.594 51.1414 271.417 47.224L267.013 33.9345C254.166 38.1911 240.375 44.8494 228.076 50.7756L234.154 63.3877ZM225.826 67.3784C228.547 66.0893 231.338 64.7445 234.154 63.3877L228.076 50.7756C225.253 52.1363 222.504 53.4607 219.832 54.7265L225.826 67.3784ZM199.847 78.1084C205.828 75.8805 215.401 72.3177 225.826 67.3784L219.832 54.7265C210.002 59.3837 200.929 62.7656 194.96 64.9888L199.847 78.1084ZM198.726 78.5262C199.083 78.3926 199.456 78.2537 199.847 78.1083L194.96 64.9888C194.571 65.1337 194.193 65.2745 193.83 65.41L198.726 78.5262ZM203.971 77.2551C203.866 74.9758 203.583 72.7377 203.134 70.556L189.422 73.3802C189.724 74.846 189.915 76.354 189.985 77.8954L203.971 77.2551ZM171.466 41.0909C171.74 42.4649 171.75 44.4545 171.43 46.8156L185.303 48.6985C185.736 45.5032 185.886 41.817 185.196 38.3545L171.466 41.0909ZM171.283 40.2586C171.15 40.1179 171.142 40.0574 171.198 40.1774C171.256 40.3029 171.365 40.5877 171.466 41.0909L185.196 38.3546C184.649 35.6101 183.539 32.847 181.464 30.6482L171.283 40.2586ZM171.672 40.5918C171.846 40.6248 171.822 40.6434 171.686 40.5701C171.622 40.5356 171.549 40.4892 171.474 40.4309C171.399 40.3728 171.335 40.3132 171.283 40.2585L181.464 30.6482C179.676 28.7546 177.281 27.4033 174.267 26.8346L171.672 40.5918ZM181.734 41.6202C177.117 39.0869 171.981 37.377 166.528 36.6909L164.78 50.5814C168.447 51.0427 171.895 52.1907 174.999 53.8938L181.734 41.6202ZM172.609 44.4341C172.676 43.8485 172.818 43.0566 173.045 42.2364C173.277 41.3993 173.549 40.7152 173.805 40.2477C174.089 39.7275 174.147 39.8518 173.756 40.1145C173.522 40.2714 173.16 40.4528 172.69 40.5489C172.212 40.6467 171.796 40.6203 171.508 40.559L174.431 26.8674C171.262 26.1911 168.307 26.9091 165.949 28.4934C163.801 29.9363 162.411 31.905 161.523 33.5272C159.765 36.7409 158.974 40.4512 158.7 42.8382L172.609 44.4341ZM125.85 23.3696C125.545 23.1698 125.415 23.005 125.465 23.0627C125.487 23.0891 125.536 23.1482 125.624 23.2641C125.716 23.3866 125.814 23.5218 125.964 23.7307L137.331 15.5587C136.908 14.9702 135.605 13.0192 133.507 11.649L125.85 23.3696ZM125.964 23.7307C126.383 24.3146 128.391 27.5299 132.199 28.6968L136.301 15.3113C136.701 15.4337 137.037 15.605 137.298 15.7769C137.55 15.9418 137.703 16.0881 137.761 16.147C137.815 16.2013 137.809 16.2027 137.724 16.0938C137.631 15.9749 137.527 15.8317 137.331 15.5588L125.964 23.7307ZM130.147 58.6787L129.276 58.3542L124.384 71.4716L125.254 71.7961L130.147 58.6787ZM192.665 58.3723L191.75 58.7137L196.64 71.8317L197.556 71.4904L192.665 58.3723ZM190.894 28.7785C194.796 27.5826 196.801 24.2203 197.197 23.6473L185.683 15.6835C185.489 15.9639 185.386 16.1109 185.295 16.2329C185.211 16.3449 185.205 16.3419 185.261 16.2837C185.321 16.2208 185.48 16.0645 185.743 15.8886C186.016 15.7052 186.37 15.5222 186.791 15.3929L190.894 28.7785ZM197.197 23.6473C197.343 23.4366 197.438 23.2995 197.528 23.1755C197.613 23.0578 197.66 22.9982 197.682 22.9719C197.703 22.947 197.681 22.9761 197.619 23.0355C197.554 23.0967 197.441 23.196 197.277 23.3072L189.414 11.7242C187.353 13.1233 186.084 15.1037 185.683 15.6835L197.197 23.6473ZM140.289 86.1895L140.277 86.1585L127.105 90.9012L127.116 90.9321L140.289 86.1895ZM61.8794 101.697L61.8768 101.69L48.7216 106.479L48.7242 106.486L61.8794 101.697ZM89.5468 75.5127L89.4947 75.522L91.9545 89.3042L92.0066 89.2949L89.5468 75.5127ZM260.062 101.866L260.059 101.874L273.338 106.309L273.341 106.3L260.062 101.866ZM233.553 75.7087L232.989 75.6072L230.511 89.3862L231.076 89.4877L233.553 75.7087ZM232.989 75.6073L232.978 75.6053L230.499 89.384L230.51 89.3861L232.989 75.6073ZM163.542 42.0942C163.298 40.9996 162.65 37.026 161.315 34.0009C160.602 32.3858 159.365 30.191 157.16 28.5584C154.659 26.7069 151.578 26.0727 148.425 26.7459L151.349 40.4372C151.155 40.4786 150.739 40.5269 150.192 40.4134C149.637 40.2982 149.17 40.0625 148.831 39.8111C148.257 39.3862 148.254 39.0822 148.507 39.6539C148.729 40.1572 148.96 40.9065 149.202 41.9443C149.318 42.4427 149.423 42.95 149.533 43.4901C149.636 43.9928 149.757 44.5996 149.876 45.1354L163.542 42.0942ZM178.449 152.779L178.279 152.83L182.272 166.249L182.442 166.198L178.449 152.779ZM178.289 152.827L178.063 152.894L182.035 166.319L182.261 166.252L178.289 152.827ZM144.157 152.895C144.094 152.876 144.031 152.857 143.968 152.838L139.99 166.261C140.06 166.282 140.131 166.303 140.202 166.324L144.157 152.895ZM143.968 152.838C143.905 152.82 143.843 152.801 143.78 152.783L139.782 166.2C139.851 166.22 139.92 166.241 139.99 166.261L143.968 152.838ZM128.106 65.3899L127.567 65.1889L122.673 78.3057L123.212 78.5066L128.106 65.3899ZM127.565 65.188L126.977 64.9692L122.088 78.0877L122.675 78.3066L127.565 65.188Z" fill="#26619C" mask="url(#path-3-outside-1_23_24)"/>
</svg>
