<svg width="36" height="37" viewBox="0 0 36 37" fill="none" xmlns="http://www.w3.org/2000/svg">
<path d="M24 12.338C26.3869 12.338 28.6761 13.2862 30.364 14.9741C32.0518 16.6619 33 18.9511 33 21.338V31.838H27V21.338C27 20.5424 26.6839 19.7793 26.1213 19.2167C25.5587 18.6541 24.7956 18.338 24 18.338C23.2044 18.338 22.4413 18.6541 21.8787 19.2167C21.3161 19.7793 21 20.5424 21 21.338V31.838H15V21.338C15 18.9511 15.9482 16.6619 17.636 14.9741C19.3239 13.2862 21.6131 12.338 24 12.338Z" stroke="#26619C" stroke-linecap="round" stroke-linejoin="round"/>
<path d="M9 13.838H3V31.838H9V13.838Z" stroke="#26619C" stroke-linecap="round" stroke-linejoin="round"/>
<path d="M6 9.33801C7.65685 9.33801 9 7.99487 9 6.33801C9 4.68116 7.65685 3.33801 6 3.33801C4.34315 3.33801 3 4.68116 3 6.33801C3 7.99487 4.34315 9.33801 6 9.33801Z" stroke="#26619C" stroke-linecap="round" stroke-linejoin="round"/>
</svg>
