<svg width="30" height="30" viewBox="0 0 30 30" fill="none" xmlns="http://www.w3.org/2000/svg">
<path d="M17.6309 12.5004L17.4749 12.6777L17.6106 12.871L29.4228 29.6939H21.2248L13.1332 18.1714L12.914 17.8594L12.6623 18.1458L2.51009 29.6939H0.66341L11.9363 16.8777L12.0923 16.7004L11.9565 16.5071L0.577319 0.306104H8.77525L16.4341 11.2068L16.6531 11.5186L16.9048 11.2325L26.5144 0.306104H28.361L17.6309 12.5004ZM13.9843 16.9996L13.9848 17.0003L22.0685 28.309L22.1582 28.4345H22.3126H26.3788H26.962L26.6228 27.9601L16.7163 14.1031L16.7161 14.1028L15.5276 12.4451L15.5273 12.4446L7.9072 1.77646L7.81747 1.65083H7.66308H3.59683H3.01341L3.35283 2.12536L12.8016 15.3353L12.8021 15.3361L13.9843 16.9996Z" stroke="#26619C" stroke-width="0.6"/>
</svg>
