<svg width="321" height="198" viewBox="0 0 321 198" fill="none" xmlns="http://www.w3.org/2000/svg">
<path d="M160.63 134.001C146.899 134.006 126.777 124.501 126.777 124.501C125.195 134.112 128.049 143.94 133.02 153.001C133.02 153.001 149.552 159.504 160.63 159.501C171.69 159.497 188.197 153.001 188.197 153.001C193.156 143.94 196.003 134.111 194.429 124.501C194.429 124.501 174.34 133.995 160.63 134.001Z" fill="#26619C"/>
<path d="M192.974 80.9213C193.003 80.3656 193.018 79.8056 193.018 79.2419C193.018 75.9581 192.529 72.7885 191.621 69.8018C187.58 56.5189 175.233 46.8535 160.63 46.8535C153.019 46.8535 145.979 49.3913 140.4 53.6852C135.164 57.7161 131.216 63.2944 129.296 69.7733C128.453 72.6145 128.001 75.629 128.001 78.7621C128.001 79.4876 128.025 80.2076 128.072 80.9213C128.274 83.9881 128.903 86.9383 129.899 89.7131C129.966 89.8984 130.034 90.083 130.104 90.2668C132.03 95.335 135.192 99.7944 139.222 103.277C144.899 108.183 152.298 111.151 160.39 111.151C168.626 111.151 176.195 108.178 181.966 103.224C185.989 99.7695 189.137 95.3521 191.028 90.3075C192.129 87.3694 192.803 84.2186 192.974 80.9213Z" fill="#26619C"/>
<path d="M160.63 46.8535C168.023 46.8535 174.838 49.3308 180.289 53.5006C182.513 44.971 183.443 31.2624 171.964 30.1084C169.022 29.8125 165.3 40.7774 160.63 42.5006C156.393 40.9372 152.935 29.9177 150.132 30.0267C137.793 30.5066 138.124 44.9528 140.4 53.6852C145.979 49.3913 153.019 46.8535 160.63 46.8535Z" fill="#26619C"/>
<path d="M128.001 78.7621C128.001 75.629 128.453 72.6145 129.296 69.7733C124.053 67.7256 112.846 63.8947 100.171 57.8895C85.7863 51.0743 68.795 42.3618 53.3878 37.2569C32.4964 30.3348 14.5867 29.4192 10.683 43.0148C9.6434 46.9334 12.6503 57.6016 31.0758 67.0063C31.5556 77.8024 41.7759 97.1395 78.8187 88.1187C81.961 87.4928 86.16 86.6945 90.8417 85.8587C92.4248 85.576 94.0633 85.289 95.7346 85.003C107.434 83.0008 120.751 81.0439 128.072 80.9213C128.025 80.2076 128.001 79.4876 128.001 78.7621Z" fill="#26619C"/>
<path d="M90.8417 85.8587C76.7667 88.7376 48.7814 96.7077 51.4685 105.153C54.8273 115.709 76.1797 122.426 92.9737 114.029C106.409 106.592 113.74 92.2763 130.104 90.2668C130.034 90.083 129.966 89.8984 129.899 89.7131C128.903 86.9383 128.274 83.9881 128.072 80.9213C120.751 81.0439 107.434 83.0008 95.7346 85.003C94.0633 85.289 92.4248 85.576 90.8417 85.8587Z" fill="#26619C"/>
<path d="M192.974 80.9213C192.803 84.2186 192.129 87.3694 191.028 90.3075C207.391 92.3171 214.595 106.592 228.03 114.029C244.824 122.426 266.177 115.709 269.535 105.153C272.222 96.7077 244.697 88.8186 230.622 85.9397C217.905 83.6584 201.441 81.0631 192.974 80.9213Z" fill="#26619C"/>
<path d="M193.018 79.2419C193.018 79.8056 193.003 80.3656 192.974 80.9213C201.441 81.0631 217.905 83.6584 230.622 85.9397C230.814 85.9741 231.005 86.0084 231.196 86.0427C235.46 86.8112 239.274 87.5389 242.185 88.1187C279.228 97.1395 289.448 77.8024 289.928 67.0063C308.354 57.6016 311.361 46.9334 310.321 43.0148C306.417 29.4192 288.508 30.3348 267.616 37.2569C252.209 42.3618 235.218 51.0743 220.833 57.8895C208.158 63.8947 196.863 67.7542 191.621 69.8018C192.529 72.7885 193.018 75.9581 193.018 79.2419Z" fill="#26619C"/>
<path d="M181.966 103.224C176.195 108.178 168.626 111.151 160.39 111.151C152.298 111.151 144.899 108.183 139.222 103.277C131.789 109.93 127.986 117.151 126.777 124.501C126.777 124.501 146.899 134.006 160.63 134.001C174.34 133.995 194.429 124.501 194.429 124.501C193.221 117.131 189.414 109.89 181.966 103.224Z" fill="#26619C"/>
<path d="M133.02 153.001C140.148 165.993 151.63 177.405 160.63 184.324C169.623 177.409 181.083 165.996 188.197 153.001C188.197 153.001 171.69 159.497 160.63 159.501C149.552 159.504 133.02 153.001 133.02 153.001Z" fill="#26619C"/>
<path d="M160.63 134.001C146.899 134.006 126.777 124.501 126.777 124.501C125.195 134.112 128.049 143.94 133.02 153.001C133.02 153.001 149.552 159.504 160.63 159.501C171.69 159.497 188.197 153.001 188.197 153.001C193.156 143.94 196.003 134.111 194.429 124.501C194.429 124.501 174.34 133.995 160.63 134.001Z" fill="#26619C"/>
<path d="M192.974 80.9213C193.003 80.3656 193.018 79.8056 193.018 79.2419C193.018 75.9581 192.529 72.7885 191.621 69.8018C187.58 56.5189 175.233 46.8535 160.63 46.8535C153.019 46.8535 145.979 49.3913 140.4 53.6852C135.164 57.7161 131.216 63.2944 129.296 69.7733C128.453 72.6145 128.001 75.629 128.001 78.7621C128.001 79.4876 128.025 80.2076 128.072 80.9213C128.274 83.9881 128.903 86.9383 129.899 89.7131C129.966 89.8984 130.034 90.083 130.104 90.2668C132.03 95.335 135.192 99.7944 139.222 103.277C144.899 108.183 152.298 111.151 160.39 111.151C168.626 111.151 176.195 108.178 181.966 103.224C185.989 99.7695 189.137 95.3521 191.028 90.3075C192.129 87.3694 192.803 84.2186 192.974 80.9213Z" fill="#26619C"/>
<path d="M160.63 46.8535C168.023 46.8535 174.838 49.3308 180.289 53.5006C182.513 44.971 183.443 31.2624 171.964 30.1084C169.022 29.8125 165.3 40.7774 160.63 42.5006C156.393 40.9372 152.935 29.9177 150.132 30.0267C137.793 30.5066 138.124 44.9528 140.4 53.6852C145.979 49.3913 153.019 46.8535 160.63 46.8535Z" fill="#26619C"/>
<path d="M128.001 78.7621C128.001 75.629 128.453 72.6145 129.296 69.7733C124.053 67.7256 112.846 63.8947 100.171 57.8895C85.7863 51.0743 68.795 42.3618 53.3878 37.2569C32.4964 30.3348 14.5867 29.4192 10.683 43.0148C9.6434 46.9334 12.6503 57.6016 31.0758 67.0063C31.5556 77.8024 41.7759 97.1395 78.8187 88.1187C81.961 87.4928 86.16 86.6945 90.8417 85.8587C92.4248 85.576 94.0633 85.289 95.7346 85.003C107.434 83.0008 120.751 81.0439 128.072 80.9213C128.025 80.2076 128.001 79.4876 128.001 78.7621Z" fill="#26619C"/>
<path d="M90.8417 85.8587C76.7667 88.7376 48.7814 96.7077 51.4685 105.153C54.8273 115.709 76.1797 122.426 92.9737 114.029C106.409 106.592 113.74 92.2763 130.104 90.2668C130.034 90.083 129.966 89.8984 129.899 89.7131C128.903 86.9383 128.274 83.9881 128.072 80.9213C120.751 81.0439 107.434 83.0008 95.7346 85.003C94.0633 85.289 92.4248 85.576 90.8417 85.8587Z" fill="#26619C"/>
<path d="M192.974 80.9213C192.803 84.2186 192.129 87.3694 191.028 90.3075C207.391 92.3171 214.595 106.592 228.03 114.029C244.824 122.426 266.177 115.709 269.535 105.153C272.222 96.7077 244.697 88.8186 230.622 85.9397C217.905 83.6584 201.441 81.0631 192.974 80.9213Z" fill="#26619C"/>
<path d="M193.018 79.2419C193.018 79.8056 193.003 80.3656 192.974 80.9213C201.441 81.0631 217.905 83.6584 230.622 85.9397C230.814 85.9741 231.005 86.0084 231.196 86.0427C235.46 86.8112 239.274 87.5389 242.185 88.1187C279.228 97.1395 289.448 77.8024 289.928 67.0063C308.354 57.6016 311.361 46.9334 310.321 43.0148C306.417 29.4192 288.508 30.3348 267.616 37.2569C252.209 42.3618 235.218 51.0743 220.833 57.8895C208.158 63.8947 196.863 67.7542 191.621 69.8018C192.529 72.7885 193.018 75.9581 193.018 79.2419Z" fill="#26619C"/>
<path d="M181.966 103.224C176.195 108.178 168.626 111.151 160.39 111.151C152.298 111.151 144.899 108.183 139.222 103.277C131.789 109.93 127.986 117.151 126.777 124.501C126.777 124.501 146.899 134.006 160.63 134.001C174.34 133.995 194.429 124.501 194.429 124.501C193.221 117.131 189.414 109.89 181.966 103.224Z" fill="#26619C"/>
<path d="M133.02 153.001C140.148 165.993 151.63 177.405 160.63 184.324C169.623 177.409 181.083 165.996 188.197 153.001C188.197 153.001 171.69 159.497 160.63 159.501C149.552 159.504 133.02 153.001 133.02 153.001Z" fill="#26619C"/>
<mask id="path-3-outside-1_23_18" maskUnits="userSpaceOnUse" x="-1" y="-1" width="323" height="199" fill="black">
<rect fill="white" x="-1" y="-1" width="323" height="199"/>
<path fill-rule="evenodd" clip-rule="evenodd" d="M205.882 9.9059C206.211 11.8108 204.933 13.6213 203.028 13.9497C197.828 14.8462 194.669 16.2792 192.847 17.5157C192.057 18.0519 191.495 18.8651 190.941 19.6654C190.221 20.7069 189.516 21.7267 188.344 22.0857C182.761 23.7968 179.45 25.8553 177.583 27.539C177.439 27.669 177.305 27.7957 177.179 27.9188C178.631 28.5976 179.896 29.5151 180.965 30.6482C183.043 32.8489 184.151 35.6136 184.697 38.3546C185.605 42.9095 185.083 48.009 184.198 52.1766C188.283 55.7376 191.554 60.2084 193.697 65.2727L194.612 64.9313C200.61 62.6963 209.52 59.376 219.334 54.7265C221.931 53.4963 224.63 52.1951 227.403 50.8582C239.813 44.8758 253.704 38.1793 266.515 33.9345C277.1 30.4274 287.335 28.2912 295.617 28.9529C299.793 29.2865 303.689 30.3472 306.892 32.5018C310.162 34.7008 312.492 37.8953 313.685 42.0489L313.695 42.083L313.704 42.1173C314.575 45.4032 313.575 50.0971 310.324 54.9117C307.198 59.5428 301.836 64.5635 293.24 69.2188C292.438 75.2338 289.188 82.6876 281.771 87.8641C277.464 90.8695 271.928 92.9872 264.949 93.6917C266.37 94.5104 267.665 95.3729 268.778 96.2785C271.426 98.4346 274.244 101.896 272.87 106.214C270.642 113.218 262.976 118.033 254.664 120.096C246.112 122.217 235.706 121.781 226.465 117.16L226.399 117.127L226.335 117.092C220.871 114.067 216.262 109.896 212.079 106.111C210.799 104.952 209.558 103.83 208.345 102.787C203.655 98.7561 199.047 95.5472 193.166 94.2249C191.589 97.5495 189.506 100.579 187.019 103.227C193.261 109.672 196.695 116.687 197.882 123.935C199.629 134.596 196.437 145.235 191.267 154.681C183.853 168.226 172.011 179.988 162.763 187.099L160.629 188.739L158.496 187.099C149.245 179.986 137.381 168.226 129.951 154.684C124.769 145.238 121.568 134.597 123.323 123.932C124.513 116.702 127.945 109.705 134.175 103.273C131.671 100.596 129.571 97.5332 127.974 94.1823C122.08 95.5055 117.44 98.726 112.717 102.771C111.491 103.821 110.237 104.952 108.943 106.119C104.742 109.906 100.121 114.073 94.6686 117.092L94.6043 117.127L94.5387 117.16C85.2971 121.781 74.8913 122.217 66.3399 120.096C58.0274 118.033 50.3617 113.218 48.133 106.214C46.7489 101.864 49.6477 98.3935 52.3161 96.2509C53.4267 95.3593 54.7165 94.5084 56.1304 93.6993C49.1153 93.0024 43.5551 90.8803 39.2329 87.8641C31.8152 82.6876 28.5654 75.2338 27.7633 69.2188C19.1677 64.5635 13.8056 59.5428 10.679 54.9117C7.42849 50.097 6.42807 45.4032 7.29984 42.1173L7.30894 42.083L7.31873 42.0489C8.51136 37.8953 10.8414 34.7008 14.1112 32.5018C17.3149 30.3472 21.21 29.2865 25.3861 28.9529C33.6682 28.2912 43.9038 30.4274 54.4884 33.9345C67.2998 38.1793 81.1909 44.8759 93.6005 50.8582C96.3737 52.1951 99.0728 53.4963 101.669 54.7265C111.492 59.3804 120.358 62.6855 126.332 64.9129L127.202 65.2374C129.292 60.2499 132.5 55.8665 136.502 52.3603C135.614 48.0039 135.222 42.6443 136.387 37.923C137.084 35.0995 138.391 32.2934 140.697 30.1398C141.845 29.0671 143.177 28.2178 144.681 27.6117C144.627 27.5608 144.571 27.5093 144.513 27.4573C142.646 25.7736 139.335 23.7151 133.752 22.0041C132.589 21.6477 131.878 20.6589 131.149 19.6447C130.579 18.8517 129.998 18.0432 129.181 17.5093C127.282 16.2689 124.04 14.8483 118.828 13.9497C116.923 13.6213 115.645 11.8108 115.974 9.9059C116.302 8.001 118.113 6.72303 120.018 7.05146C125.937 8.0721 130.133 9.77042 133.009 11.6489C134.906 12.8882 136.383 14.3154 137.295 15.7913C142.803 17.6499 146.632 19.9416 149.201 22.2594C150.456 23.3914 151.464 24.5823 152.199 25.7713C159.007 24.1346 165.572 24.8108 169.904 25.842C170.639 24.6566 171.644 23.4696 172.895 22.3411C175.461 20.0266 179.283 17.738 184.778 15.8808C185.642 14.4346 187.04 12.9973 188.916 11.7242C191.748 9.80101 195.906 8.0743 201.839 7.05146C203.743 6.72303 205.554 8.001 205.882 9.9059ZM160.629 50.3534C153.806 50.3534 147.513 52.627 142.535 56.4587C137.86 60.0572 134.354 65.0224 132.651 70.7679C131.904 73.2882 131.501 75.9677 131.501 78.7621C131.501 79.4109 131.522 80.0542 131.564 80.6914C131.744 83.4285 132.305 86.0581 133.193 88.5298L133.204 88.5608C133.26 88.7156 133.317 88.8697 133.375 89.0233C133.424 89.152 133.474 89.2803 133.525 89.4082C135.254 93.7661 138.015 97.6079 141.51 100.629C146.576 105.006 153.169 107.651 160.389 107.651C167.774 107.651 174.538 104.988 179.685 100.568C183.275 97.4862 186.073 93.5548 187.75 89.0794C188.727 86.4731 189.326 83.6749 189.479 80.7394C189.505 80.2443 189.518 79.745 189.518 79.2419C189.518 76.3071 189.081 73.4806 188.272 70.8205C186.497 64.9845 182.924 59.9328 178.199 56.3083L178.163 56.2806C173.3 52.562 167.221 50.3534 160.629 50.3534ZM139.438 107.903C134.779 112.636 132.077 117.545 130.787 122.458C131.012 122.555 131.251 122.657 131.502 122.764C133.553 123.633 136.428 124.793 139.716 125.951C146.404 128.306 154.393 130.503 160.628 130.501C166.854 130.498 174.83 128.301 181.507 125.948C184.79 124.79 187.66 123.631 189.708 122.762C189.958 122.656 190.196 122.554 190.421 122.457C189.13 117.523 186.42 112.593 181.743 107.843C175.735 112.141 168.335 114.651 160.389 114.651C152.572 114.651 145.333 112.148 139.438 107.903ZM191.361 129.66C189.333 130.502 186.741 131.525 183.834 132.549C177.039 134.944 168.116 137.497 160.631 137.501C153.135 137.504 144.197 134.95 137.391 132.554C134.475 131.527 131.874 130.501 129.841 129.658C129.785 136.435 131.928 143.406 135.483 150.19C135.883 150.337 136.374 150.516 136.943 150.717C138.622 151.311 140.974 152.104 143.66 152.895C149.124 154.504 155.621 156.002 160.628 156.001C165.628 155.999 172.115 154.501 177.571 152.892C180.252 152.101 182.6 151.31 184.277 150.716C184.844 150.516 185.333 150.338 185.731 150.191C189.277 143.409 191.416 136.438 191.361 129.66ZM179.947 159.489L179.777 159.539L179.551 159.606C173.988 161.246 166.692 162.998 160.631 163.001C154.56 163.003 147.253 161.251 141.681 159.609C141.614 159.59 141.547 159.57 141.48 159.55C141.414 159.53 141.349 159.511 141.283 159.491C147.131 167.599 154.321 174.72 160.629 179.86C166.932 174.722 174.11 167.6 179.947 159.489ZM125.587 87.5561C125.34 86.5736 125.133 85.5751 124.968 84.5627C117.61 85.0562 106.479 86.7151 96.3248 88.4529C94.6769 88.7349 93.0615 89.0177 91.4999 89.2964C84.577 90.7148 74.3142 93.3712 66.1823 96.6627C62.0702 98.3271 58.762 100.053 56.6987 101.709C55.6686 102.536 55.1442 103.193 54.9178 103.63C54.7503 103.952 54.7875 104.049 54.8009 104.084L54.8035 104.091C55.9336 107.643 60.6235 111.465 68.0254 113.302C75.1677 115.073 83.8058 114.678 91.3428 110.932C95.9987 108.342 99.768 104.948 103.811 101.307C105.213 100.045 106.648 98.7527 108.164 97.4544C113.008 93.3055 118.453 89.3603 125.587 87.5561ZM124.52 77.5781C124.584 75.6573 124.801 73.777 125.16 71.9483L124.622 71.7473L124.035 71.5284C118.082 69.3105 108.808 65.8547 98.6724 61.0525C95.9761 59.775 93.2064 58.4404 90.3868 57.0817C77.9873 51.1067 64.6219 44.6663 52.2868 40.5792C41.98 37.1643 32.815 35.3817 25.9435 35.9306C22.5428 36.2023 19.9228 37.0292 18.0176 38.3104C16.1889 39.5402 14.8215 41.3165 14.0597 43.9364C13.8979 44.6087 13.9129 47.1916 16.4806 50.9949C19.0002 54.7269 23.8499 59.3886 32.6667 63.8889L34.4816 64.8152L34.5721 66.8508C34.7725 71.3603 37.0384 77.7967 43.2389 82.1236C49.3887 86.4153 60.0687 89.0825 77.9904 84.7181L78.0622 84.7006L78.1348 84.6862C81.2998 84.0557 85.5216 83.2531 90.2263 82.4131L90.2784 82.4038C91.8536 82.1227 93.4827 81.8375 95.144 81.5532C105.184 79.835 116.655 78.1058 124.52 77.5781ZM195.52 87.5907C202.659 89.3904 208.084 93.332 212.908 97.4788C214.409 98.7686 215.829 100.052 217.217 101.306C221.245 104.946 225 108.34 229.661 110.932C237.198 114.678 245.836 115.073 252.978 113.302C260.38 111.465 265.07 107.643 266.2 104.091L266.203 104.083C266.22 104.032 266.255 103.929 266.091 103.606C265.873 103.175 265.364 102.526 264.358 101.707C262.341 100.065 259.095 98.3527 255.042 96.6996C247.029 93.4307 236.884 90.7952 229.962 89.3772C228.546 89.1232 227.088 88.8662 225.603 88.6099C215.293 86.8292 203.722 85.0785 196.118 84.5653C195.962 85.5894 195.763 86.5985 195.52 87.5907ZM196.48 77.5753C205.746 78.1935 220.08 80.4927 231.24 82.4947L231.252 82.4967L231.816 82.5982C236.1 83.3702 239.936 84.1019 242.869 84.6862L242.941 84.7006L243.013 84.7181C260.935 89.0825 271.615 86.4153 277.765 82.1236C283.965 77.7967 286.231 71.3603 286.431 66.8508L286.522 64.8152L288.337 63.8889C297.154 59.3886 302.003 54.727 304.523 50.9949C307.091 47.1915 307.106 44.6085 306.944 43.9363C306.182 41.3165 304.815 39.5402 302.986 38.3104C301.081 37.0292 298.461 36.2023 295.06 35.9306C288.189 35.3817 279.023 37.1643 268.717 40.5792C256.382 44.6663 243.016 51.1067 230.617 57.0817C227.797 58.4404 225.027 59.775 222.331 61.0525C212.203 65.8507 202.88 69.3231 196.905 71.5486C196.516 71.6937 196.14 71.8335 195.78 71.9681C196.155 73.7919 196.392 75.6649 196.48 77.5753ZM177.832 39.7227C178.314 42.1409 178.245 44.9788 177.868 47.757C174.008 45.6388 169.715 44.2099 165.156 43.6362C165.585 39.8996 167.648 32.6838 172.471 33.7132C174.095 34.0196 175.143 34.6777 175.875 35.4534C176.782 36.4141 177.454 37.8261 177.832 39.7227ZM142.872 47.895C146.912 45.6686 151.426 44.1846 156.211 43.6148C155.4 39.9709 154.5 32.5 149.389 33.5916C147.267 34.0448 146.326 34.4605 145.475 35.2558C144.443 36.2188 143.662 37.6599 143.183 39.5996C142.57 42.086 142.544 45.035 142.872 47.895Z"/>
</mask>
<path fill-rule="evenodd" clip-rule="evenodd" d="M205.882 9.9059C206.211 11.8108 204.933 13.6213 203.028 13.9497C197.828 14.8462 194.669 16.2792 192.847 17.5157C192.057 18.0519 191.495 18.8651 190.941 19.6654C190.221 20.7069 189.516 21.7267 188.344 22.0857C182.761 23.7968 179.45 25.8553 177.583 27.539C177.439 27.669 177.305 27.7957 177.179 27.9188C178.631 28.5976 179.896 29.5151 180.965 30.6482C183.043 32.8489 184.151 35.6136 184.697 38.3546C185.605 42.9095 185.083 48.009 184.198 52.1766C188.283 55.7376 191.554 60.2084 193.697 65.2727L194.612 64.9313C200.61 62.6963 209.52 59.376 219.334 54.7265C221.931 53.4963 224.63 52.1951 227.403 50.8582C239.813 44.8758 253.704 38.1793 266.515 33.9345C277.1 30.4274 287.335 28.2912 295.617 28.9529C299.793 29.2865 303.689 30.3472 306.892 32.5018C310.162 34.7008 312.492 37.8953 313.685 42.0489L313.695 42.083L313.704 42.1173C314.575 45.4032 313.575 50.0971 310.324 54.9117C307.198 59.5428 301.836 64.5635 293.24 69.2188C292.438 75.2338 289.188 82.6876 281.771 87.8641C277.464 90.8695 271.928 92.9872 264.949 93.6917C266.37 94.5104 267.665 95.3729 268.778 96.2785C271.426 98.4346 274.244 101.896 272.87 106.214C270.642 113.218 262.976 118.033 254.664 120.096C246.112 122.217 235.706 121.781 226.465 117.16L226.399 117.127L226.335 117.092C220.871 114.067 216.262 109.896 212.079 106.111C210.799 104.952 209.558 103.83 208.345 102.787C203.655 98.7561 199.047 95.5472 193.166 94.2249C191.589 97.5495 189.506 100.579 187.019 103.227C193.261 109.672 196.695 116.687 197.882 123.935C199.629 134.596 196.437 145.235 191.267 154.681C183.853 168.226 172.011 179.988 162.763 187.099L160.629 188.739L158.496 187.099C149.245 179.986 137.381 168.226 129.951 154.684C124.769 145.238 121.568 134.597 123.323 123.932C124.513 116.702 127.945 109.705 134.175 103.273C131.671 100.596 129.571 97.5332 127.974 94.1823C122.08 95.5055 117.44 98.726 112.717 102.771C111.491 103.821 110.237 104.952 108.943 106.119C104.742 109.906 100.121 114.073 94.6686 117.092L94.6043 117.127L94.5387 117.16C85.2971 121.781 74.8913 122.217 66.3399 120.096C58.0274 118.033 50.3617 113.218 48.133 106.214C46.7489 101.864 49.6477 98.3935 52.3161 96.2509C53.4267 95.3593 54.7165 94.5084 56.1304 93.6993C49.1153 93.0024 43.5551 90.8803 39.2329 87.8641C31.8152 82.6876 28.5654 75.2338 27.7633 69.2188C19.1677 64.5635 13.8056 59.5428 10.679 54.9117C7.42849 50.097 6.42807 45.4032 7.29984 42.1173L7.30894 42.083L7.31873 42.0489C8.51136 37.8953 10.8414 34.7008 14.1112 32.5018C17.3149 30.3472 21.21 29.2865 25.3861 28.9529C33.6682 28.2912 43.9038 30.4274 54.4884 33.9345C67.2998 38.1793 81.1909 44.8759 93.6005 50.8582C96.3737 52.1951 99.0728 53.4963 101.669 54.7265C111.492 59.3804 120.358 62.6855 126.332 64.9129L127.202 65.2374C129.292 60.2499 132.5 55.8665 136.502 52.3603C135.614 48.0039 135.222 42.6443 136.387 37.923C137.084 35.0995 138.391 32.2934 140.697 30.1398C141.845 29.0671 143.177 28.2178 144.681 27.6117C144.627 27.5608 144.571 27.5093 144.513 27.4573C142.646 25.7736 139.335 23.7151 133.752 22.0041C132.589 21.6477 131.878 20.6589 131.149 19.6447C130.579 18.8517 129.998 18.0432 129.181 17.5093C127.282 16.2689 124.04 14.8483 118.828 13.9497C116.923 13.6213 115.645 11.8108 115.974 9.9059C116.302 8.001 118.113 6.72303 120.018 7.05146C125.937 8.0721 130.133 9.77042 133.009 11.6489C134.906 12.8882 136.383 14.3154 137.295 15.7913C142.803 17.6499 146.632 19.9416 149.201 22.2594C150.456 23.3914 151.464 24.5823 152.199 25.7713C159.007 24.1346 165.572 24.8108 169.904 25.842C170.639 24.6566 171.644 23.4696 172.895 22.3411C175.461 20.0266 179.283 17.738 184.778 15.8808C185.642 14.4346 187.04 12.9973 188.916 11.7242C191.748 9.80101 195.906 8.0743 201.839 7.05146C203.743 6.72303 205.554 8.001 205.882 9.9059ZM160.629 50.3534C153.806 50.3534 147.513 52.627 142.535 56.4587C137.86 60.0572 134.354 65.0224 132.651 70.7679C131.904 73.2882 131.501 75.9677 131.501 78.7621C131.501 79.4109 131.522 80.0542 131.564 80.6914C131.744 83.4285 132.305 86.0581 133.193 88.5298L133.204 88.5608C133.26 88.7156 133.317 88.8697 133.375 89.0233C133.424 89.152 133.474 89.2803 133.525 89.4082C135.254 93.7661 138.015 97.6079 141.51 100.629C146.576 105.006 153.169 107.651 160.389 107.651C167.774 107.651 174.538 104.988 179.685 100.568C183.275 97.4862 186.073 93.5548 187.75 89.0794C188.727 86.4731 189.326 83.6749 189.479 80.7394C189.505 80.2443 189.518 79.745 189.518 79.2419C189.518 76.3071 189.081 73.4806 188.272 70.8205C186.497 64.9845 182.924 59.9328 178.199 56.3083L178.163 56.2806C173.3 52.562 167.221 50.3534 160.629 50.3534ZM139.438 107.903C134.779 112.636 132.077 117.545 130.787 122.458C131.012 122.555 131.251 122.657 131.502 122.764C133.553 123.633 136.428 124.793 139.716 125.951C146.404 128.306 154.393 130.503 160.628 130.501C166.854 130.498 174.83 128.301 181.507 125.948C184.79 124.79 187.66 123.631 189.708 122.762C189.958 122.656 190.196 122.554 190.421 122.457C189.13 117.523 186.42 112.593 181.743 107.843C175.735 112.141 168.335 114.651 160.389 114.651C152.572 114.651 145.333 112.148 139.438 107.903ZM191.361 129.66C189.333 130.502 186.741 131.525 183.834 132.549C177.039 134.944 168.116 137.497 160.631 137.501C153.135 137.504 144.197 134.95 137.391 132.554C134.475 131.527 131.874 130.501 129.841 129.658C129.785 136.435 131.928 143.406 135.483 150.19C135.883 150.337 136.374 150.516 136.943 150.717C138.622 151.311 140.974 152.104 143.66 152.895C149.124 154.504 155.621 156.002 160.628 156.001C165.628 155.999 172.115 154.501 177.571 152.892C180.252 152.101 182.6 151.31 184.277 150.716C184.844 150.516 185.333 150.338 185.731 150.191C189.277 143.409 191.416 136.438 191.361 129.66ZM179.947 159.489L179.777 159.539L179.551 159.606C173.988 161.246 166.692 162.998 160.631 163.001C154.56 163.003 147.253 161.251 141.681 159.609C141.614 159.59 141.547 159.57 141.48 159.55C141.414 159.53 141.349 159.511 141.283 159.491C147.131 167.599 154.321 174.72 160.629 179.86C166.932 174.722 174.11 167.6 179.947 159.489ZM125.587 87.5561C125.34 86.5736 125.133 85.5751 124.968 84.5627C117.61 85.0562 106.479 86.7151 96.3248 88.4529C94.6769 88.7349 93.0615 89.0177 91.4999 89.2964C84.577 90.7148 74.3142 93.3712 66.1823 96.6627C62.0702 98.3271 58.762 100.053 56.6987 101.709C55.6686 102.536 55.1442 103.193 54.9178 103.63C54.7503 103.952 54.7875 104.049 54.8009 104.084L54.8035 104.091C55.9336 107.643 60.6235 111.465 68.0254 113.302C75.1677 115.073 83.8058 114.678 91.3428 110.932C95.9987 108.342 99.768 104.948 103.811 101.307C105.213 100.045 106.648 98.7527 108.164 97.4544C113.008 93.3055 118.453 89.3603 125.587 87.5561ZM124.52 77.5781C124.584 75.6573 124.801 73.777 125.16 71.9483L124.622 71.7473L124.035 71.5284C118.082 69.3105 108.808 65.8547 98.6724 61.0525C95.9761 59.775 93.2064 58.4404 90.3868 57.0817C77.9873 51.1067 64.6219 44.6663 52.2868 40.5792C41.98 37.1643 32.815 35.3817 25.9435 35.9306C22.5428 36.2023 19.9228 37.0292 18.0176 38.3104C16.1889 39.5402 14.8215 41.3165 14.0597 43.9364C13.8979 44.6087 13.9129 47.1916 16.4806 50.9949C19.0002 54.7269 23.8499 59.3886 32.6667 63.8889L34.4816 64.8152L34.5721 66.8508C34.7725 71.3603 37.0384 77.7967 43.2389 82.1236C49.3887 86.4153 60.0687 89.0825 77.9904 84.7181L78.0622 84.7006L78.1348 84.6862C81.2998 84.0557 85.5216 83.2531 90.2263 82.4131L90.2784 82.4038C91.8536 82.1227 93.4827 81.8375 95.144 81.5532C105.184 79.835 116.655 78.1058 124.52 77.5781ZM195.52 87.5907C202.659 89.3904 208.084 93.332 212.908 97.4788C214.409 98.7686 215.829 100.052 217.217 101.306C221.245 104.946 225 108.34 229.661 110.932C237.198 114.678 245.836 115.073 252.978 113.302C260.38 111.465 265.07 107.643 266.2 104.091L266.203 104.083C266.22 104.032 266.255 103.929 266.091 103.606C265.873 103.175 265.364 102.526 264.358 101.707C262.341 100.065 259.095 98.3527 255.042 96.6996C247.029 93.4307 236.884 90.7952 229.962 89.3772C228.546 89.1232 227.088 88.8662 225.603 88.6099C215.293 86.8292 203.722 85.0785 196.118 84.5653C195.962 85.5894 195.763 86.5985 195.52 87.5907ZM196.48 77.5753C205.746 78.1935 220.08 80.4927 231.24 82.4947L231.252 82.4967L231.816 82.5982C236.1 83.3702 239.936 84.1019 242.869 84.6862L242.941 84.7006L243.013 84.7181C260.935 89.0825 271.615 86.4153 277.765 82.1236C283.965 77.7967 286.231 71.3603 286.431 66.8508L286.522 64.8152L288.337 63.8889C297.154 59.3886 302.003 54.727 304.523 50.9949C307.091 47.1915 307.106 44.6085 306.944 43.9363C306.182 41.3165 304.815 39.5402 302.986 38.3104C301.081 37.0292 298.461 36.2023 295.06 35.9306C288.189 35.3817 279.023 37.1643 268.717 40.5792C256.382 44.6663 243.016 51.1067 230.617 57.0817C227.797 58.4404 225.027 59.775 222.331 61.0525C212.203 65.8507 202.88 69.3231 196.905 71.5486C196.516 71.6937 196.14 71.8335 195.78 71.9681C196.155 73.7919 196.392 75.6649 196.48 77.5753ZM177.832 39.7227C178.314 42.1409 178.245 44.9788 177.868 47.757C174.008 45.6388 169.715 44.2099 165.156 43.6362C165.585 39.8996 167.648 32.6838 172.471 33.7132C174.095 34.0196 175.143 34.6777 175.875 35.4534C176.782 36.4141 177.454 37.8261 177.832 39.7227ZM142.872 47.895C146.912 45.6686 151.426 44.1846 156.211 43.6148C155.4 39.9709 154.5 32.5 149.389 33.5916C147.267 34.0448 146.326 34.4605 145.475 35.2558C144.443 36.2188 143.662 37.6599 143.183 39.5996C142.57 42.086 142.544 45.035 142.872 47.895Z" fill="#F5F5F5"/>
<path d="M231.252 82.4967L231.87 79.0517L231.867 79.0513L231.252 82.4967ZM179.777 159.539L178.781 156.184L178.781 156.184L179.777 159.539ZM124.622 71.7473L125.845 68.4678L125.844 68.4678L124.622 71.7473ZM193.39 61.6516C193.077 61.7683 192.771 61.8824 192.473 61.9935L194.92 68.5519C195.216 68.4413 195.521 68.3278 195.834 68.211L193.39 61.6516ZM128.426 61.9584C128.143 61.8526 127.852 61.7442 127.555 61.6334L125.109 68.1924C125.407 68.3032 125.696 68.4112 125.978 68.5164L128.426 61.9584ZM136.496 87.3725C136.493 87.364 136.49 87.3554 136.487 87.3467L129.899 89.713C129.903 89.7249 129.908 89.7369 129.912 89.7491L136.496 87.3725ZM58.1386 103.03C58.116 102.959 58.0959 102.904 58.0863 102.878C58.081 102.863 58.0766 102.851 58.0741 102.845C58.0728 102.841 58.0717 102.838 58.071 102.837C58.0703 102.835 58.0697 102.833 58.0696 102.833L51.5322 105.336C51.5343 105.341 51.5268 105.322 51.5184 105.299C51.5096 105.275 51.4903 105.222 51.4684 105.153L58.1386 103.03ZM89.6643 78.9581C89.6475 78.9611 89.6262 78.9649 89.6117 78.9675L90.841 85.8587C90.8612 85.8551 90.8746 85.8527 90.8925 85.8495L89.6643 78.9581ZM262.891 102.951C262.889 102.956 262.879 102.986 262.867 103.024L269.533 105.159C269.528 105.177 269.523 105.191 269.52 105.199C269.517 105.208 269.515 105.214 269.515 105.214L262.891 102.951ZM231.867 79.0513C231.869 79.0516 231.87 79.0518 231.868 79.0514C231.866 79.0511 231.861 79.0502 231.856 79.0492L230.624 85.9401C230.623 85.9398 230.622 85.9396 230.624 85.94C230.625 85.9403 230.63 85.9411 230.636 85.9421L231.867 79.0513ZM232.437 79.1537C232.249 79.1198 232.06 79.0858 231.87 79.0517L230.633 85.9417C230.822 85.9755 231.009 86.0091 231.195 86.0427L232.437 79.1537ZM180.773 162.895C180.831 162.877 180.89 162.86 180.948 162.843L178.947 156.135C178.892 156.151 178.837 156.168 178.781 156.184L180.773 162.895ZM180.541 162.963C180.618 162.94 180.696 162.917 180.773 162.894L178.781 156.184C178.708 156.206 178.635 156.227 178.561 156.249L180.541 162.963ZM122.812 74.8081C123.012 74.8825 123.207 74.9553 123.399 75.0268L125.844 68.4678C125.652 68.3961 125.456 68.3231 125.257 68.2487L122.812 74.8081ZM123.399 75.0267C123.582 75.0949 123.761 75.1617 123.936 75.2271L126.385 68.6694C126.208 68.6034 126.028 68.5362 125.845 68.4678L123.399 75.0267ZM203.028 13.9497L204.217 20.8479L204.217 20.8479L203.028 13.9497ZM192.847 17.5157L196.779 23.3072L196.779 23.3072L192.847 17.5157ZM188.344 22.0857L190.395 28.7785L190.395 28.7785L188.344 22.0857ZM177.583 27.539L172.895 22.341V22.3411L177.583 27.539ZM177.179 27.9188L172.277 22.922L165.076 29.9871L174.214 34.2599L177.179 27.9188ZM180.965 30.6482L186.056 25.843L186.056 25.843L180.965 30.6482ZM184.697 38.3546L177.832 39.7227L177.832 39.7227L184.697 38.3546ZM184.198 52.1766L177.35 50.7218L176.495 54.7485L179.598 57.4534L184.198 52.1766ZM193.697 65.2727L187.249 67.9996L189.861 74.1732L196.142 71.8317L193.697 65.2727ZM194.612 64.9313L192.168 58.3719L192.167 58.3723L194.612 64.9313ZM219.334 54.7265L216.337 48.4006V48.4006L219.334 54.7265ZM227.403 50.8582L230.443 57.1637V57.1637L227.403 50.8582ZM266.515 33.9345L264.313 27.2897V27.2897L266.515 33.9345ZM295.617 28.9529L296.175 21.9751L295.617 28.9529ZM306.892 32.5018L302.986 38.3104V38.3104L306.892 32.5018ZM313.685 42.0489L306.957 43.9807L306.957 43.9817L313.685 42.0489ZM313.695 42.083L320.461 40.2887L320.442 40.2193L320.422 40.1502L313.695 42.083ZM313.704 42.1173L306.937 43.9115L306.938 43.9124L313.704 42.1173ZM310.324 54.9117L304.523 50.9949V50.9949L310.324 54.9117ZM293.24 69.2188L289.907 63.0636L286.773 64.7609L286.302 68.2935L293.24 69.2188ZM281.771 87.8641L277.765 82.1236L277.765 82.1236L281.771 87.8641ZM264.949 93.6917L264.246 86.7271L242.624 88.9096L261.454 99.7572L264.949 93.6917ZM268.778 96.2785L273.197 90.8499L273.197 90.8499L268.778 96.2785ZM272.87 106.214L266.2 104.091V104.091L272.87 106.214ZM254.664 120.096L256.349 126.89L254.664 120.096ZM226.399 117.127L223.009 123.251L223.137 123.322L223.269 123.388L226.399 117.127ZM226.335 117.092L229.725 110.967L229.725 110.967L226.335 117.092ZM212.079 106.111L207.382 111.301L207.382 111.301L212.079 106.111ZM208.345 102.787L212.908 97.4788L208.345 102.787ZM193.166 94.2249L194.701 87.3954L189.239 86.1674L186.841 91.2258L193.166 94.2249ZM187.019 103.227L181.917 98.4347L177.346 103.301L181.99 108.097L187.019 103.227ZM197.882 123.935L204.79 122.803V122.803L197.882 123.935ZM191.267 154.681L197.407 158.042L191.267 154.681ZM162.763 187.099L167.03 192.648H167.03L162.763 187.099ZM160.629 188.739L156.362 194.289L160.629 197.57L164.896 194.289L160.629 188.739ZM158.496 187.099L154.229 192.648H154.229L158.496 187.099ZM129.951 154.684L123.814 158.051L129.951 154.684ZM123.323 123.932L116.416 122.795L123.323 123.932ZM134.175 103.273L139.203 108.144L143.839 103.358L139.287 98.4914L134.175 103.273ZM127.974 94.1823L134.294 91.1713L131.891 86.1288L126.441 87.3523L127.974 94.1823ZM112.717 102.771L108.164 97.4544L108.164 97.4544L112.717 102.771ZM108.943 106.119L104.255 100.92V100.92L108.943 106.119ZM94.6686 117.092L98.0585 123.216L98.0588 123.216L94.6686 117.092ZM94.6043 117.127L97.7348 123.388L97.866 123.323L97.9943 123.252L94.6043 117.127ZM66.3399 120.096L64.6543 126.89H64.6543L66.3399 120.096ZM48.133 106.214L54.8035 104.091L54.8035 104.091L48.133 106.214ZM52.3161 96.2509L47.9336 90.7926L47.9335 90.7927L52.3161 96.2509ZM56.1304 93.6993L59.6074 99.7747L78.6125 88.8981L56.8224 86.7335L56.1304 93.6993ZM39.2329 87.8641L43.2389 82.1236L43.2389 82.1236L39.2329 87.8641ZM27.7633 69.2188L34.7018 68.2935L34.2307 64.7608L31.0969 63.0636L27.7633 69.2188ZM10.679 54.9117L4.87738 58.8285H4.87738L10.679 54.9117ZM7.29984 42.1173L0.533939 40.3221L0.533912 40.3222L7.29984 42.1173ZM7.30894 42.083L0.58082 40.1511L0.561236 40.2193L0.543038 40.2878L7.30894 42.083ZM7.31873 42.0489L14.0469 43.9808L14.0469 43.9807L7.31873 42.0489ZM14.1112 32.5018L10.2048 26.6932L10.2048 26.6932L14.1112 32.5018ZM25.3861 28.9529L24.8286 21.9751L25.3861 28.9529ZM54.4884 33.9345L56.69 27.2897L54.4884 33.9345ZM93.6005 50.8582L96.6403 44.5527L96.6403 44.5527L93.6005 50.8582ZM101.669 54.7265L98.6724 61.0525L101.669 54.7265ZM126.332 64.9129L128.778 58.3542L128.777 58.3539L126.332 64.9129ZM127.202 65.2374L124.756 71.7961L131.059 74.1468L133.658 67.9423L127.202 65.2374ZM136.502 52.3603L141.115 57.6254L144.173 54.9464L143.361 50.9629L136.502 52.3603ZM136.387 37.923L143.183 39.5996V39.5996L136.387 37.923ZM140.697 30.1398L135.919 25.0238L135.919 25.0238L140.697 30.1398ZM144.681 27.6117L147.297 34.1046L157.5 29.9943L149.455 22.4922L144.681 27.6117ZM144.513 27.4573L139.825 32.6553L139.825 32.6555L144.513 27.4573ZM133.752 22.0041L135.803 15.3113V15.3113L133.752 22.0041ZM129.181 17.5093L133.009 11.649L133.009 11.6489L129.181 17.5093ZM118.828 13.9497L120.018 7.05146V7.05146L118.828 13.9497ZM120.018 7.05146L118.828 13.9497V13.9497L120.018 7.05146ZM133.009 11.6489L136.837 5.7886V5.7886L133.009 11.6489ZM137.295 15.7913L131.341 19.4721L132.667 21.6174L135.057 22.4238L137.295 15.7913ZM149.201 22.2594L153.89 17.0614V17.0614L149.201 22.2594ZM152.199 25.7713L146.246 29.4542L148.911 33.7612L153.836 32.5773L152.199 25.7713ZM169.904 25.842L168.283 32.6517L173.193 33.8205L175.853 29.5309L169.904 25.842ZM172.895 22.3411L177.583 27.539L177.583 27.539L172.895 22.3411ZM184.778 15.8808L187.019 22.5123L189.463 21.6864L190.786 19.4722L184.778 15.8808ZM188.916 11.7242L184.984 5.93269V5.93269L188.916 11.7242ZM201.839 7.05146L200.649 0.153238V0.153238L201.839 7.05146ZM156.211 43.6148L157.038 50.5657L164.725 49.6504L163.043 42.0942L156.211 43.6148ZM142.872 47.895L135.918 48.6922L137.107 59.0651L146.251 54.0256L142.872 47.895ZM149.389 33.5916L147.927 26.7459L149.389 33.5916ZM145.475 35.2558L140.697 30.1398L140.697 30.1398L145.475 35.2558ZM143.183 39.5996L136.387 37.9229L136.387 37.923L143.183 39.5996ZM142.535 56.4587L146.805 62.0056V62.0056L142.535 56.4587ZM132.651 70.7679L125.94 68.7786V68.7786L132.651 70.7679ZM131.564 80.6914L124.579 81.1511V81.1512L131.564 80.6914ZM133.193 88.5298L126.605 90.8963L126.607 90.9012L133.193 88.5298ZM133.204 88.5608L126.618 90.9321L126.619 90.9347L133.204 88.5608ZM133.375 89.0233L126.832 91.5102L126.832 91.5102L133.375 89.0233ZM133.525 89.4082L127.018 91.9891L127.018 91.9893L133.525 89.4082ZM141.51 100.629L146.088 95.3327L141.51 100.629ZM179.685 100.568L184.245 105.879H184.245L179.685 100.568ZM187.75 89.0794L194.305 91.5357V91.5357L187.75 89.0794ZM189.479 80.7394L196.469 81.1032L196.47 81.1031L189.479 80.7394ZM188.272 70.8205L181.575 72.8578V72.8578L188.272 70.8205ZM178.199 56.3083L182.46 50.7544L182.452 50.7481L178.199 56.3083ZM178.163 56.2806L182.415 50.7203L182.415 50.7199L178.163 56.2806ZM130.787 122.458L124.016 120.679L122.486 126.502L128.016 128.886L130.787 122.458ZM139.438 107.903L143.528 102.222L138.658 98.7154L134.449 102.993L139.438 107.903ZM131.502 122.764L134.235 116.319L134.235 116.319L131.502 122.764ZM139.716 125.951L142.041 119.349L139.716 125.951ZM160.628 130.501L160.625 123.501L160.628 130.501ZM181.507 125.948L183.834 132.549L181.507 125.948ZM189.708 122.762L186.973 116.319L186.973 116.319L189.708 122.762ZM190.421 122.457L193.193 128.885L198.715 126.503L197.193 120.686L190.421 122.457ZM181.743 107.843L186.731 102.931L182.534 98.6688L177.669 102.15L181.743 107.843ZM183.834 132.549L186.161 139.151L183.834 132.549ZM191.361 129.66L198.361 129.604L198.278 119.211L188.678 123.194L191.361 129.66ZM160.631 137.501L160.634 144.501L160.631 137.501ZM137.391 132.554L139.716 125.951H139.716L137.391 132.554ZM129.841 129.658L132.523 123.192L122.928 119.212L122.841 129.599L129.841 129.658ZM135.483 150.19L129.283 153.44L130.534 155.825L133.061 156.757L135.483 150.19ZM136.943 150.717L139.278 144.118L136.943 150.717ZM143.66 152.895L145.638 146.18H145.638L143.66 152.895ZM160.628 156.001L160.631 163.001L160.628 156.001ZM177.571 152.892L175.591 146.178H175.591L177.571 152.892ZM184.277 150.716L186.613 157.315L184.277 150.716ZM185.731 150.191L188.155 156.758L190.684 155.824L191.934 153.435L185.731 150.191ZM179.551 159.606L181.531 166.32L181.537 166.319L179.551 159.606ZM179.947 159.489L185.629 163.577L197.608 146.93L177.951 152.779L179.947 159.489ZM160.631 163.001L160.628 156.001H160.628L160.631 163.001ZM141.681 159.609L143.66 152.895L143.659 152.895L141.681 159.609ZM141.283 159.491L143.282 152.783L123.579 146.912L135.606 163.586L141.283 159.491ZM160.629 179.86L156.207 185.287L160.63 188.89L165.052 185.286L160.629 179.86ZM124.968 84.5627L131.877 83.439L130.855 77.1522L124.499 77.5784L124.968 84.5627ZM125.587 87.5561L127.303 94.3424L134.084 92.6276L132.375 85.8457L125.587 87.5561ZM96.3248 88.4529L97.5055 95.3526H97.5055L96.3248 88.4529ZM91.4999 89.2964L90.27 82.4053L90.1823 82.421L90.095 82.4389L91.4999 89.2964ZM66.1823 96.6627L63.5559 90.1741H63.5559L66.1823 96.6627ZM56.6987 101.709L52.3161 96.2509L52.3161 96.2509L56.6987 101.709ZM54.9178 103.63L61.1306 106.854L61.1306 106.854L54.9178 103.63ZM54.8009 104.084L61.3785 101.69L61.3583 101.634L61.3371 101.579L54.8009 104.084ZM54.8035 104.091L61.474 101.969L61.4303 101.832L61.3811 101.697L54.8035 104.091ZM68.0254 113.302L69.711 106.507H69.711L68.0254 113.302ZM91.3428 110.932L94.4583 117.2L94.6034 117.128L94.745 117.049L91.3428 110.932ZM103.811 101.307L108.496 106.509L103.811 101.307ZM108.164 97.4544L103.61 92.1377L103.61 92.1377L108.164 97.4544ZM125.16 71.9483L132.029 73.2983L133.175 67.4672L127.607 65.3899L125.16 71.9483ZM124.52 77.5781L124.989 84.5624L131.308 84.1385L131.517 77.809L124.52 77.5781ZM124.035 71.5284L126.479 64.9692L126.479 64.969L124.035 71.5284ZM98.6724 61.0525L101.669 54.7265L101.669 54.7265L98.6724 61.0525ZM90.3868 57.0817L93.4255 50.7757H93.4255L90.3868 57.0817ZM52.2868 40.5792L50.0851 47.224H50.0851L52.2868 40.5792ZM25.9435 35.9306L26.5009 42.9084H26.5009L25.9435 35.9306ZM18.0176 38.3104L21.924 44.119H21.924L18.0176 38.3104ZM14.0597 43.9364L7.3381 41.9819L7.29236 42.1392L7.25403 42.2984L14.0597 43.9364ZM16.4806 50.9949L22.2822 47.078L22.2822 47.078L16.4806 50.9949ZM32.6667 63.8889L35.8491 57.6541H35.8491L32.6667 63.8889ZM34.4816 64.8152L41.4747 64.5044L41.2938 60.4331L37.664 58.5804L34.4816 64.8152ZM34.5721 66.8508L27.579 67.1617L34.5721 66.8508ZM43.2389 82.1236L39.2329 87.8641L39.2329 87.8641L43.2389 82.1236ZM77.9904 84.7181L79.6466 91.5193L79.6468 91.5193L77.9904 84.7181ZM78.0622 84.7006L76.6954 77.8354L76.5499 77.8643L76.4058 77.8994L78.0622 84.7006ZM78.1348 84.6862L79.5016 91.5514L79.5022 91.5513L78.1348 84.6862ZM90.2263 82.4131L88.9964 75.522L88.996 75.5221L90.2263 82.4131ZM90.2784 82.4038L89.0486 75.5127L89.0485 75.5127L90.2784 82.4038ZM95.144 81.5532L93.9633 74.6535H93.9633L95.144 81.5532ZM212.908 97.4788L208.345 102.787L212.908 97.4788ZM195.52 87.5907L188.72 85.9315L187.073 92.6801L193.809 94.3783L195.52 87.5907ZM217.217 101.306L221.91 96.1124V96.1124L217.217 101.306ZM229.661 110.932L226.258 117.049L226.4 117.128L226.545 117.2L229.661 110.932ZM252.978 113.302L251.292 106.507L252.978 113.302ZM266.2 104.091L259.56 101.874L259.545 101.922L259.529 101.969L266.2 104.091ZM266.203 104.083L259.578 101.822L259.571 101.844L259.563 101.866L266.203 104.083ZM266.091 103.606L272.332 100.436L272.332 100.435L266.091 103.606ZM264.358 101.707L268.778 96.2785L268.778 96.2784L264.358 101.707ZM255.042 96.6996L252.398 103.181L255.042 96.6996ZM229.962 89.3772L231.367 82.5196L231.283 82.5023L231.198 82.487L229.962 89.3772ZM225.603 88.6099L226.795 81.712H226.795L225.603 88.6099ZM196.118 84.5653L196.589 77.5812L190.164 77.1476L189.197 83.5142L196.118 84.5653ZM231.24 82.4947L232.48 75.6053L232.476 75.6046L231.24 82.4947ZM196.48 77.5753L189.487 77.8954L189.773 84.1434L196.014 84.5597L196.48 77.5753ZM231.252 82.4967L230.012 89.3861L230.013 89.3862L231.252 82.4967ZM231.816 82.5982L233.058 75.7092L233.055 75.7087L231.816 82.5982ZM242.869 84.6862L241.501 91.5513L241.502 91.5514L242.869 84.6862ZM242.941 84.7006L244.598 77.8995L244.454 77.8643L244.308 77.8354L242.941 84.7006ZM243.013 84.7181L241.356 91.5193L241.357 91.5193L243.013 84.7181ZM277.765 82.1236L281.771 87.8641V87.8641L277.765 82.1236ZM286.431 66.8508L279.438 66.54V66.5401L286.431 66.8508ZM286.522 64.8152L283.339 58.5804L279.71 60.4331L279.529 64.5044L286.522 64.8152ZM288.337 63.8889L285.154 57.6541L285.154 57.6541L288.337 63.8889ZM304.523 50.9949L310.324 54.9117L310.324 54.9117L304.523 50.9949ZM306.944 43.9363L313.749 42.2982L313.711 42.1389L313.665 41.9817L306.944 43.9363ZM302.986 38.3104L299.079 44.119L299.079 44.119L302.986 38.3104ZM295.06 35.9306L295.617 28.9529L295.06 35.9306ZM268.717 40.5792L270.918 47.224L268.717 40.5792ZM230.617 57.0817L227.578 50.7756L230.617 57.0817ZM222.331 61.0525L219.334 54.7265L222.331 61.0525ZM196.905 71.5486L194.462 64.9888L194.462 64.9888L196.905 71.5486ZM195.78 71.9681L193.332 65.41L187.714 67.5069L188.923 73.3802L195.78 71.9681ZM177.832 39.7227L170.967 41.0909V41.0909L177.832 39.7227ZM177.868 47.757L174.501 53.8938L183.434 58.7958L184.804 48.6985L177.868 47.757ZM175.875 35.4534L170.785 40.2585L170.785 40.2586L175.875 35.4534ZM172.471 33.7132L171.01 40.559L171.091 40.5764L171.173 40.5918L172.471 33.7132ZM165.156 43.6362L158.202 42.8382L157.412 49.7169L164.282 50.5814L165.156 43.6362ZM131.149 19.6447L136.833 15.5588V15.5587L131.149 19.6447ZM190.941 19.6654L185.184 15.6835V15.6835L190.941 19.6654ZM179.777 159.539L181.763 166.252L181.773 166.249L179.777 159.539ZM124.622 71.7473L127.069 65.1889L127.066 65.188L124.622 71.7473ZM141.48 159.55L139.491 166.261L141.48 159.55ZM204.217 20.8479C209.932 19.8626 213.766 14.4312 212.781 8.71654L198.984 11.0952C198.656 9.19034 199.934 7.37989 201.839 7.05146L204.217 20.8479ZM196.779 23.3072C197.589 22.7572 199.751 21.6179 204.217 20.8479L201.839 7.05146C195.906 8.07436 191.748 9.80118 188.916 11.7242L196.779 23.3072ZM182.272 32.737C183.21 31.891 185.545 30.2648 190.395 28.7785L186.293 15.3929C179.976 17.3287 175.69 19.8197 172.895 22.341L182.272 32.737ZM182.081 32.9155C182.135 32.8625 182.199 32.8028 182.272 32.737L172.895 22.3411C172.68 22.5352 172.474 22.7289 172.277 22.922L182.081 32.9155ZM186.056 25.843C184.378 24.0657 182.391 22.6283 180.144 21.5777L174.214 34.2599C174.871 34.5669 175.414 34.9645 175.875 35.4534L186.056 25.843ZM191.562 36.9864C190.848 33.403 189.305 29.2848 186.056 25.843L175.875 35.4534C176.781 36.4131 177.454 37.8242 177.832 39.7227L191.562 36.9864ZM191.045 53.6313C192.023 49.0292 192.735 42.8674 191.562 36.9864L177.832 39.7227C178.476 42.9517 178.144 46.9889 177.35 50.7218L191.045 53.6313ZM200.144 62.5458C197.581 56.4885 193.673 51.1495 188.797 46.8997L179.598 57.4534C182.893 60.3257 185.527 63.9284 187.249 67.9996L200.144 62.5458ZM216.337 48.4006C206.82 52.9094 198.159 56.1394 192.168 58.3719L197.057 71.4907C203.061 69.2532 212.22 65.8427 222.331 61.0525L216.337 48.4006ZM224.363 44.5526C221.586 45.8916 218.908 47.1823 216.337 48.4006L222.331 61.0525C224.953 59.8103 227.674 58.4985 230.443 57.1637L224.363 44.5526ZM264.313 27.2897C250.99 31.7041 236.675 38.6176 224.363 44.5526L230.443 57.1637C242.951 51.134 256.417 44.6546 268.717 40.5792L264.313 27.2897ZM296.175 21.9751C286.483 21.2008 275.177 23.6903 264.313 27.2897L268.717 40.5792C279.023 37.1646 288.188 35.3816 295.06 35.9306L296.175 21.9751ZM310.799 26.6932C306.296 23.665 301.125 22.3706 296.175 21.9751L295.06 35.9306C298.462 36.2024 301.081 37.0295 302.986 38.3104L310.799 26.6932ZM320.413 40.117C318.787 34.4547 315.5 29.8548 310.799 26.6932L302.986 38.3104C304.824 39.5468 306.197 41.3358 306.957 43.9807L320.413 40.117ZM320.422 40.1502L320.413 40.1161L306.957 43.9817L306.967 44.0158L320.422 40.1502ZM320.47 40.323L320.461 40.2887L306.928 43.8773L306.937 43.9115L320.47 40.323ZM316.126 58.8285C320.021 53.0587 322.047 46.269 320.47 40.3222L306.938 43.9124C307.104 44.5374 307.129 47.1354 304.523 50.9949L316.126 58.8285ZM296.574 75.3741C305.931 70.3063 312.238 64.588 316.126 58.8285L304.523 50.9949C302.158 54.4976 297.741 58.8208 289.907 63.0636L296.574 75.3741ZM285.776 93.6045C295.073 87.1169 299.164 77.7525 300.179 70.1441L286.302 68.2935C285.712 72.715 283.303 78.2584 277.765 82.1236L285.776 93.6045ZM265.652 100.656C273.686 99.8453 280.387 97.3653 285.776 93.6045L277.765 82.1236C274.54 84.3736 270.17 86.129 264.246 86.7271L265.652 100.656ZM273.197 90.8499C271.722 89.6494 270.098 88.5797 268.443 87.6262L261.454 99.7572C262.642 100.441 263.608 101.096 264.358 101.707L273.197 90.8499ZM279.541 108.336C282.335 99.5565 276.229 93.3179 273.197 90.8499L264.358 101.707C265.282 102.459 265.856 103.15 266.111 103.645C266.219 103.854 266.23 103.95 266.23 103.952C266.23 103.956 266.231 103.957 266.23 103.965C266.229 103.974 266.225 104.014 266.2 104.091L279.541 108.336ZM256.349 126.89C265.555 124.606 276.211 118.803 279.541 108.336L266.2 104.091C265.073 107.633 260.397 111.461 252.978 113.302L256.349 126.89ZM223.334 123.421C234.266 128.887 246.41 129.355 256.349 126.89L252.978 113.302C245.814 115.079 237.147 114.675 229.595 110.899L223.334 123.421ZM223.269 123.388L223.334 123.421L229.595 110.899L229.53 110.866L223.269 123.388ZM222.945 123.216L223.009 123.251L229.789 111.003L229.725 110.967L222.945 123.216ZM207.382 111.301C211.478 115.007 216.662 119.738 222.945 123.216L229.725 110.967C225.08 108.396 221.046 104.785 216.776 100.92L207.382 111.301ZM203.783 108.096C204.915 109.07 206.088 110.13 207.382 111.301L216.776 100.92C215.509 99.7743 214.201 98.59 212.908 97.4788L203.783 108.096ZM191.63 101.054C195.822 101.997 199.37 104.303 203.783 108.096L212.908 97.4788C207.941 93.2091 202.273 89.0975 194.701 87.3954L191.63 101.054ZM192.121 108.019C195.097 104.851 197.596 101.219 199.491 97.224L186.841 91.2258C185.582 93.8797 183.915 96.3068 181.917 98.4347L192.121 108.019ZM204.79 122.803C203.356 114.049 199.211 105.754 192.048 98.3573L181.99 108.097C187.31 113.59 190.034 119.325 190.974 125.066L204.79 122.803ZM197.407 158.042C202.999 147.826 206.881 135.566 204.79 122.803L190.974 125.066C192.377 133.625 189.876 142.644 185.127 151.32L197.407 158.042ZM167.03 192.648C176.787 185.145 189.391 172.685 197.407 158.042L185.127 151.32C178.314 163.766 167.235 174.83 158.496 181.55L167.03 192.648ZM164.896 194.289L167.03 192.648L158.496 181.55L156.362 183.19L164.896 194.289ZM154.229 192.648L156.362 194.289L164.896 183.19L162.763 181.55L154.229 192.648ZM123.814 158.051C131.846 172.692 144.474 185.147 154.229 192.648L162.763 181.55C154.016 174.824 142.915 163.76 136.088 151.317L123.814 158.051ZM116.416 122.795C114.314 135.569 118.209 147.835 123.814 158.051L136.088 151.317C131.328 142.641 128.822 133.625 130.23 125.069L116.416 122.795ZM129.147 98.4027C121.997 105.784 117.854 114.06 116.416 122.795L130.23 125.069C131.172 119.345 133.892 113.626 139.203 108.144L129.147 98.4027ZM121.655 97.1933C123.564 101.2 126.073 104.859 129.063 108.055L139.287 98.4914C137.268 96.3328 135.578 93.8661 134.294 91.1713L121.655 97.1933ZM117.271 108.088C121.719 104.278 125.3 101.957 129.508 101.012L126.441 87.3523C118.86 89.0541 113.162 93.1741 108.164 97.4544L117.271 108.088ZM113.63 111.318C114.938 110.138 116.124 109.069 117.271 108.088L108.164 97.4544C106.857 98.5731 105.535 99.7658 104.255 100.92L113.63 111.318ZM98.0588 123.216C104.325 119.747 109.518 115.025 113.63 111.318L104.255 100.92C99.9665 104.787 95.918 108.399 91.2784 110.967L98.0588 123.216ZM97.9943 123.252L98.0585 123.216L91.2786 110.967L91.2144 111.003L97.9943 123.252ZM97.6692 123.421L97.7348 123.388L91.4739 110.866L91.4082 110.899L97.6692 123.421ZM64.6543 126.89C74.5933 129.355 86.7378 128.887 97.6692 123.421L91.4082 110.899C83.8565 114.675 75.1893 115.079 68.0254 113.302L64.6543 126.89ZM41.4625 108.336C44.793 118.803 55.4481 124.606 64.6543 126.89L68.0254 113.302C60.6068 111.461 55.9304 107.633 54.8035 104.091L41.4625 108.336ZM47.9335 90.7927C44.9302 93.2041 38.6382 99.4599 41.4625 108.336L54.8035 104.091C54.7795 104.016 54.7761 103.98 54.7758 103.976C54.7754 103.972 54.7756 103.974 54.7756 103.974C54.7758 103.972 54.7785 103.95 54.7941 103.903C54.8102 103.854 54.8407 103.776 54.8971 103.669C55.1633 103.164 55.7563 102.466 56.6987 101.709L47.9335 90.7927ZM52.6535 87.6238C51.0102 88.5643 49.3989 89.6161 47.9336 90.7926L56.6987 101.709C57.4544 101.102 58.4229 100.453 59.6074 99.7747L52.6535 87.6238ZM35.227 93.6045C40.6358 97.379 47.3663 99.8631 55.4385 100.665L56.8224 86.7335C50.8644 86.1417 46.4744 84.3815 43.2389 82.1236L35.227 93.6045ZM20.8247 70.1441C21.8393 77.7525 25.9304 87.1169 35.227 93.6045L43.2389 82.1236C37.7001 78.2584 35.2915 72.715 34.7018 68.2935L20.8247 70.1441ZM4.87738 58.8285C8.7658 64.588 15.0725 70.3063 24.4296 75.374L31.0969 63.0636C23.2629 58.8207 18.8454 54.4976 16.4806 50.9949L4.87738 58.8285ZM0.533912 40.3222C-1.04379 46.2689 0.982027 53.0587 4.87738 58.8285L16.4806 50.9949C13.875 47.1354 13.8999 44.5375 14.0658 43.9123L0.533912 40.3222ZM0.543038 40.2878L0.533939 40.3221L14.0657 43.9124L14.0748 43.8781L0.543038 40.2878ZM0.590612 40.117L0.58082 40.1511L14.0371 44.0149L14.0469 43.9808L0.590612 40.117ZM10.2048 26.6932C5.50362 29.8548 2.2164 34.4547 0.590586 40.117L14.0469 43.9807C14.8063 41.3358 16.1792 39.5468 18.0176 38.3104L10.2048 26.6932ZM24.8286 21.9751C19.8781 22.3706 14.7076 23.665 10.2048 26.6932L18.0176 38.3104C19.9223 37.0295 22.542 36.2024 25.9435 35.9306L24.8286 21.9751ZM56.69 27.2897C45.8266 23.6903 34.5209 21.2008 24.8286 21.9751L25.9435 35.9306C32.8155 35.3816 41.9809 37.1646 52.2868 40.5792L56.69 27.2897ZM96.6403 44.5527C84.3288 38.6176 70.013 31.7041 56.69 27.2897L52.2868 40.5792C64.5866 44.6546 78.053 51.1341 90.5608 57.1638L96.6403 44.5527ZM104.666 48.4006C102.095 47.1823 99.4178 45.8917 96.6403 44.5527L90.5608 57.1638C93.3296 58.4986 96.0506 59.8103 98.6724 61.0525L104.666 48.4006ZM128.777 58.3539C122.811 56.1295 114.194 52.9143 104.666 48.4006L98.6724 61.0525C108.791 65.8466 117.905 69.2416 123.887 71.4719L128.777 58.3539ZM131.889 47.0952C127.108 51.2839 123.258 56.5355 120.746 62.5325L133.658 67.9423C135.325 63.9642 137.892 60.449 141.115 57.6254L131.889 47.0952ZM129.591 36.2463C128.083 42.3587 128.645 48.8601 129.643 53.7578L143.361 50.9629C142.584 47.1477 142.362 42.9298 143.183 39.5996L129.591 36.2463ZM135.919 25.0238C132.337 28.3691 130.505 32.5412 129.591 36.2463L143.183 39.5996C143.662 37.6578 144.445 36.2176 145.475 35.2558L135.919 25.0238ZM142.066 21.1187C139.771 22.0431 137.705 23.3561 135.919 25.0238L145.474 35.2558C145.986 34.7781 146.582 34.3925 147.297 34.1046L142.066 21.1187ZM139.825 32.6555C139.853 32.6814 139.881 32.7067 139.907 32.7311L149.455 22.4922C149.372 22.4149 149.288 22.3372 149.201 22.2592L139.825 32.6555ZM131.701 28.6968C136.551 30.1831 138.887 31.8093 139.825 32.6553L149.201 22.2594C146.406 19.738 142.12 17.247 135.803 15.3113L131.701 28.6968ZM117.639 20.8479C122.143 21.6245 124.43 22.7673 125.352 23.3696L133.009 11.6489C130.134 9.77055 125.938 8.07216 120.018 7.05146L117.639 20.8479ZM109.076 8.71654C108.09 14.4312 111.924 19.8626 117.639 20.8479L120.018 7.05146C121.922 7.37989 123.2 9.19035 122.872 11.0952L109.076 8.71654ZM121.207 0.153238C115.492 -0.832051 110.061 3.00188 109.076 8.71654L122.872 11.0952C122.544 13.0001 120.733 14.2781 118.828 13.9497L121.207 0.153238ZM136.837 5.7886C132.985 3.27181 127.834 1.29582 121.207 0.153238L118.828 13.9497C124.041 14.8484 127.282 16.269 129.181 17.5093L136.837 5.7886ZM143.249 12.1106C141.658 9.53631 139.342 7.4247 136.837 5.7886L129.181 17.5093C130.47 18.3518 131.108 19.0944 131.341 19.4721L143.249 12.1106ZM153.89 17.0614C150.464 13.9718 145.741 11.2535 139.533 9.1588L135.057 22.4238C139.864 24.0462 142.799 25.9114 144.513 27.4573L153.89 17.0614ZM158.152 22.0884C157.021 20.2598 155.563 18.5709 153.89 17.0614L144.513 27.4573C145.349 28.2119 145.906 28.9047 146.246 29.4542L158.152 22.0884ZM171.525 19.0322C166.439 17.8218 158.718 17.0045 150.563 18.9652L153.836 32.5773C159.295 31.2648 164.704 31.7999 168.283 32.6517L171.525 19.0322ZM168.206 17.1431C166.538 18.648 165.084 20.3312 163.955 22.1531L175.853 29.5309C176.193 28.9821 176.749 28.2912 177.583 27.539L168.206 17.1431ZM182.536 9.24935C176.342 11.3428 171.627 14.0578 168.206 17.1431L177.583 27.539C179.295 25.9953 182.223 24.1331 187.019 22.5123L182.536 9.24935ZM184.984 5.93269C182.461 7.64526 180.267 9.78359 178.769 12.2894L190.786 19.4722C191.017 19.0856 191.619 18.3492 192.847 17.5157L184.984 5.93269ZM200.649 0.153238C193.984 1.30239 188.828 3.32272 184.984 5.93269L192.847 17.5157C194.669 16.2793 197.828 14.8462 203.028 13.9497L200.649 0.153238ZM212.781 8.71654C211.795 3.00186 206.364 -0.832047 200.649 0.153238L203.028 13.9497C201.123 14.2781 199.313 13.0001 198.984 11.0952L212.781 8.71654ZM155.383 36.6639C149.691 37.3417 144.313 39.1084 139.493 41.7644L146.251 54.0256C149.511 52.2288 153.16 51.0275 157.038 50.5657L155.383 36.6639ZM150.252 40.3718C150.21 40.4117 150.115 40.4925 149.982 40.5799C149.85 40.6666 149.748 40.7144 149.712 40.7298C149.687 40.7403 149.746 40.7132 149.938 40.6577C150.134 40.6015 150.422 40.5287 150.851 40.4372L147.927 26.7459C145.381 27.2896 142.94 28.0447 140.697 30.1398L150.252 40.3718ZM149.98 41.2762C150.239 40.2243 150.494 40.1462 150.252 40.3718L140.697 30.1398C138.393 32.2913 137.085 35.0956 136.387 37.9229L149.98 41.2762ZM149.827 47.0977C149.553 44.7159 149.635 42.6714 149.98 41.2762L136.387 37.923C135.505 41.5006 135.535 45.3541 135.918 48.6922L149.827 47.0977ZM146.805 62.0056C150.582 59.0985 155.379 57.3534 160.629 57.3534V43.3534C152.232 43.3534 144.444 46.1556 138.265 50.9117L146.805 62.0056ZM139.362 72.7571C140.631 68.4782 143.253 64.7394 146.805 62.0056L138.265 50.9117C132.467 55.375 128.077 61.5666 125.94 68.7786L139.362 72.7571ZM138.501 78.7621C138.501 76.6452 138.806 74.6355 139.362 72.7571L125.94 68.7786C125.002 71.9409 124.501 75.2902 124.501 78.7621H138.501ZM138.549 80.2317C138.517 79.7474 138.501 79.2574 138.501 78.7621H124.501C124.501 79.5644 124.527 80.361 124.579 81.1511L138.549 80.2317ZM139.781 86.1634C139.111 84.2975 138.686 82.3094 138.549 80.2317L124.579 81.1512C124.803 84.5477 125.5 87.8186 126.605 90.8963L139.781 86.1634ZM139.919 86.5364C139.875 86.4204 139.832 86.3038 139.789 86.1869L126.619 90.9347C126.688 91.1273 126.759 91.3191 126.832 91.5102L139.919 86.5364ZM140.032 86.8274C139.993 86.7303 139.956 86.6333 139.919 86.5364L126.832 91.5102C126.893 91.6708 126.955 91.8304 127.018 91.9891L140.032 86.8274ZM146.088 95.3327C143.431 93.0366 141.338 90.1214 140.032 86.8271L127.018 91.9893C129.169 97.4107 132.599 102.179 136.933 105.925L146.088 95.3327ZM160.389 100.651C154.913 100.651 149.929 98.6526 146.088 95.3327L136.933 105.925C143.222 111.36 151.426 114.651 160.389 114.651V100.651ZM175.126 95.2571C171.224 98.6071 166.07 100.651 160.389 100.651V114.651C169.478 114.651 177.852 111.368 184.245 105.879L175.126 95.2571ZM181.195 86.623C179.945 89.9604 177.848 92.9197 175.126 95.2571L184.245 105.879C188.702 102.053 192.201 97.1493 194.305 91.5357L181.195 86.623ZM182.488 80.3757C182.373 82.5877 181.923 84.6806 181.195 86.623L194.305 91.5357C195.53 88.2657 196.279 84.7622 196.469 81.1032L182.488 80.3757ZM182.518 79.2419C182.518 79.6237 182.508 80.0017 182.488 80.3758L196.47 81.1031C196.502 80.4868 196.518 79.8663 196.518 79.2419H182.518ZM181.575 72.8578C182.186 74.8647 182.518 77.005 182.518 79.2419H196.518C196.518 75.6092 195.977 72.0965 194.969 68.7831L181.575 72.8578ZM173.938 61.8623C177.529 64.6167 180.234 68.4494 181.575 72.8578L194.969 68.7831C192.759 61.5197 188.319 55.249 182.46 50.7544L173.938 61.8623ZM173.91 61.8408L173.946 61.8685L182.452 50.7481L182.415 50.7203L173.91 61.8408ZM160.629 57.3534C165.631 57.3534 170.226 59.0235 173.911 61.8412L182.415 50.7199C176.373 46.1005 168.811 43.3534 160.629 43.3534V57.3534ZM137.557 124.237C138.511 120.605 140.55 116.752 144.427 112.813L134.449 102.993C129.009 108.52 125.644 114.485 124.016 120.679L137.557 124.237ZM134.235 116.319C133.997 116.218 133.771 116.121 133.558 116.03L128.016 128.886C128.253 128.988 128.505 129.096 128.769 129.208L134.235 116.319ZM142.041 119.349C138.922 118.25 136.186 117.147 134.235 116.319L128.769 129.208C130.92 130.12 133.933 131.336 137.391 132.554L142.041 119.349ZM160.625 123.501C155.653 123.503 148.614 121.663 142.041 119.349L137.391 132.554C144.195 134.95 153.133 137.504 160.631 137.501L160.625 123.501ZM179.18 119.346C172.618 121.659 165.59 123.499 160.625 123.501L160.631 137.501C168.117 137.497 177.041 134.944 183.834 132.549L179.18 119.346ZM186.973 116.319C185.025 117.145 182.295 118.248 179.18 119.346L183.834 132.549C187.286 131.332 190.295 130.117 192.443 129.206L186.973 116.319ZM187.649 116.03C187.436 116.121 187.211 116.218 186.973 116.319L192.443 129.206C192.706 129.094 192.956 128.987 193.193 128.885L187.649 116.03ZM176.755 112.754C180.648 116.708 182.694 120.578 183.649 124.229L197.193 120.686C195.566 114.467 192.193 108.479 186.731 102.931L176.755 112.754ZM160.389 121.651C169.824 121.651 178.643 118.668 185.816 113.535L177.669 102.15C172.828 105.615 166.847 107.651 160.389 107.651V121.651ZM135.347 113.583C142.393 118.657 151.055 121.651 160.389 121.651V107.651C154.089 107.651 148.272 105.638 143.528 102.222L135.347 113.583ZM186.161 139.151C189.211 138.076 191.924 137.005 194.044 136.125L188.678 123.194C186.742 123.998 184.27 124.974 181.507 125.948L186.161 139.151ZM160.634 144.501C169.378 144.497 179.247 141.588 186.161 139.151L181.507 125.948C174.832 128.3 166.854 130.498 160.628 130.501L160.634 144.501ZM135.066 139.157C141.991 141.595 151.877 144.504 160.634 144.501L160.628 130.501C154.392 130.503 146.403 128.306 139.716 125.951L135.066 139.157ZM127.159 136.124C129.284 137.005 132.006 138.079 135.067 139.157L139.716 125.951C136.944 124.975 134.465 123.997 132.523 123.192L127.159 136.124ZM141.683 146.94C138.477 140.822 136.797 134.999 136.841 129.716L122.841 129.599C122.772 137.872 125.379 145.99 129.283 153.44L141.683 146.94ZM139.278 144.118C138.74 143.928 138.278 143.76 137.906 143.623L133.061 156.757C133.487 156.915 134.007 157.104 134.608 157.316L139.278 144.118ZM145.638 146.18C143.099 145.432 140.869 144.681 139.278 144.118L134.608 157.316C136.375 157.942 138.849 158.775 141.682 159.609L145.638 146.18ZM160.626 149.001C156.683 149.002 150.998 147.759 145.638 146.18L141.681 159.609C147.251 161.25 154.559 163.003 160.631 163.001L160.626 149.001ZM175.591 146.178C170.24 147.756 164.563 148.999 160.626 149.001L160.631 163.001C166.693 162.998 173.99 161.246 179.551 159.606L175.591 146.178ZM181.94 144.118C180.352 144.68 178.126 145.431 175.591 146.178L179.551 159.606C182.379 158.772 184.849 157.94 186.613 157.315L181.94 144.118ZM183.307 143.624C182.936 143.761 182.476 143.928 181.94 144.118L186.613 157.315C187.211 157.103 187.73 156.915 188.155 156.758L183.307 143.624ZM184.362 129.716C184.404 135.004 182.726 140.83 179.528 146.947L191.934 153.435C195.828 145.987 198.427 137.872 198.361 129.604L184.362 129.716ZM160.633 170.001C167.755 169.998 175.86 167.993 181.531 166.32L177.571 152.892C172.117 154.5 165.629 155.999 160.628 156.001L160.633 170.001ZM139.703 166.324C145.383 167.997 153.5 170.003 160.633 170.001L160.628 156.001C155.62 156.002 149.122 154.504 143.66 152.895L139.703 166.324ZM165.051 174.433C159.127 169.607 152.388 162.922 146.96 155.396L135.606 163.586C141.874 172.277 149.514 179.832 156.207 185.287L165.051 174.433ZM174.265 155.4C168.849 162.927 162.121 169.612 156.206 174.434L165.052 185.286C171.743 179.831 179.372 172.273 185.629 163.577L174.265 155.4ZM118.059 85.6864C118.256 86.8968 118.503 88.091 118.799 89.2664L132.375 85.8457C132.176 85.0561 132.01 84.2534 131.877 83.439L118.059 85.6864ZM97.5055 95.3526C107.649 93.6167 118.47 92.0142 125.436 91.547L124.499 77.5784C116.751 78.0981 105.309 79.8136 95.144 81.5532L97.5055 95.3526ZM92.7298 96.1875C94.2759 95.9116 95.875 95.6316 97.5055 95.3526L95.144 81.5532C93.4789 81.8381 91.847 82.1239 90.27 82.4053L92.7298 96.1875ZM68.8086 103.151C76.3992 100.079 86.2096 97.5257 92.9049 96.154L90.095 82.4389C82.9445 83.9038 72.2292 86.6635 63.5559 90.1741L68.8086 103.151ZM61.0813 107.168C62.3391 106.158 64.8906 104.737 68.8086 103.151L63.5559 90.1741C59.2499 91.917 55.185 93.9475 52.3161 96.2509L61.0813 107.168ZM61.1306 106.854C61.0127 107.082 60.9069 107.241 60.8416 107.332C60.7743 107.426 60.7304 107.476 60.7241 107.483C60.7146 107.494 60.8127 107.383 61.0813 107.168L52.3161 96.2509C50.8819 97.4026 49.55 98.7764 48.7049 100.405L61.1306 106.854ZM61.3371 101.579C61.3344 101.572 61.3606 101.639 61.3903 101.722C61.4225 101.813 61.4626 101.931 61.5042 102.071C61.5899 102.359 61.6659 102.683 61.7177 103.04C61.8222 103.762 61.7989 104.416 61.7198 104.964C61.5751 105.968 61.2388 106.646 61.1306 106.854L48.7049 100.405C48.4292 100.936 48.0278 101.824 47.8632 102.966C47.6408 104.507 47.9492 105.767 48.2647 106.59L61.3371 101.579ZM69.711 106.507C66.7483 105.772 64.5827 104.699 63.1808 103.679C61.6903 102.595 61.4412 101.866 61.474 101.969L48.133 106.214C49.296 109.869 51.9569 112.827 54.9443 115C58.0203 117.238 61.9006 118.994 66.3399 120.096L69.711 106.507ZM88.2274 104.663C82.3734 107.573 75.467 107.936 69.711 106.507L66.3399 120.096C74.8684 122.211 85.2381 121.783 94.4583 117.2L88.2274 104.663ZM99.1271 96.1052C94.9932 99.8278 91.7923 102.672 87.9406 104.814L94.745 117.049C100.205 114.013 104.543 110.068 108.496 106.509L99.1271 96.1052ZM103.61 92.1377C102.018 93.5015 100.52 94.8508 99.1271 96.1052L108.496 106.509C109.906 105.239 111.278 104.004 112.717 102.771L103.61 92.1377ZM123.871 80.7698C115.162 82.9725 108.723 87.7589 103.61 92.1377L112.717 102.771C117.293 98.852 121.745 95.7482 127.303 94.3424L123.871 80.7698ZM118.292 70.5982C117.86 72.7952 117.6 75.0498 117.524 77.3473L131.517 77.809C131.568 76.2649 131.742 74.7588 132.029 73.2983L118.292 70.5982ZM95.6753 67.3784C106.108 72.3212 115.631 75.8671 121.59 78.0878L126.479 64.969C120.534 62.7539 111.509 59.3882 101.669 54.7265L95.6753 67.3784ZM87.3481 63.3877C90.1637 64.7445 92.9545 66.0894 95.6753 67.3784L101.669 54.7265C98.9977 53.4607 96.2492 52.1363 93.4255 50.7757L87.3481 63.3877ZM50.0851 47.224C61.9083 51.1414 74.8472 57.3639 87.3481 63.3877L93.4255 50.7757C81.1273 44.8495 67.3355 38.1912 54.4884 33.9345L50.0851 47.224ZM26.5009 42.9084C31.9611 42.4722 40.0551 43.9007 50.0851 47.224L54.4884 33.9345C43.9048 30.4278 33.6688 28.2912 25.3861 28.9529L26.5009 42.9084ZM21.924 44.119C22.5313 43.7106 23.8767 43.118 26.5009 42.9084L25.3861 28.9529C21.2088 29.2866 17.3142 30.3477 14.1112 32.5018L21.924 44.119ZM20.7813 45.8909C20.9638 45.2633 21.1683 44.9021 21.3209 44.6901C21.4694 44.4836 21.6521 44.3019 21.924 44.119L14.1112 32.5018C10.8627 34.6865 8.5376 37.8567 7.3381 41.9819L20.7813 45.8909ZM22.2822 47.078C21.4078 45.7829 21.121 44.9239 21.0333 44.5768C20.9879 44.3971 20.996 44.3559 21.0008 44.4567C21.0031 44.5066 21.0057 44.6124 20.9945 44.77C20.9849 44.9064 20.9577 45.1907 20.8654 45.5743L7.25403 42.2984C6.48151 45.5082 7.43367 50.1047 10.679 54.9117L22.2822 47.078ZM35.8491 57.6541C27.8246 53.5582 23.9914 49.6097 22.2822 47.078L10.679 54.9117C14.009 59.8442 19.8753 65.219 29.4844 70.1236L35.8491 57.6541ZM37.664 58.5804L35.8491 57.6541L29.4844 70.1236L31.2993 71.05L37.664 58.5804ZM41.5652 66.54L41.4747 64.5044L27.4885 65.126L27.579 67.1617L41.5652 66.54ZM47.2448 76.3832C43.1301 73.5118 41.6863 69.2663 41.5652 66.54L27.579 67.1617C27.8587 73.4543 30.9467 82.0815 39.2329 87.8641L47.2448 76.3832ZM76.3341 77.9169C59.6159 81.9882 51.2058 79.1474 47.2448 76.3832L39.2329 87.8641C47.5715 93.6831 60.5216 96.1768 79.6466 91.5193L76.3341 77.9169ZM76.4058 77.8994L76.3339 77.9169L79.6468 91.5193L79.7187 91.5018L76.4058 77.8994ZM76.7679 77.8209L76.6954 77.8354L79.4291 91.5659L79.5016 91.5514L76.7679 77.8209ZM88.996 75.5221C84.2482 76.3697 79.9806 77.181 76.7673 77.821L79.5022 91.5513C82.6189 90.9305 86.7949 90.1364 91.4566 89.3042L88.996 75.5221ZM93.9633 74.6535C92.2846 74.9407 90.6392 75.2288 89.0486 75.5127L91.5082 89.295C93.068 89.0166 94.6807 88.7342 96.3248 88.4529L93.9633 74.6535ZM124.052 70.5938C115.795 71.1478 104.012 72.9338 93.9633 74.6535L96.3248 88.4529C106.356 86.7363 117.515 85.0639 124.989 84.5624L124.052 70.5938ZM217.471 92.1703C212.375 87.7899 205.953 83.0019 197.232 80.8031L193.809 94.3783C199.364 95.7789 203.793 98.874 208.345 102.787L217.471 92.1703ZM221.91 96.1124C220.531 94.8663 219.048 93.5257 217.471 92.1703L208.345 102.787C209.77 104.012 211.127 105.238 212.523 106.5L221.91 96.1124ZM233.063 104.814C229.212 102.672 226.028 99.8335 221.91 96.1124L212.523 106.5C216.462 110.058 220.788 114.007 226.258 117.049L233.063 104.814ZM251.292 106.507C245.536 107.936 238.63 107.573 232.776 104.663L226.545 117.2C235.765 121.783 246.135 122.211 254.664 120.096L251.292 106.507ZM259.529 101.969C259.562 101.866 259.313 102.595 257.823 103.679C256.421 104.699 254.255 105.772 251.292 106.507L254.664 120.096C259.103 118.994 262.983 117.238 266.059 115C269.047 112.827 271.707 109.869 272.87 106.214L259.529 101.969ZM259.85 106.776C259.738 106.555 259.407 105.866 259.274 104.855C259.202 104.302 259.193 103.685 259.288 103.028C259.335 102.708 259.399 102.428 259.463 102.196C259.522 101.981 259.582 101.81 259.578 101.822L272.828 106.343C273.032 105.744 273.355 104.561 273.156 103.037C273.004 101.881 272.609 100.979 272.332 100.436L259.85 106.776ZM259.939 107.136C260.194 107.343 260.282 107.445 260.265 107.426C260.255 107.415 260.208 107.361 260.139 107.263C260.072 107.167 259.967 107.005 259.85 106.776L272.332 100.435C271.505 98.806 270.193 97.4309 268.778 96.2785L259.939 107.136ZM252.398 103.181C256.253 104.753 258.733 106.154 259.939 107.136L268.778 96.2784C265.949 93.9757 261.937 91.9521 257.686 90.2182L252.398 103.181ZM228.557 96.2347C235.25 97.6057 244.935 100.136 252.398 103.181L257.686 90.2182C249.123 86.7249 238.518 83.9846 231.367 82.5196L228.557 96.2347ZM224.412 95.5078C225.881 95.7614 227.324 96.0158 228.727 96.2673L231.198 82.487C229.767 82.2305 228.294 81.971 226.795 81.712L224.412 95.5078ZM195.647 91.5494C202.854 92.0358 214.107 93.728 224.412 95.5078L226.795 81.712C216.479 79.9304 204.591 78.1212 196.589 77.5812L195.647 91.5494ZM202.321 89.2499C202.612 88.0575 202.852 86.8455 203.039 85.6163L189.197 83.5142C189.073 84.3333 188.913 85.1395 188.72 85.9315L202.321 89.2499ZM232.476 75.6046C221.329 73.605 206.646 71.238 196.946 70.5908L196.014 84.5597C204.847 85.1491 218.831 87.3804 230.004 89.3847L232.476 75.6046ZM244.236 77.821C241.259 77.2279 237.381 76.4883 233.058 75.7092L230.575 89.4872C234.819 90.2522 238.613 90.9759 241.501 91.5513L244.236 77.821ZM244.308 77.8354L244.236 77.8209L241.502 91.5514L241.574 91.5659L244.308 77.8354ZM244.67 77.917L244.598 77.8995L241.285 91.5018L241.356 91.5193L244.67 77.917ZM273.759 76.3832C269.798 79.1474 261.388 81.9882 244.669 77.9169L241.357 91.5193C260.482 96.1768 273.432 93.6831 281.771 87.8641L273.759 76.3832ZM279.438 66.5401C279.317 69.2663 277.873 73.5118 273.759 76.3832L281.771 87.8641C290.057 82.0815 293.145 73.4543 293.424 67.1616L279.438 66.5401ZM279.529 64.5044L279.438 66.54L293.424 67.1617L293.515 65.1261L279.529 64.5044ZM285.154 57.6541L283.339 58.5804L289.704 71.05L291.519 70.1236L285.154 57.6541ZM298.721 47.078C297.012 49.6097 293.179 53.5582 285.154 57.6541L291.519 70.1237C301.128 65.219 306.994 59.8442 310.324 54.9117L298.721 47.078ZM300.138 45.5744C300.046 45.1908 300.019 44.9064 300.009 44.77C299.998 44.6124 300 44.5066 300.003 44.4567C300.007 44.3559 300.016 44.3972 299.97 44.5769C299.882 44.9239 299.596 45.7829 298.721 47.078L310.324 54.9117C313.57 50.1046 314.522 45.5079 313.749 42.2982L300.138 45.5744ZM299.079 44.119C299.351 44.3019 299.534 44.4836 299.683 44.6901C299.835 44.9021 300.04 45.2633 300.222 45.8908L313.665 41.9817C312.466 37.8567 310.141 34.6864 306.892 32.5018L299.079 44.119ZM294.503 42.9084C297.127 43.118 298.472 43.7106 299.079 44.119L306.892 32.5018C303.689 30.3477 299.795 29.2866 295.617 28.9529L294.503 42.9084ZM270.918 47.224C280.948 43.9007 289.042 42.4722 294.503 42.9084L295.617 28.9529C287.335 28.2912 277.099 30.4278 266.515 33.9345L270.918 47.224ZM233.655 63.3877C246.156 57.3639 259.095 51.1414 270.918 47.224L266.515 33.9345C253.668 38.1911 239.876 44.8494 227.578 50.7756L233.655 63.3877ZM225.328 67.3784C228.049 66.0894 230.84 64.7445 233.655 63.3877L227.578 50.7756C224.754 52.1363 222.006 53.4607 219.334 54.7265L225.328 67.3784ZM199.348 78.1084C205.33 75.8805 214.903 72.3177 225.328 67.3784L219.334 54.7265C209.504 59.3837 200.431 62.7656 194.462 64.9888L199.348 78.1084ZM198.227 78.5262C198.585 78.3926 198.958 78.2537 199.348 78.1083L194.462 64.9888C194.073 65.1337 193.695 65.2745 193.332 65.41L198.227 78.5262ZM203.472 77.2551C203.368 74.9758 203.085 72.7377 202.636 70.556L188.923 73.3802C189.225 74.846 189.416 76.354 189.487 77.8954L203.472 77.2551ZM170.967 41.0909C171.241 42.4649 171.252 44.4545 170.932 46.8156L184.804 48.6985C185.238 45.5032 185.388 41.817 184.697 38.3545L170.967 41.0909ZM170.785 40.2586C170.652 40.1179 170.644 40.0574 170.7 40.1774C170.758 40.3029 170.867 40.5877 170.967 41.0909L184.697 38.3546C184.15 35.6101 183.041 32.847 180.965 30.6482L170.785 40.2586ZM171.173 40.5918C171.348 40.6248 171.324 40.6434 171.188 40.5701C171.124 40.5356 171.051 40.4892 170.976 40.4309C170.901 40.3728 170.837 40.3132 170.785 40.2585L180.965 30.6482C179.178 28.7546 176.783 27.4033 173.769 26.8346L171.173 40.5918ZM181.235 41.6202C176.619 39.0869 171.482 37.377 166.03 36.6909L164.282 50.5814C167.948 51.0427 171.397 52.1907 174.501 53.8938L181.235 41.6202ZM172.11 44.4341C172.178 43.8485 172.319 43.0566 172.547 42.2364C172.779 41.3993 173.051 40.7152 173.307 40.2477C173.591 39.7275 173.648 39.8518 173.257 40.1145C173.024 40.2714 172.662 40.4528 172.192 40.5489C171.714 40.6467 171.297 40.6203 171.01 40.559L173.932 26.8674C170.764 26.1911 167.809 26.9091 165.45 28.4934C163.303 29.9363 161.913 31.905 161.025 33.5272C159.267 36.7409 158.476 40.4512 158.202 42.8382L172.11 44.4341ZM125.352 23.3696C125.046 23.1698 124.916 23.005 124.966 23.0627C124.989 23.0891 125.038 23.1482 125.125 23.2641C125.218 23.3866 125.315 23.5218 125.465 23.7307L136.833 15.5587C136.41 14.9702 135.106 13.0192 133.009 11.649L125.352 23.3696ZM125.465 23.7307C125.885 24.3146 127.893 27.5299 131.701 28.6968L135.803 15.3113C136.202 15.4337 136.538 15.605 136.8 15.7769C137.051 15.9418 137.205 16.0881 137.263 16.147C137.317 16.2013 137.31 16.2027 137.226 16.0938C137.133 15.9749 137.029 15.8317 136.833 15.5588L125.465 23.7307ZM129.648 58.6787L128.778 58.3542L123.886 71.4716L124.756 71.7961L129.648 58.6787ZM192.167 58.3723L191.251 58.7137L196.142 71.8317L197.057 71.4904L192.167 58.3723ZM190.395 28.7785C194.298 27.5826 196.302 24.2203 196.699 23.6473L185.184 15.6835C184.99 15.9639 184.888 16.1109 184.796 16.2329C184.712 16.3449 184.707 16.3419 184.762 16.2837C184.823 16.2208 184.982 16.0645 185.244 15.8886C185.518 15.7052 185.871 15.5222 186.293 15.3929L190.395 28.7785ZM196.699 23.6473C196.844 23.4366 196.939 23.2995 197.029 23.1755C197.115 23.0578 197.162 22.9982 197.184 22.9719C197.205 22.947 197.183 22.9761 197.12 23.0355C197.056 23.0967 196.943 23.196 196.779 23.3072L188.916 11.7242C186.855 13.1233 185.585 15.1037 185.184 15.6835L196.699 23.6473ZM139.79 86.1895L139.779 86.1585L126.607 90.9012L126.618 90.9321L139.79 86.1895ZM61.3811 101.697L61.3785 101.69L48.2233 106.479L48.2259 106.486L61.3811 101.697ZM89.0485 75.5127L88.9964 75.522L91.4562 89.3042L91.5083 89.2949L89.0485 75.5127ZM259.563 101.866L259.56 101.874L272.84 106.309L272.842 106.3L259.563 101.866ZM233.055 75.7087L232.49 75.6072L230.013 89.3862L230.577 89.4877L233.055 75.7087ZM232.491 75.6073L232.48 75.6053L230.001 89.384L230.012 89.3861L232.491 75.6073ZM163.043 42.0942C162.8 40.9996 162.151 37.026 160.816 34.0009C160.103 32.3858 158.867 30.191 156.662 28.5584C154.16 26.7069 151.079 26.0727 147.927 26.7459L150.851 40.4372C150.657 40.4786 150.241 40.5269 149.694 40.4134C149.139 40.2982 148.672 40.0625 148.332 39.8111C147.758 39.3862 147.756 39.0822 148.008 39.6539C148.23 40.1572 148.462 40.9065 148.703 41.9443C148.819 42.4427 148.925 42.95 149.035 43.4901C149.137 43.9928 149.258 44.5996 149.378 45.1354L163.043 42.0942ZM177.951 152.779L177.781 152.83L181.773 166.249L181.943 166.198L177.951 152.779ZM177.791 152.827L177.565 152.894L181.537 166.319L181.763 166.252L177.791 152.827ZM143.659 152.895C143.596 152.876 143.532 152.857 143.469 152.838L139.491 166.261C139.562 166.282 139.633 166.303 139.704 166.324L143.659 152.895ZM143.469 152.838C143.407 152.82 143.344 152.801 143.282 152.783L139.284 166.2C139.353 166.22 139.422 166.241 139.491 166.261L143.469 152.838ZM127.607 65.3899L127.069 65.1889L122.175 78.3057L122.713 78.5066L127.607 65.3899ZM127.066 65.188L126.479 64.9692L121.59 78.0877L122.177 78.3065L127.066 65.188Z" fill="#26619C" mask="url(#path-3-outside-1_23_18)"/>
</svg>
